G04*
G04 #@! TF.GenerationSoftware,Altium Limited,Altium Designer,24.0.1 (36)*
G04*
G04 Layer_Color=32896*
%FSLAX44Y44*%
%MOMM*%
G71*
G04*
G04 #@! TF.SameCoordinates,90447B52-5C6C-4E24-8687-CF59556E230F*
G04*
G04*
G04 #@! TF.FilePolarity,Positive*
G04*
G01*
G75*
G36*
X607394Y645741D02*
X548807D01*
Y744801D01*
X607394D01*
Y645741D01*
D02*
G37*
%LPC*%
G36*
X605413Y744518D02*
X604847D01*
Y743951D01*
X604705D01*
Y742961D01*
X604563D01*
Y742395D01*
X604422D01*
Y742112D01*
X604563D01*
Y741263D01*
X604705D01*
Y740980D01*
X604847D01*
Y741121D01*
X605130D01*
Y741263D01*
X605554D01*
Y741121D01*
X605837D01*
Y741546D01*
X605696D01*
Y741829D01*
X605554D01*
Y741546D01*
X605413D01*
Y741404D01*
X605130D01*
Y741546D01*
X604988D01*
Y741970D01*
X604847D01*
Y742395D01*
X604988D01*
Y743385D01*
X604847D01*
Y743527D01*
X604988D01*
Y743669D01*
X605271D01*
Y743385D01*
X605413D01*
Y742536D01*
X605554D01*
Y742678D01*
X605696D01*
Y743385D01*
X605979D01*
Y743810D01*
X605837D01*
Y744234D01*
X605696D01*
Y744376D01*
X605413D01*
Y744518D01*
D02*
G37*
G36*
X603856Y742253D02*
X603714D01*
Y742112D01*
Y741970D01*
X603856D01*
Y741829D01*
X603997D01*
Y741970D01*
X604139D01*
Y742112D01*
X603856D01*
Y742253D01*
D02*
G37*
G36*
X606545Y743102D02*
X606262D01*
Y742961D01*
X606120D01*
Y742253D01*
X606262D01*
Y741546D01*
X606403D01*
Y742112D01*
Y742253D01*
Y742395D01*
X606545D01*
Y743102D01*
D02*
G37*
G36*
X603997Y741546D02*
X603856D01*
Y741404D01*
X603714D01*
Y741263D01*
X603573D01*
Y740838D01*
X603714D01*
Y740414D01*
X603856D01*
Y740697D01*
X603997D01*
Y741404D01*
Y741546D01*
D02*
G37*
G36*
X603856Y740131D02*
X603714D01*
Y739848D01*
X603856D01*
Y740131D01*
D02*
G37*
G36*
X603007Y739848D02*
X602865D01*
Y739281D01*
X603007D01*
Y738998D01*
X603148D01*
Y738716D01*
X603290D01*
Y738574D01*
X603431D01*
Y738291D01*
X603573D01*
Y737725D01*
X603714D01*
Y737442D01*
X603856D01*
Y737159D01*
X603997D01*
Y737017D01*
X604139D01*
Y736876D01*
X604281D01*
Y736734D01*
X604422D01*
Y736593D01*
X604563D01*
Y736310D01*
X604705D01*
Y736168D01*
X604847D01*
Y735885D01*
X604705D01*
Y735602D01*
X604563D01*
Y735319D01*
X604422D01*
Y735178D01*
X604281D01*
Y735036D01*
X604139D01*
Y734895D01*
X603997D01*
Y734612D01*
X603856D01*
Y734470D01*
X603714D01*
Y734329D01*
X603573D01*
Y733904D01*
X603714D01*
Y733763D01*
X603856D01*
Y733621D01*
X603997D01*
Y733479D01*
X604139D01*
Y733338D01*
X604281D01*
Y733196D01*
X604422D01*
Y733055D01*
X604705D01*
Y732913D01*
X604847D01*
Y732772D01*
X604988D01*
Y732630D01*
X605130D01*
Y732489D01*
X605271D01*
Y732206D01*
X605696D01*
Y733338D01*
X605413D01*
Y733196D01*
X605271D01*
Y733055D01*
X605130D01*
Y732913D01*
X604988D01*
Y733338D01*
X605130D01*
Y733479D01*
X605271D01*
Y733621D01*
X605696D01*
Y733338D01*
X605837D01*
Y733763D01*
X605979D01*
Y734045D01*
X606120D01*
Y734187D01*
X606262D01*
Y734612D01*
X606403D01*
Y735036D01*
X606262D01*
Y735178D01*
X606545D01*
Y735319D01*
X606686D01*
Y735461D01*
X606828D01*
Y735744D01*
X606969D01*
Y736027D01*
X607111D01*
Y736310D01*
X606828D01*
Y736593D01*
X606686D01*
Y736451D01*
X606262D01*
Y736593D01*
X605979D01*
Y736451D01*
X605696D01*
Y736593D01*
X605413D01*
Y736734D01*
X605130D01*
Y736876D01*
X604847D01*
Y737017D01*
X604705D01*
Y737159D01*
X604563D01*
Y737300D01*
X604422D01*
Y737442D01*
X604281D01*
Y737725D01*
X603997D01*
Y737866D01*
X603856D01*
Y738008D01*
X603714D01*
Y738291D01*
X603573D01*
Y738857D01*
X603431D01*
Y739140D01*
X603290D01*
Y739423D01*
X603148D01*
Y739565D01*
X603007D01*
Y739848D01*
D02*
G37*
G36*
X604281Y731781D02*
X604139D01*
Y731640D01*
X604281D01*
Y731498D01*
X604422D01*
Y730932D01*
X604705D01*
Y731215D01*
X604847D01*
Y731357D01*
Y731498D01*
X604705D01*
Y731640D01*
X604281D01*
Y731781D01*
D02*
G37*
G36*
X602016Y732206D02*
X601875D01*
Y732064D01*
X601733D01*
Y731923D01*
X601450D01*
Y731781D01*
X601309D01*
Y731640D01*
X601167D01*
Y731498D01*
X601026D01*
Y731357D01*
X600884D01*
Y731215D01*
X600743D01*
Y731074D01*
X600601D01*
Y730932D01*
X600460D01*
Y730791D01*
X600318D01*
Y730649D01*
X600177D01*
Y730508D01*
X600035D01*
Y730366D01*
X599894D01*
Y730225D01*
X599752D01*
Y730083D01*
X599610D01*
Y729942D01*
X599469D01*
Y729800D01*
X599328D01*
Y729659D01*
X599186D01*
Y729517D01*
X599044D01*
Y729376D01*
X598903D01*
Y729234D01*
X598761D01*
Y728951D01*
X598620D01*
Y728810D01*
X598478D01*
Y728668D01*
X598337D01*
Y728526D01*
X598195D01*
Y728243D01*
X598054D01*
Y727960D01*
X597912D01*
Y727819D01*
X597771D01*
Y727677D01*
X597629D01*
Y727536D01*
X597488D01*
Y727394D01*
X597346D01*
Y727253D01*
X597205D01*
Y727111D01*
X597063D01*
Y726970D01*
X596922D01*
Y726828D01*
X596780D01*
Y726687D01*
X596497D01*
Y726545D01*
X596356D01*
Y726404D01*
X596214D01*
Y726262D01*
X595931D01*
Y726121D01*
X595790D01*
Y725979D01*
X595648D01*
Y725838D01*
X595507D01*
Y725696D01*
X595365D01*
Y725555D01*
X595224D01*
Y725272D01*
X595082D01*
Y725130D01*
X594941D01*
Y724989D01*
X594799D01*
Y724706D01*
X594658D01*
Y724564D01*
X594375D01*
Y724423D01*
X594233D01*
Y724281D01*
X594091D01*
Y724139D01*
X593950D01*
Y723998D01*
X593667D01*
Y723857D01*
X593525D01*
Y723715D01*
X593384D01*
Y723573D01*
X593242D01*
Y723432D01*
X593101D01*
Y723290D01*
X592959D01*
Y723149D01*
X592818D01*
Y723007D01*
X592676D01*
Y722866D01*
X592535D01*
Y722724D01*
X592252D01*
Y722583D01*
X592110D01*
Y722441D01*
X591827D01*
Y722300D01*
X591686D01*
Y722158D01*
X591544D01*
Y722017D01*
X591403D01*
Y721875D01*
X591120D01*
Y721734D01*
X590978D01*
Y721592D01*
X590837D01*
Y721451D01*
X590695D01*
Y721309D01*
X590554D01*
Y720885D01*
X590412D01*
Y720743D01*
X590271D01*
Y720602D01*
X589988D01*
Y720460D01*
X589705D01*
Y720319D01*
X589280D01*
Y720177D01*
X588997D01*
Y720319D01*
X588856D01*
Y720460D01*
X588714D01*
Y720602D01*
X588572D01*
Y720319D01*
X588431D01*
Y720036D01*
X588289D01*
Y719894D01*
X587865D01*
Y720177D01*
X588006D01*
Y720460D01*
X588148D01*
Y720602D01*
X588289D01*
Y721168D01*
X588431D01*
Y721451D01*
X588572D01*
Y721168D01*
X588856D01*
Y722158D01*
X588997D01*
Y722441D01*
X589138D01*
Y722724D01*
X589280D01*
Y723007D01*
X589422D01*
Y723290D01*
X589563D01*
Y723715D01*
X589705D01*
Y724139D01*
X589846D01*
Y724706D01*
X589988D01*
Y725696D01*
X589846D01*
Y725979D01*
X589988D01*
Y726262D01*
X589846D01*
Y726687D01*
X589705D01*
Y726828D01*
X589563D01*
Y727111D01*
X589422D01*
Y727253D01*
X589280D01*
Y727394D01*
X589138D01*
Y727536D01*
X588997D01*
Y727677D01*
X588856D01*
Y727960D01*
X588714D01*
Y728102D01*
X588431D01*
Y728243D01*
X588289D01*
Y728385D01*
X588148D01*
Y728526D01*
X588006D01*
Y728668D01*
X587723D01*
Y728810D01*
X587582D01*
Y728951D01*
X587299D01*
Y729092D01*
X587157D01*
Y729234D01*
X586874D01*
Y729376D01*
X586450D01*
Y729517D01*
X584752D01*
Y729376D01*
X583761D01*
Y729234D01*
X583619D01*
Y728951D01*
X583478D01*
Y728810D01*
X583336D01*
Y728668D01*
X583195D01*
Y728526D01*
X582912D01*
Y728668D01*
X582063D01*
Y728526D01*
X581921D01*
Y728385D01*
X581780D01*
Y728243D01*
X581497D01*
Y728102D01*
X581355D01*
Y727960D01*
X581214D01*
Y727819D01*
X581072D01*
Y727536D01*
X580931D01*
Y727253D01*
X580789D01*
Y726970D01*
X580648D01*
Y726687D01*
X580506D01*
Y726404D01*
X580365D01*
Y725979D01*
X580223D01*
Y723715D01*
X580365D01*
Y723432D01*
X580223D01*
Y723007D01*
X580506D01*
Y722441D01*
X580789D01*
Y722583D01*
X580931D01*
Y722724D01*
X581072D01*
Y722158D01*
X580931D01*
Y721875D01*
X581072D01*
Y721451D01*
X580931D01*
Y721026D01*
X580648D01*
Y720885D01*
X580506D01*
Y720460D01*
X580648D01*
Y718904D01*
X580789D01*
Y718762D01*
X580931D01*
Y718620D01*
X581072D01*
Y718337D01*
X581214D01*
Y718196D01*
X581355D01*
Y718054D01*
X581497D01*
Y717913D01*
X581638D01*
Y717771D01*
X581780D01*
Y717630D01*
X581921D01*
Y717488D01*
X582063D01*
Y717347D01*
X582204D01*
Y717205D01*
X582346D01*
Y717064D01*
X582487D01*
Y716922D01*
X582629D01*
Y716781D01*
X582770D01*
Y716639D01*
X582912D01*
Y716498D01*
X583053D01*
Y716356D01*
X583195D01*
Y716215D01*
X583336D01*
Y716073D01*
X583478D01*
Y715932D01*
X583195D01*
Y715790D01*
X583053D01*
Y715649D01*
X582912D01*
Y715507D01*
X582770D01*
Y715366D01*
X582629D01*
Y715224D01*
X582770D01*
Y715083D01*
X582912D01*
Y714941D01*
X583053D01*
Y714658D01*
X583195D01*
Y713809D01*
X583336D01*
Y713384D01*
X583195D01*
Y713101D01*
X582912D01*
Y712818D01*
X582770D01*
Y712677D01*
X582629D01*
Y712535D01*
X582487D01*
Y712394D01*
X582346D01*
Y712111D01*
X582204D01*
Y711969D01*
X582063D01*
Y711686D01*
X581921D01*
Y711403D01*
X581780D01*
Y710979D01*
X581638D01*
Y710554D01*
X581497D01*
Y709988D01*
X581214D01*
Y710271D01*
X581072D01*
Y710696D01*
X580931D01*
Y710979D01*
X580789D01*
Y711262D01*
X580648D01*
Y711969D01*
X580506D01*
Y713526D01*
X580365D01*
Y714092D01*
X580506D01*
Y714517D01*
X581355D01*
Y714375D01*
X581638D01*
Y714233D01*
X581780D01*
Y714375D01*
X581638D01*
Y714517D01*
X581780D01*
Y714658D01*
X581921D01*
Y714799D01*
X581780D01*
Y714941D01*
X581921D01*
Y715083D01*
X581355D01*
Y715224D01*
X580648D01*
Y715366D01*
X580506D01*
Y715790D01*
X580365D01*
Y715932D01*
X580223D01*
Y716073D01*
X580082D01*
Y716498D01*
X579940D01*
Y717205D01*
X580082D01*
Y717488D01*
X579940D01*
Y717913D01*
X580082D01*
Y718479D01*
X580223D01*
Y719186D01*
X580365D01*
Y719470D01*
X580223D01*
Y719328D01*
X579515D01*
Y719186D01*
X578950D01*
Y719045D01*
X578525D01*
Y718904D01*
X578242D01*
Y718762D01*
X577959D01*
Y718620D01*
X577393D01*
Y718479D01*
X576685D01*
Y718337D01*
X576261D01*
Y718196D01*
X575836D01*
Y718054D01*
X575270D01*
Y717913D01*
X574846D01*
Y718054D01*
X573997D01*
Y717913D01*
X573713D01*
Y717771D01*
X573572D01*
Y717630D01*
X573430D01*
Y717488D01*
X573147D01*
Y717347D01*
X573006D01*
Y717205D01*
X572864D01*
Y717064D01*
X572723D01*
Y716922D01*
X572440D01*
Y716781D01*
X572157D01*
Y716639D01*
X571874D01*
Y716498D01*
X571732D01*
Y716356D01*
X571449D01*
Y716215D01*
X571308D01*
Y716073D01*
X571025D01*
Y715932D01*
X570883D01*
Y715790D01*
X570742D01*
Y715649D01*
X570317D01*
Y715507D01*
X570176D01*
Y715366D01*
X570034D01*
Y715224D01*
X569751D01*
Y715083D01*
X569609D01*
Y714941D01*
X569468D01*
Y714799D01*
X569327D01*
Y714658D01*
X569185D01*
Y714517D01*
X569044D01*
Y714375D01*
X568902D01*
Y714233D01*
X568760D01*
Y714092D01*
X568619D01*
Y713951D01*
X568336D01*
Y713809D01*
X568194D01*
Y713667D01*
X567911D01*
Y713526D01*
X567345D01*
Y713243D01*
X566921D01*
Y713101D01*
X566638D01*
Y712960D01*
X566496D01*
Y712818D01*
X566355D01*
Y712677D01*
X566213D01*
Y712535D01*
X565930D01*
Y712394D01*
X565647D01*
Y712252D01*
X565506D01*
Y712111D01*
X565223D01*
Y711969D01*
X565081D01*
Y711828D01*
X564939D01*
Y711686D01*
X564798D01*
Y711545D01*
X564515D01*
Y711403D01*
X564374D01*
Y711262D01*
X564232D01*
Y711120D01*
X563949D01*
Y710979D01*
X563807D01*
Y710837D01*
X563666D01*
Y710554D01*
X563383D01*
Y710413D01*
X563241D01*
Y710271D01*
X562958D01*
Y710130D01*
X562534D01*
Y709988D01*
X562392D01*
Y709846D01*
X562251D01*
Y709705D01*
X562109D01*
Y709564D01*
X561968D01*
Y709422D01*
X561685D01*
Y709280D01*
X561543D01*
Y709139D01*
X561260D01*
Y708856D01*
X560977D01*
Y708714D01*
X560836D01*
Y708573D01*
X560694D01*
Y708431D01*
X560553D01*
Y708290D01*
X560411D01*
Y708148D01*
X560270D01*
Y708007D01*
X560128D01*
Y707865D01*
X559986D01*
Y707724D01*
X559845D01*
Y707582D01*
X559703D01*
Y707441D01*
X559562D01*
Y707299D01*
X559421D01*
Y707158D01*
X559279D01*
Y707016D01*
X558996D01*
Y706875D01*
X558854D01*
Y706733D01*
X558713D01*
Y706592D01*
X558571D01*
Y706450D01*
X558430D01*
Y706309D01*
X558288D01*
Y706167D01*
X558147D01*
Y706026D01*
X558005D01*
Y705884D01*
X557864D01*
Y705743D01*
X557722D01*
Y705601D01*
X557581D01*
Y705460D01*
X557439D01*
Y705318D01*
X557298D01*
Y705177D01*
X557156D01*
Y705035D01*
X557015D01*
Y704893D01*
X556873D01*
Y704752D01*
X556732D01*
Y704611D01*
X556590D01*
Y704469D01*
X556449D01*
Y704327D01*
X556307D01*
Y704186D01*
X556166D01*
Y704044D01*
X556024D01*
Y703903D01*
X555883D01*
Y703761D01*
X555741D01*
Y703620D01*
X555600D01*
Y703478D01*
X555458D01*
Y703195D01*
X555317D01*
Y703054D01*
X555175D01*
Y702912D01*
X555033D01*
Y702771D01*
X554892D01*
Y702629D01*
X554751D01*
Y702488D01*
X554609D01*
Y702346D01*
X554468D01*
Y702205D01*
X554326D01*
Y702063D01*
X554184D01*
Y701922D01*
X554043D01*
Y701780D01*
X553901D01*
Y701639D01*
X553760D01*
Y701497D01*
X553618D01*
Y701356D01*
X553477D01*
Y701214D01*
X553335D01*
Y701073D01*
X553194D01*
Y700790D01*
X553052D01*
Y700648D01*
X552911D01*
Y700507D01*
X552769D01*
Y700365D01*
X552628D01*
Y700224D01*
X552486D01*
Y700082D01*
X552345D01*
Y699940D01*
X552203D01*
Y699799D01*
X552062D01*
Y699658D01*
X551920D01*
Y698950D01*
X552062D01*
Y698667D01*
X552203D01*
Y698525D01*
X552345D01*
Y698384D01*
X552486D01*
Y698101D01*
X552628D01*
Y697959D01*
X552769D01*
Y697818D01*
X552911D01*
Y697676D01*
X553052D01*
Y697535D01*
X553194D01*
Y697393D01*
X553335D01*
Y697252D01*
X553477D01*
Y697110D01*
X553618D01*
Y696969D01*
X553901D01*
Y696827D01*
X554043D01*
Y696686D01*
X554326D01*
Y696544D01*
X554609D01*
Y696403D01*
X554892D01*
Y696261D01*
X555033D01*
Y696403D01*
X555175D01*
Y696686D01*
X555317D01*
Y696827D01*
X555458D01*
Y696969D01*
X555600D01*
Y697110D01*
X555741D01*
Y697252D01*
X555883D01*
Y697535D01*
X556024D01*
Y697676D01*
X556166D01*
Y697818D01*
X556307D01*
Y697959D01*
X556449D01*
Y698242D01*
X556590D01*
Y698384D01*
X556732D01*
Y698667D01*
X556873D01*
Y698808D01*
X557015D01*
Y698950D01*
X557156D01*
Y699091D01*
X557298D01*
Y699233D01*
X557439D01*
Y699374D01*
X557581D01*
Y699516D01*
X557722D01*
Y699658D01*
X557864D01*
Y699799D01*
X558005D01*
Y699940D01*
X558147D01*
Y700082D01*
X558288D01*
Y700224D01*
X558430D01*
Y700365D01*
X558571D01*
Y700507D01*
X558713D01*
Y700648D01*
X558854D01*
Y700790D01*
X558996D01*
Y700931D01*
X559279D01*
Y701073D01*
X559421D01*
Y701214D01*
X559562D01*
Y701356D01*
X559703D01*
Y701497D01*
X559845D01*
Y701639D01*
X559986D01*
Y701780D01*
X560128D01*
Y701922D01*
X560411D01*
Y702063D01*
X560553D01*
Y702205D01*
X560694D01*
Y702346D01*
X560977D01*
Y702488D01*
X561119D01*
Y702629D01*
X561260D01*
Y702771D01*
X561402D01*
Y702912D01*
X561543D01*
Y703054D01*
X561826D01*
Y703195D01*
X561968D01*
Y703337D01*
X562251D01*
Y703478D01*
X562392D01*
Y703620D01*
X562675D01*
Y703761D01*
X562817D01*
Y703903D01*
X563100D01*
Y704044D01*
X563241D01*
Y704186D01*
X563524D01*
Y704327D01*
X563807D01*
Y704469D01*
X563949D01*
Y704611D01*
X564232D01*
Y704752D01*
X564374D01*
Y704893D01*
X564656D01*
Y705035D01*
X564798D01*
Y705177D01*
X565081D01*
Y705318D01*
X565364D01*
Y705460D01*
X565506D01*
Y705601D01*
X565789D01*
Y705743D01*
X565930D01*
Y705884D01*
X566213D01*
Y706026D01*
X566496D01*
Y706167D01*
X566779D01*
Y706309D01*
X566921D01*
Y706450D01*
X567345D01*
Y706592D01*
X567628D01*
Y706733D01*
X567770D01*
Y706875D01*
X568194D01*
Y707016D01*
X568477D01*
Y707158D01*
X568619D01*
Y707299D01*
X569044D01*
Y707441D01*
X569327D01*
Y707582D01*
X569751D01*
Y707724D01*
X570034D01*
Y707865D01*
X570459D01*
Y708007D01*
X570883D01*
Y708148D01*
X571166D01*
Y708290D01*
X571591D01*
Y708431D01*
X572015D01*
Y708573D01*
X572864D01*
Y707724D01*
X573006D01*
Y707299D01*
X573147D01*
Y706592D01*
X573289D01*
Y705743D01*
X573430D01*
Y704752D01*
X573572D01*
Y703761D01*
X573713D01*
Y702771D01*
X573855D01*
Y700507D01*
X573997D01*
Y698101D01*
X573855D01*
Y697959D01*
X573713D01*
Y697818D01*
X573572D01*
Y697676D01*
X573006D01*
Y697535D01*
X572440D01*
Y697393D01*
X572298D01*
Y697252D01*
X572157D01*
Y697110D01*
X571874D01*
Y696969D01*
X571449D01*
Y696827D01*
X571025D01*
Y696686D01*
X570883D01*
Y696544D01*
X570742D01*
Y696403D01*
X570600D01*
Y696261D01*
X570459D01*
Y696120D01*
X570317D01*
Y695837D01*
X570176D01*
Y695695D01*
X570034D01*
Y695271D01*
X569893D01*
Y694138D01*
X569751D01*
Y691450D01*
X569609D01*
Y690318D01*
X569468D01*
Y689469D01*
X569327D01*
Y688478D01*
X569609D01*
Y688619D01*
X569751D01*
Y686780D01*
X569893D01*
Y685648D01*
X570034D01*
Y685365D01*
X570176D01*
Y685081D01*
X570317D01*
Y684657D01*
X570459D01*
Y684232D01*
X570600D01*
Y683949D01*
X570742D01*
Y683666D01*
X570883D01*
Y683383D01*
X571025D01*
Y683100D01*
X571166D01*
Y682817D01*
X571308D01*
Y682676D01*
X571449D01*
Y682393D01*
X571591D01*
Y682110D01*
X571732D01*
Y681827D01*
X571874D01*
Y681544D01*
X572015D01*
Y681261D01*
X572157D01*
Y680978D01*
X572015D01*
Y680553D01*
X571874D01*
Y679987D01*
X571732D01*
Y679421D01*
X571591D01*
Y679138D01*
X571449D01*
Y678713D01*
X571308D01*
Y678430D01*
X571166D01*
Y678289D01*
X571025D01*
Y677723D01*
X570883D01*
Y677581D01*
X570742D01*
Y677157D01*
X570600D01*
Y676732D01*
X570459D01*
Y676308D01*
X570317D01*
Y676025D01*
X570176D01*
Y675883D01*
X570034D01*
Y675600D01*
X569893D01*
Y675175D01*
X569751D01*
Y674751D01*
X569609D01*
Y674468D01*
X569468D01*
Y674326D01*
X569327D01*
Y674185D01*
X569185D01*
Y674043D01*
X569044D01*
Y673902D01*
X568902D01*
Y673760D01*
X568760D01*
Y673619D01*
X568619D01*
Y673336D01*
X568477D01*
Y673194D01*
X568336D01*
Y672911D01*
X568194D01*
Y672628D01*
X568053D01*
Y672487D01*
X567911D01*
Y672204D01*
X567770D01*
Y671921D01*
X567628D01*
Y671779D01*
X567487D01*
Y671638D01*
X567345D01*
Y671496D01*
X567204D01*
Y671355D01*
X567062D01*
Y671213D01*
X566921D01*
Y670930D01*
X566779D01*
Y670789D01*
X566638D01*
Y670647D01*
X566496D01*
Y670364D01*
X566355D01*
Y670222D01*
X566213D01*
Y669939D01*
X566072D01*
Y669798D01*
X565930D01*
Y669515D01*
X565789D01*
Y669232D01*
X565647D01*
Y669090D01*
X565364D01*
Y668949D01*
X565223D01*
Y668807D01*
X565081D01*
Y668666D01*
X564939D01*
Y668383D01*
X564798D01*
Y668241D01*
X564656D01*
Y668100D01*
X564515D01*
Y667958D01*
X564374D01*
Y667817D01*
X564232D01*
Y667534D01*
X564090D01*
Y667392D01*
X563949D01*
Y667251D01*
X563807D01*
Y667109D01*
X563666D01*
Y666968D01*
X563524D01*
Y666685D01*
X563383D01*
Y666543D01*
X563241D01*
Y666402D01*
X563100D01*
Y666260D01*
X562958D01*
Y666119D01*
X562817D01*
Y665977D01*
X562675D01*
Y665836D01*
X562534D01*
Y665694D01*
X562392D01*
Y665553D01*
X562251D01*
Y665411D01*
X562109D01*
Y665269D01*
X561968D01*
Y665128D01*
X561826D01*
Y664845D01*
X561685D01*
Y664704D01*
X561543D01*
Y664562D01*
X561402D01*
Y664420D01*
X561260D01*
Y664279D01*
X561119D01*
Y664137D01*
X560977D01*
Y663996D01*
X560836D01*
Y663854D01*
X560694D01*
Y663713D01*
X560553D01*
Y663571D01*
X560411D01*
Y663430D01*
X560270D01*
Y663288D01*
X560128D01*
Y663147D01*
X559986D01*
Y663005D01*
X559845D01*
Y662864D01*
X559703D01*
Y662722D01*
X559562D01*
Y662581D01*
X559421D01*
Y662439D01*
X559279D01*
Y662298D01*
X559137D01*
Y662156D01*
X558996D01*
Y662015D01*
X558713D01*
Y661873D01*
X558571D01*
Y661732D01*
X558430D01*
Y661590D01*
X558288D01*
Y661449D01*
X558147D01*
Y661307D01*
X558005D01*
Y661166D01*
X557722D01*
Y661024D01*
X557581D01*
Y660883D01*
X557439D01*
Y660741D01*
X557298D01*
Y660600D01*
X557015D01*
Y660458D01*
X556873D01*
Y660316D01*
X556590D01*
Y660175D01*
X556449D01*
Y660033D01*
X556166D01*
Y659892D01*
X556024D01*
Y659751D01*
X555741D01*
Y659609D01*
X555600D01*
Y659467D01*
X555458D01*
Y659326D01*
X555175D01*
Y659184D01*
X555033D01*
Y659043D01*
X554892D01*
Y658901D01*
X554751D01*
Y658760D01*
X554468D01*
Y658618D01*
X554326D01*
Y658477D01*
X554184D01*
Y658335D01*
X554043D01*
Y658052D01*
X553901D01*
Y657345D01*
X554043D01*
Y657203D01*
X554184D01*
Y655930D01*
X554043D01*
Y655080D01*
X554184D01*
Y654656D01*
X554468D01*
Y655080D01*
X554609D01*
Y654939D01*
X554751D01*
Y654798D01*
X555458D01*
Y654656D01*
X555600D01*
Y654514D01*
X556166D01*
Y654373D01*
X556449D01*
Y654231D01*
X556590D01*
Y653948D01*
X556873D01*
Y653807D01*
X557015D01*
Y653524D01*
X557156D01*
Y653382D01*
X557581D01*
Y653241D01*
X557722D01*
Y652958D01*
X557581D01*
Y652675D01*
X557439D01*
Y652816D01*
X557298D01*
Y652675D01*
X557156D01*
Y652392D01*
X557298D01*
Y652109D01*
X557439D01*
Y652250D01*
X557581D01*
Y652533D01*
X557722D01*
Y652250D01*
X558005D01*
Y652392D01*
X558147D01*
Y652250D01*
X558571D01*
Y652109D01*
X559137D01*
Y652250D01*
X559421D01*
Y652392D01*
X559562D01*
Y652533D01*
X559703D01*
Y652675D01*
X559845D01*
Y652816D01*
X559986D01*
Y652958D01*
X560128D01*
Y653099D01*
X560270D01*
Y653241D01*
X560411D01*
Y653382D01*
X560553D01*
Y653524D01*
X560694D01*
Y653665D01*
X560836D01*
Y653807D01*
X560977D01*
Y653948D01*
X561119D01*
Y654090D01*
X561260D01*
Y654231D01*
X561402D01*
Y654373D01*
X561543D01*
Y654514D01*
X561685D01*
Y654656D01*
X561826D01*
Y654798D01*
X561968D01*
Y654939D01*
X562109D01*
Y655080D01*
X562251D01*
Y655222D01*
X562392D01*
Y655363D01*
X562534D01*
Y655505D01*
X562675D01*
Y655788D01*
X562817D01*
Y655930D01*
X562958D01*
Y656071D01*
X563100D01*
Y656213D01*
X563241D01*
Y656354D01*
X563383D01*
Y656496D01*
X563524D01*
Y656637D01*
X563666D01*
Y656779D01*
X563807D01*
Y657062D01*
X563949D01*
Y657203D01*
X564090D01*
Y657345D01*
X564232D01*
Y657486D01*
X564374D01*
Y657769D01*
X564515D01*
Y657911D01*
X564656D01*
Y658194D01*
X564798D01*
Y658335D01*
X564939D01*
Y658618D01*
X565081D01*
Y658760D01*
X565223D01*
Y658901D01*
X565364D01*
Y659184D01*
X565506D01*
Y659326D01*
X565647D01*
Y659467D01*
X565789D01*
Y659751D01*
X565930D01*
Y659892D01*
X566072D01*
Y660033D01*
X566213D01*
Y660175D01*
X566355D01*
Y660316D01*
X566496D01*
Y660600D01*
X566638D01*
Y660741D01*
X566779D01*
Y660883D01*
X566921D01*
Y661024D01*
X567062D01*
Y661166D01*
X567204D01*
Y661307D01*
X567345D01*
Y661449D01*
X567487D01*
Y661590D01*
X567770D01*
Y661732D01*
X567911D01*
Y661873D01*
X568194D01*
Y662015D01*
X568619D01*
Y662156D01*
X568902D01*
Y662298D01*
X569185D01*
Y662439D01*
X569327D01*
Y662581D01*
X569609D01*
Y662722D01*
X569751D01*
Y662864D01*
X570034D01*
Y663005D01*
X570176D01*
Y663288D01*
X570317D01*
Y664420D01*
X570459D01*
Y664562D01*
X570742D01*
Y664704D01*
X571025D01*
Y664845D01*
X571166D01*
Y664986D01*
X571308D01*
Y665128D01*
X571449D01*
Y665269D01*
X571591D01*
Y665411D01*
X571732D01*
Y665553D01*
X571874D01*
Y665694D01*
X572015D01*
Y665836D01*
X572157D01*
Y665977D01*
X572298D01*
Y666260D01*
X572440D01*
Y666402D01*
X572581D01*
Y666543D01*
X572723D01*
Y666685D01*
X572864D01*
Y666968D01*
X573006D01*
Y667109D01*
X573147D01*
Y667251D01*
X573289D01*
Y667534D01*
X573430D01*
Y667675D01*
X573572D01*
Y667958D01*
X573713D01*
Y668100D01*
X573855D01*
Y668383D01*
X573997D01*
Y668524D01*
X574138D01*
Y668807D01*
X574280D01*
Y668949D01*
X574421D01*
Y669232D01*
X574562D01*
Y669515D01*
X574704D01*
Y669657D01*
X574846D01*
Y669939D01*
X574987D01*
Y670081D01*
X575129D01*
Y670222D01*
X575270D01*
Y670364D01*
X575412D01*
Y670506D01*
X575553D01*
Y670789D01*
X575695D01*
Y670930D01*
X575836D01*
Y671072D01*
X575978D01*
Y671213D01*
X576119D01*
Y671355D01*
X576261D01*
Y671496D01*
X576402D01*
Y671779D01*
X576544D01*
Y671921D01*
X576685D01*
Y672062D01*
X576827D01*
Y672204D01*
X576968D01*
Y672345D01*
X577110D01*
Y672487D01*
X577251D01*
Y672628D01*
X577393D01*
Y672770D01*
X577534D01*
Y673053D01*
X577676D01*
Y673194D01*
X577817D01*
Y673477D01*
X577959D01*
Y673619D01*
X578100D01*
Y673760D01*
X578242D01*
Y673902D01*
X578383D01*
Y674043D01*
X578525D01*
Y674185D01*
X578666D01*
Y674326D01*
X578808D01*
Y674610D01*
X578950D01*
Y674751D01*
X579091D01*
Y674893D01*
X579232D01*
Y675034D01*
X579374D01*
Y675175D01*
X579515D01*
Y675459D01*
X579657D01*
Y675317D01*
X579799D01*
Y675175D01*
X579940D01*
Y675034D01*
X580082D01*
Y674893D01*
X580223D01*
Y674610D01*
X580365D01*
Y674326D01*
X580506D01*
Y674043D01*
X580648D01*
Y673760D01*
X580789D01*
Y673053D01*
X580931D01*
Y672628D01*
X580789D01*
Y672487D01*
X580648D01*
Y672345D01*
X580506D01*
Y672204D01*
X580365D01*
Y672062D01*
X580223D01*
Y671921D01*
X580082D01*
Y671779D01*
X579940D01*
Y671496D01*
X579799D01*
Y670647D01*
X579940D01*
Y668524D01*
X579799D01*
Y667958D01*
X579657D01*
Y667392D01*
X579515D01*
Y666968D01*
X579374D01*
Y666543D01*
X579232D01*
Y665977D01*
X579091D01*
Y665411D01*
X578950D01*
Y664845D01*
X578808D01*
Y664137D01*
X578666D01*
Y663571D01*
X578525D01*
Y663147D01*
X578383D01*
Y662864D01*
X578242D01*
Y662581D01*
X578100D01*
Y662298D01*
X577959D01*
Y662015D01*
X577817D01*
Y661732D01*
X577676D01*
Y661449D01*
X577534D01*
Y661307D01*
X577393D01*
Y661024D01*
X577251D01*
Y660883D01*
X577110D01*
Y660741D01*
X576968D01*
Y660458D01*
X576827D01*
Y660316D01*
X576685D01*
Y660175D01*
X576544D01*
Y660033D01*
X576402D01*
Y659892D01*
X576261D01*
Y659751D01*
X576119D01*
Y659467D01*
X575978D01*
Y659326D01*
X575836D01*
Y659184D01*
X575695D01*
Y658901D01*
X575553D01*
Y658760D01*
X575412D01*
Y658477D01*
X575270D01*
Y658335D01*
X575129D01*
Y658052D01*
X574987D01*
Y657769D01*
X574846D01*
Y657486D01*
X574704D01*
Y657345D01*
X574846D01*
Y657203D01*
X575270D01*
Y657062D01*
X575553D01*
Y656920D01*
X575978D01*
Y656779D01*
X576402D01*
Y656637D01*
X576544D01*
Y656354D01*
X576685D01*
Y656213D01*
X576827D01*
Y656071D01*
X577110D01*
Y655930D01*
X577251D01*
Y655788D01*
X577534D01*
Y655647D01*
X577676D01*
Y655505D01*
X577959D01*
Y655363D01*
X578100D01*
Y655222D01*
X578242D01*
Y655080D01*
X578100D01*
Y654939D01*
X578383D01*
Y654798D01*
X578525D01*
Y654939D01*
X579091D01*
Y654798D01*
X579232D01*
Y654656D01*
X579374D01*
Y654939D01*
X579232D01*
Y655080D01*
X579374D01*
Y655222D01*
X580082D01*
Y655363D01*
X581214D01*
Y655505D01*
X581355D01*
Y655788D01*
X581497D01*
Y656779D01*
X581638D01*
Y657911D01*
X581780D01*
Y658335D01*
X581921D01*
Y658760D01*
X582063D01*
Y659326D01*
X582204D01*
Y659609D01*
X582346D01*
Y659892D01*
X582487D01*
Y660316D01*
X582629D01*
Y660600D01*
X582770D01*
Y660883D01*
X582912D01*
Y661307D01*
X583053D01*
Y661590D01*
X583195D01*
Y661873D01*
X583336D01*
Y662156D01*
X583478D01*
Y662581D01*
X583619D01*
Y662864D01*
X583761D01*
Y663147D01*
X583903D01*
Y663288D01*
X584044D01*
Y663571D01*
X584185D01*
Y663854D01*
X584327D01*
Y664137D01*
X584468D01*
Y664279D01*
X584610D01*
Y664562D01*
X584752D01*
Y664845D01*
X584893D01*
Y664986D01*
X585035D01*
Y665269D01*
X585176D01*
Y665553D01*
X585318D01*
Y665694D01*
X585459D01*
Y665977D01*
X585601D01*
Y666260D01*
X585742D01*
Y666402D01*
X585884D01*
Y666685D01*
X586025D01*
Y666968D01*
X586167D01*
Y667251D01*
X586308D01*
Y667392D01*
X586450D01*
Y667675D01*
X586591D01*
Y667958D01*
X586733D01*
Y668241D01*
X586874D01*
Y668524D01*
X587016D01*
Y668949D01*
X587157D01*
Y669232D01*
X587299D01*
Y669657D01*
X587440D01*
Y670081D01*
X587582D01*
Y670506D01*
X587723D01*
Y670930D01*
X587865D01*
Y671072D01*
X588006D01*
Y671496D01*
X588148D01*
Y671779D01*
X588289D01*
Y672204D01*
X588431D01*
Y672911D01*
X588572D01*
Y673902D01*
X588431D01*
Y674185D01*
X588289D01*
Y674610D01*
X588148D01*
Y675175D01*
X588006D01*
Y675742D01*
X587865D01*
Y676166D01*
X587723D01*
Y676591D01*
X587582D01*
Y676874D01*
X587440D01*
Y677157D01*
X587299D01*
Y677440D01*
X587157D01*
Y677581D01*
X587016D01*
Y677864D01*
X586874D01*
Y678147D01*
X586733D01*
Y678430D01*
X586591D01*
Y678572D01*
X586450D01*
Y678855D01*
X586308D01*
Y679138D01*
X586167D01*
Y679279D01*
X586025D01*
Y679563D01*
X585884D01*
Y679846D01*
X585742D01*
Y679987D01*
X585601D01*
Y680270D01*
X585459D01*
Y680412D01*
X585318D01*
Y680695D01*
X585176D01*
Y680978D01*
X585035D01*
Y681119D01*
X584893D01*
Y681402D01*
X584752D01*
Y681544D01*
X584610D01*
Y681685D01*
X584468D01*
Y681968D01*
X584327D01*
Y682110D01*
X584185D01*
Y682393D01*
X584044D01*
Y682534D01*
X583903D01*
Y682676D01*
X583761D01*
Y682959D01*
X583619D01*
Y683100D01*
X583478D01*
Y683525D01*
X583619D01*
Y683808D01*
X583761D01*
Y684091D01*
X583903D01*
Y684516D01*
X584044D01*
Y684940D01*
X584185D01*
Y685648D01*
X584327D01*
Y686780D01*
X584468D01*
Y686921D01*
X584610D01*
Y687063D01*
X584752D01*
Y687204D01*
X584893D01*
Y687346D01*
X585035D01*
Y687487D01*
X585176D01*
Y687629D01*
X585318D01*
Y687770D01*
X585601D01*
Y687912D01*
X585884D01*
Y688053D01*
X586167D01*
Y688195D01*
X586733D01*
Y688336D01*
X587299D01*
Y688478D01*
X588431D01*
Y688619D01*
X588856D01*
Y688902D01*
X588997D01*
Y689185D01*
X589138D01*
Y689610D01*
X589280D01*
Y690176D01*
X589422D01*
Y690742D01*
X589563D01*
Y691308D01*
X589705D01*
Y692157D01*
X589846D01*
Y693006D01*
X589988D01*
Y693997D01*
X590129D01*
Y695695D01*
X589988D01*
Y696544D01*
X590129D01*
Y698808D01*
X589988D01*
Y699091D01*
X589846D01*
Y699374D01*
X589705D01*
Y699940D01*
X589563D01*
Y700790D01*
X589422D01*
Y701497D01*
X589280D01*
Y702346D01*
X589138D01*
Y705318D01*
X589280D01*
Y706167D01*
X589422D01*
Y707016D01*
X589563D01*
Y708148D01*
X589705D01*
Y708856D01*
X589846D01*
Y709705D01*
X589988D01*
Y710271D01*
X590129D01*
Y710979D01*
X590271D01*
Y711545D01*
X590412D01*
Y711969D01*
X590554D01*
Y712394D01*
X590695D01*
Y712677D01*
X590837D01*
Y712818D01*
X590978D01*
Y712960D01*
X591120D01*
Y713101D01*
X591261D01*
Y713243D01*
X591403D01*
Y713384D01*
X591544D01*
Y713667D01*
X591686D01*
Y713809D01*
X591827D01*
Y713951D01*
X591969D01*
Y714092D01*
X592110D01*
Y714233D01*
X592252D01*
Y714375D01*
X592393D01*
Y714517D01*
X592535D01*
Y714658D01*
X592676D01*
Y714799D01*
X592818D01*
Y714941D01*
X592959D01*
Y715083D01*
X593101D01*
Y715224D01*
X593242D01*
Y715366D01*
X593384D01*
Y715507D01*
X593525D01*
Y715649D01*
X593667D01*
Y715790D01*
X593809D01*
Y715932D01*
X593950D01*
Y716073D01*
X594091D01*
Y716215D01*
X594233D01*
Y716356D01*
X594375D01*
Y716498D01*
X594516D01*
Y716639D01*
X594658D01*
Y716781D01*
X594799D01*
Y716922D01*
X594941D01*
Y717205D01*
X595082D01*
Y717347D01*
X595224D01*
Y717488D01*
X595365D01*
Y717630D01*
X595507D01*
Y717771D01*
X595790D01*
Y717913D01*
X595931D01*
Y718054D01*
X596073D01*
Y718196D01*
X596214D01*
Y718479D01*
X596356D01*
Y718620D01*
X596497D01*
Y718762D01*
X596639D01*
Y718904D01*
X596780D01*
Y719045D01*
X596922D01*
Y719186D01*
X597063D01*
Y719328D01*
X597205D01*
Y719470D01*
X597346D01*
Y719753D01*
X597488D01*
Y719894D01*
X597629D01*
Y720036D01*
X597771D01*
Y720319D01*
X597912D01*
Y720743D01*
X598054D01*
Y720885D01*
X598195D01*
Y721026D01*
X598337D01*
Y721168D01*
X598478D01*
Y721309D01*
X598620D01*
Y721592D01*
X598761D01*
Y721734D01*
X598903D01*
Y722017D01*
X599044D01*
Y722158D01*
X599328D01*
Y722441D01*
X599469D01*
Y722583D01*
X599610D01*
Y722724D01*
X599752D01*
Y723007D01*
X599894D01*
Y723149D01*
X600035D01*
Y723290D01*
X600177D01*
Y723432D01*
X600318D01*
Y723573D01*
X600460D01*
Y723715D01*
X600601D01*
Y723857D01*
X600884D01*
Y723998D01*
X601026D01*
Y724281D01*
X601167D01*
Y724423D01*
X601309D01*
Y724564D01*
X601450D01*
Y724847D01*
X601592D01*
Y724989D01*
X601733D01*
Y725272D01*
X601875D01*
Y725555D01*
X602016D01*
Y725838D01*
X602158D01*
Y725979D01*
X602299D01*
Y726262D01*
X602441D01*
Y726545D01*
X602582D01*
Y726687D01*
X602724D01*
Y726970D01*
X602865D01*
Y727111D01*
X603007D01*
Y727394D01*
X603148D01*
Y727536D01*
X603290D01*
Y727819D01*
X603431D01*
Y727960D01*
X603573D01*
Y728243D01*
X603714D01*
Y728385D01*
X603856D01*
Y728668D01*
X603997D01*
Y728951D01*
X604139D01*
Y729092D01*
X604281D01*
Y729376D01*
X604422D01*
Y729659D01*
X604563D01*
Y729942D01*
X604705D01*
Y730225D01*
X604847D01*
Y730366D01*
X604988D01*
Y730649D01*
X605130D01*
Y730932D01*
X604847D01*
Y730791D01*
X604705D01*
Y730649D01*
X604563D01*
Y730508D01*
X604422D01*
Y730366D01*
X604281D01*
Y730225D01*
X603573D01*
Y730366D01*
X603290D01*
Y730508D01*
X603007D01*
Y730649D01*
X602865D01*
Y730791D01*
X602724D01*
Y730932D01*
X602582D01*
Y731074D01*
X602441D01*
Y731357D01*
X602299D01*
Y731640D01*
X602158D01*
Y731923D01*
X602016D01*
Y732206D01*
D02*
G37*
G36*
X582487Y715083D02*
X582204D01*
Y713951D01*
X582346D01*
Y713809D01*
X582487D01*
Y713526D01*
X582629D01*
Y713384D01*
X582770D01*
Y713243D01*
X582912D01*
Y713667D01*
X582770D01*
Y714233D01*
X582629D01*
Y714799D01*
X582487D01*
Y714941D01*
Y715083D01*
D02*
G37*
G36*
X550647Y697676D02*
X550364D01*
Y697535D01*
X550222D01*
Y697393D01*
X550080D01*
Y697110D01*
X549939D01*
Y696969D01*
X549798D01*
Y696686D01*
X549656D01*
Y696403D01*
X549515D01*
Y696120D01*
X549656D01*
Y696261D01*
X549798D01*
Y696403D01*
X549939D01*
Y696544D01*
X550080D01*
Y696827D01*
X550222D01*
Y696969D01*
X550364D01*
Y697252D01*
X550505D01*
Y697535D01*
X550647D01*
Y697676D01*
D02*
G37*
G36*
X549515Y696120D02*
X549373D01*
Y695978D01*
X549515D01*
Y696120D01*
D02*
G37*
G36*
X555033Y694705D02*
X554892D01*
Y694563D01*
X555033D01*
Y694705D01*
D02*
G37*
G36*
X550647Y696969D02*
X550505D01*
Y696827D01*
X550364D01*
Y696544D01*
X550222D01*
Y696403D01*
X550080D01*
Y696261D01*
Y696120D01*
X549939D01*
Y695978D01*
X549798D01*
Y695837D01*
X549656D01*
Y695554D01*
X549515D01*
Y695412D01*
X549373D01*
Y694987D01*
X549231D01*
Y694705D01*
X549090D01*
Y693855D01*
X548948D01*
Y693714D01*
X549090D01*
Y693572D01*
X549231D01*
Y692723D01*
X549515D01*
Y693006D01*
X549798D01*
Y693148D01*
X549939D01*
Y693289D01*
X550080D01*
Y693431D01*
X550222D01*
Y693572D01*
X550364D01*
Y693855D01*
X550788D01*
Y694138D01*
X550930D01*
Y694280D01*
X551071D01*
Y694421D01*
X551354D01*
Y694563D01*
X551496D01*
Y694705D01*
X551779D01*
Y694846D01*
X551920D01*
Y694987D01*
X552203D01*
Y695129D01*
X552345D01*
Y695271D01*
X552628D01*
Y695412D01*
X552911D01*
Y695554D01*
X553335D01*
Y695412D01*
X553760D01*
Y695129D01*
X553901D01*
Y694987D01*
X554043D01*
Y694421D01*
X554184D01*
Y694987D01*
X554326D01*
Y695129D01*
X554468D01*
Y695271D01*
X554326D01*
Y695412D01*
X554184D01*
Y695554D01*
X554043D01*
Y695695D01*
X554184D01*
Y695837D01*
X554043D01*
Y695978D01*
X553618D01*
Y695837D01*
X553052D01*
Y695695D01*
X552628D01*
Y695554D01*
X552486D01*
Y695412D01*
X551637D01*
Y695554D01*
X551496D01*
Y695695D01*
X551354D01*
Y695554D01*
X551213D01*
Y694846D01*
X551071D01*
Y694705D01*
X550930D01*
Y694563D01*
X550788D01*
Y694421D01*
X550647D01*
Y694280D01*
X550505D01*
Y694138D01*
X550364D01*
Y693997D01*
X550080D01*
Y693855D01*
X549939D01*
Y693714D01*
X549798D01*
Y693997D01*
X549939D01*
Y694421D01*
X550080D01*
Y694563D01*
X550222D01*
Y694705D01*
X550364D01*
Y694846D01*
X550505D01*
Y695129D01*
X550647D01*
Y695271D01*
X550788D01*
Y695412D01*
X550930D01*
Y695554D01*
X551071D01*
Y695978D01*
X551213D01*
Y696261D01*
X551071D01*
Y696403D01*
X550647D01*
Y696120D01*
X550505D01*
Y695695D01*
X550364D01*
Y695412D01*
X550222D01*
Y695271D01*
X550080D01*
Y695129D01*
X549939D01*
Y694846D01*
X549798D01*
Y694563D01*
X549656D01*
Y694421D01*
X549515D01*
Y694280D01*
X549373D01*
Y694846D01*
X549515D01*
Y694987D01*
X549656D01*
Y695271D01*
X549798D01*
Y695554D01*
X549939D01*
Y695695D01*
X550080D01*
Y695837D01*
X550222D01*
Y695978D01*
X550364D01*
Y696261D01*
X550505D01*
Y696686D01*
X550647D01*
Y696969D01*
D02*
G37*
G36*
X554043Y694421D02*
X553901D01*
Y694280D01*
X554043D01*
Y694421D01*
D02*
G37*
G36*
X552911Y654798D02*
X552769D01*
Y654656D01*
Y654373D01*
X552911D01*
Y654798D01*
D02*
G37*
G36*
X557156Y653099D02*
X557015D01*
Y652958D01*
X556873D01*
Y652250D01*
X557015D01*
Y652816D01*
X557156D01*
Y652958D01*
Y653099D01*
D02*
G37*
G36*
X557298Y651826D02*
X557156D01*
Y651684D01*
Y651543D01*
Y651401D01*
X557298D01*
Y651826D01*
D02*
G37*
G36*
X553052Y654231D02*
X552911D01*
Y653948D01*
X553052D01*
Y653524D01*
X553194D01*
Y653099D01*
X553335D01*
Y652675D01*
X553477D01*
Y652250D01*
X553618D01*
Y651826D01*
X553760D01*
Y651401D01*
X553901D01*
Y651826D01*
X553760D01*
Y652250D01*
X553618D01*
Y652675D01*
X553477D01*
Y653099D01*
X553335D01*
Y653524D01*
X553194D01*
Y653948D01*
X553052D01*
Y654231D01*
D02*
G37*
G36*
X554043Y651260D02*
X553901D01*
Y650977D01*
X554043D01*
Y651118D01*
Y651260D01*
D02*
G37*
G36*
X575978Y650835D02*
X575836D01*
Y650694D01*
X575978D01*
Y650835D01*
D02*
G37*
G36*
X575129Y650127D02*
X574846D01*
Y649986D01*
X575129D01*
Y649845D01*
X575553D01*
Y649703D01*
X575836D01*
Y649561D01*
X576261D01*
Y649420D01*
X576685D01*
Y649278D01*
X577110D01*
Y649137D01*
X577534D01*
Y648995D01*
X577959D01*
Y648854D01*
X578242D01*
Y648712D01*
X578525D01*
Y648854D01*
X578242D01*
Y648995D01*
X577959D01*
Y649137D01*
X577534D01*
Y649278D01*
X577393D01*
Y649420D01*
X577110D01*
Y649561D01*
X576402D01*
Y649703D01*
X576119D01*
Y649845D01*
X575553D01*
Y649986D01*
X575129D01*
Y650127D01*
D02*
G37*
G36*
X578808Y648712D02*
X578666D01*
Y648571D01*
X578808D01*
Y648712D01*
D02*
G37*
G36*
X579232Y648571D02*
X579091D01*
Y648429D01*
X579232D01*
Y648571D01*
D02*
G37*
G36*
X556873Y651543D02*
X556732D01*
Y650977D01*
X556590D01*
Y650127D01*
X556732D01*
Y649986D01*
X556590D01*
Y649561D01*
X556732D01*
Y649703D01*
X556873D01*
Y649420D01*
X556449D01*
Y649137D01*
X556590D01*
Y648995D01*
X556732D01*
Y648712D01*
X556873D01*
Y648571D01*
X557015D01*
Y648429D01*
X557439D01*
Y648712D01*
X557298D01*
Y648854D01*
X557156D01*
Y649137D01*
X557015D01*
Y648995D01*
X556873D01*
Y649278D01*
X557015D01*
Y649561D01*
X557156D01*
Y649845D01*
X557015D01*
Y650552D01*
X556873D01*
Y651543D01*
D02*
G37*
G36*
X579799Y648429D02*
X579374D01*
Y648288D01*
X579799D01*
Y648146D01*
X580223D01*
Y648288D01*
X579799D01*
Y648429D01*
D02*
G37*
G36*
X557156Y648288D02*
X556590D01*
Y648146D01*
X557156D01*
Y648288D01*
D02*
G37*
G36*
X554609Y648712D02*
X554184D01*
Y648571D01*
X554326D01*
Y648429D01*
X554609D01*
Y648288D01*
X554892D01*
Y648146D01*
X555033Y648005D01*
X555175D01*
Y648146D01*
X555033D01*
Y648288D01*
X554892D01*
Y648571D01*
X554609D01*
Y648712D01*
D02*
G37*
%LPD*%
G36*
X605271Y743951D02*
X604988D01*
Y744093D01*
X605271D01*
Y743951D01*
D02*
G37*
G36*
X586591Y726545D02*
X586874D01*
Y726404D01*
X587016D01*
Y726262D01*
X587157D01*
Y726121D01*
X587299D01*
Y725979D01*
X587440D01*
Y725838D01*
X587582D01*
Y725555D01*
X587723D01*
Y725272D01*
X587865D01*
Y724989D01*
X588006D01*
Y724564D01*
X587016D01*
Y724423D01*
X586308D01*
Y724564D01*
X586167D01*
Y724423D01*
X585884D01*
Y724281D01*
X585742D01*
Y723573D01*
X585884D01*
Y723290D01*
X586167D01*
Y723149D01*
X586591D01*
Y723007D01*
X587299D01*
Y722866D01*
X586874D01*
Y722724D01*
X587440D01*
Y722866D01*
X587723D01*
Y723007D01*
X588006D01*
Y722866D01*
X588148D01*
Y722724D01*
X588289D01*
Y722158D01*
X588148D01*
Y722017D01*
X588006D01*
Y721875D01*
X587865D01*
Y721734D01*
X587723D01*
Y721592D01*
X587582D01*
Y721309D01*
X587016D01*
Y721168D01*
X586874D01*
Y721309D01*
X586733D01*
Y721451D01*
X586591D01*
Y721592D01*
X586450D01*
Y721875D01*
X586308D01*
Y722017D01*
X586167D01*
Y721875D01*
X585601D01*
Y722017D01*
X584327D01*
Y722158D01*
X584044D01*
Y722017D01*
X583761D01*
Y721875D01*
X583619D01*
Y721734D01*
X583336D01*
Y721592D01*
X583195D01*
Y721734D01*
X583053D01*
Y722017D01*
X582912D01*
Y722158D01*
X582346D01*
Y722300D01*
X582204D01*
Y722158D01*
X582063D01*
Y721734D01*
X581921D01*
Y721451D01*
X581780D01*
Y721168D01*
X581638D01*
Y721309D01*
X581497D01*
Y722866D01*
X581355D01*
Y723432D01*
X581497D01*
Y723998D01*
X581638D01*
Y724281D01*
X581780D01*
Y724564D01*
X581921D01*
Y724847D01*
X582063D01*
Y725130D01*
X582204D01*
Y725413D01*
X582346D01*
Y725696D01*
X582487D01*
Y725838D01*
X582629D01*
Y725413D01*
X582770D01*
Y724989D01*
X582629D01*
Y724706D01*
X582770D01*
Y724847D01*
X583195D01*
Y724706D01*
X583053D01*
Y724564D01*
X582912D01*
Y724423D01*
X582770D01*
Y724139D01*
X582629D01*
Y723998D01*
X582770D01*
Y723857D01*
X583053D01*
Y723573D01*
X583195D01*
Y723432D01*
X583619D01*
Y723573D01*
X583903D01*
Y723998D01*
X584185D01*
Y723573D01*
X584610D01*
Y723432D01*
X584893D01*
Y723573D01*
X585035D01*
Y723432D01*
X585176D01*
Y723573D01*
X585318D01*
Y724281D01*
X585459D01*
Y724423D01*
X585318D01*
Y724564D01*
X585459D01*
Y724706D01*
X585742D01*
Y724847D01*
X585601D01*
Y724989D01*
X585459D01*
Y725130D01*
X585601D01*
Y725979D01*
X585742D01*
Y726262D01*
X585884D01*
Y726404D01*
X586025D01*
Y726121D01*
X586167D01*
Y725979D01*
X586025D01*
Y725696D01*
X586167D01*
Y725838D01*
X586308D01*
Y726545D01*
X586450D01*
Y726687D01*
X586591D01*
Y726545D01*
D02*
G37*
G36*
X584044Y724281D02*
X583336D01*
Y724423D01*
X584044D01*
Y724281D01*
D02*
G37*
G36*
X587865Y723857D02*
X588006D01*
Y723573D01*
X587865D01*
Y723715D01*
X587723D01*
Y723857D01*
X587582D01*
Y723998D01*
X587865D01*
Y723857D01*
D02*
G37*
G36*
X587299Y723149D02*
X587157D01*
Y723290D01*
X587299D01*
Y723149D01*
D02*
G37*
G36*
X584185Y721592D02*
X584327D01*
Y721451D01*
X584468D01*
Y721309D01*
X584752D01*
Y721026D01*
X585035D01*
Y720885D01*
X585601D01*
Y721026D01*
X585884D01*
Y720885D01*
X586025D01*
Y720743D01*
X584610D01*
Y720885D01*
X584044D01*
Y721026D01*
X583761D01*
Y721168D01*
X583619D01*
Y721026D01*
X583478D01*
Y721309D01*
X583619D01*
Y721451D01*
X583761D01*
Y721592D01*
X583903D01*
Y721734D01*
X584185D01*
Y721592D01*
D02*
G37*
G36*
X586874Y720460D02*
X586733D01*
Y720602D01*
X586874D01*
Y720460D01*
D02*
G37*
G36*
X585176D02*
X585742D01*
Y720319D01*
Y720177D01*
X584610D01*
Y720319D01*
X584327D01*
Y720460D01*
X584610D01*
Y720602D01*
X584893D01*
Y720460D01*
X585035D01*
Y720602D01*
X585176D01*
Y720460D01*
D02*
G37*
G36*
X581497Y720602D02*
X581355D01*
Y720319D01*
X581214D01*
Y720036D01*
X581355D01*
Y719753D01*
X581214D01*
Y719611D01*
X581072D01*
Y719328D01*
X581214D01*
Y719186D01*
Y719045D01*
X580931D01*
Y720036D01*
X581072D01*
Y720743D01*
X581214D01*
Y720885D01*
X581497D01*
Y720602D01*
D02*
G37*
G36*
X581780Y718762D02*
X581921D01*
Y718620D01*
X581780D01*
Y718479D01*
X581638D01*
Y718620D01*
Y718762D01*
Y719045D01*
X581780D01*
Y718762D01*
D02*
G37*
G36*
X583336Y721168D02*
X583195D01*
Y721026D01*
X583053D01*
Y720460D01*
X583195D01*
Y720177D01*
X583336D01*
Y720036D01*
X583478D01*
Y719894D01*
X583903D01*
Y720036D01*
X585176D01*
Y719894D01*
X585459D01*
Y719753D01*
X585601D01*
Y719470D01*
X585459D01*
Y719328D01*
X585601D01*
Y719186D01*
X585742D01*
Y719045D01*
X585884D01*
Y719186D01*
X586025D01*
Y719470D01*
X586308D01*
Y719894D01*
X586450D01*
Y720036D01*
X586874D01*
Y719753D01*
X586733D01*
Y719328D01*
X586591D01*
Y719045D01*
X586450D01*
Y718762D01*
X586308D01*
Y718479D01*
X586167D01*
Y718337D01*
X585884D01*
Y718196D01*
X585601D01*
Y718054D01*
X585035D01*
Y718196D01*
X584185D01*
Y718337D01*
X583619D01*
Y718479D01*
X583336D01*
Y718620D01*
X583195D01*
Y718762D01*
X583053D01*
Y718904D01*
X582912D01*
Y719045D01*
X582770D01*
Y719470D01*
X582629D01*
Y719894D01*
X582487D01*
Y720036D01*
X582346D01*
Y720177D01*
X582204D01*
Y720460D01*
X582063D01*
Y720177D01*
X581780D01*
Y720460D01*
X581638D01*
Y720602D01*
X581780D01*
Y720743D01*
X582063D01*
Y720885D01*
X582487D01*
Y721168D01*
X582770D01*
Y721309D01*
X583336D01*
Y721168D01*
D02*
G37*
G36*
X586591Y717064D02*
X586450D01*
Y716639D01*
X586308D01*
Y716073D01*
X586167D01*
Y715649D01*
X586025D01*
Y715790D01*
X585884D01*
Y716073D01*
X585459D01*
Y715932D01*
X585176D01*
Y715790D01*
X584893D01*
Y715649D01*
X584610D01*
Y715790D01*
X584752D01*
Y715932D01*
X585035D01*
Y716073D01*
X585318D01*
Y716215D01*
X585459D01*
Y716356D01*
X585601D01*
Y716498D01*
X585884D01*
Y716639D01*
X586025D01*
Y716922D01*
X586167D01*
Y717064D01*
Y717205D01*
X586308D01*
Y717630D01*
X586591D01*
Y717064D01*
D02*
G37*
G36*
X585318Y713667D02*
X585176D01*
Y713809D01*
X585035D01*
Y714233D01*
X585318D01*
Y713667D01*
D02*
G37*
G36*
X581355Y696686D02*
X581497D01*
Y696544D01*
X581638D01*
Y696261D01*
X581780D01*
Y696120D01*
X581921D01*
Y695978D01*
X582063D01*
Y695837D01*
X582204D01*
Y695695D01*
X582346D01*
Y694705D01*
X582204D01*
Y694846D01*
X582063D01*
Y694987D01*
Y695129D01*
X581921D01*
Y695412D01*
X581780D01*
Y695554D01*
X581638D01*
Y695837D01*
X581497D01*
Y696120D01*
X581355D01*
Y696261D01*
X581214D01*
Y696544D01*
X581072D01*
Y696827D01*
X581355D01*
Y696686D01*
D02*
G37*
G36*
X580931Y696261D02*
X581072D01*
Y696120D01*
X581214D01*
Y695837D01*
X581355D01*
Y695695D01*
X581497D01*
Y695412D01*
X581638D01*
Y695129D01*
X581780D01*
Y694846D01*
X581921D01*
Y694563D01*
X582063D01*
Y693855D01*
X582204D01*
Y693289D01*
X582063D01*
Y692865D01*
X582204D01*
Y692582D01*
X582346D01*
Y692157D01*
X582487D01*
Y691874D01*
X582629D01*
Y691733D01*
X582770D01*
Y691591D01*
X582912D01*
Y691308D01*
X583053D01*
Y691167D01*
X582770D01*
Y691308D01*
X582629D01*
Y691450D01*
X581780D01*
Y691308D01*
X580648D01*
Y691167D01*
X580223D01*
Y691025D01*
X579799D01*
Y690884D01*
X579232D01*
Y690742D01*
X578808D01*
Y690601D01*
X578383D01*
Y690742D01*
X577251D01*
Y690884D01*
X576968D01*
Y691025D01*
X576402D01*
Y691167D01*
X575695D01*
Y691025D01*
X575412D01*
Y690884D01*
X575129D01*
Y690742D01*
X574846D01*
Y690601D01*
X574704D01*
Y690459D01*
X574280D01*
Y690318D01*
X573855D01*
Y690176D01*
X573289D01*
Y690459D01*
X573572D01*
Y690601D01*
X573855D01*
Y690742D01*
X574138D01*
Y690884D01*
X574421D01*
Y691025D01*
X574704D01*
Y691167D01*
X575129D01*
Y691308D01*
X575412D01*
Y691874D01*
X575695D01*
Y692016D01*
X575836D01*
Y692157D01*
X575978D01*
Y692299D01*
X576261D01*
Y692440D01*
X576544D01*
Y692582D01*
X576685D01*
Y692723D01*
X576827D01*
Y692865D01*
X577110D01*
Y693006D01*
X577251D01*
Y693148D01*
X577393D01*
Y693431D01*
X577534D01*
Y693572D01*
X577676D01*
Y693855D01*
X577817D01*
Y693997D01*
X577959D01*
Y694138D01*
X578242D01*
Y694280D01*
X578383D01*
Y694421D01*
X578525D01*
Y694563D01*
X578808D01*
Y694705D01*
X578950D01*
Y694846D01*
X579091D01*
Y694987D01*
X579232D01*
Y695129D01*
X579515D01*
Y695271D01*
X579657D01*
Y695412D01*
X579799D01*
Y695554D01*
X579940D01*
Y695695D01*
X580082D01*
Y695837D01*
X580223D01*
Y695978D01*
X580365D01*
Y696120D01*
X580506D01*
Y696261D01*
X580648D01*
Y696403D01*
X580931D01*
Y696261D01*
D02*
G37*
G36*
X582629Y690884D02*
X582912D01*
Y690742D01*
X582629D01*
Y690601D01*
X582346D01*
Y690742D01*
X581638D01*
Y690884D01*
X581214D01*
Y691025D01*
X582629D01*
Y690884D01*
D02*
G37*
G36*
X554468Y655363D02*
X554326D01*
Y655505D01*
X554184D01*
Y655647D01*
X554468D01*
Y655363D01*
D02*
G37*
%LPC*%
G36*
X583619Y719753D02*
X583478D01*
Y719470D01*
X583619D01*
Y719186D01*
X584610D01*
Y719328D01*
X584044D01*
Y719470D01*
X583761D01*
Y719611D01*
X583619D01*
Y719753D01*
D02*
G37*
G36*
X585318Y719186D02*
X584752D01*
Y719045D01*
X585176D01*
Y718904D01*
X585742D01*
Y719045D01*
X585318D01*
Y719186D01*
D02*
G37*
%LPD*%
G36*
X549373Y693855D02*
X549231D01*
Y693997D01*
Y694280D01*
X549373D01*
Y693855D01*
D02*
G37*
M02*
