G04*
G04 #@! TF.GenerationSoftware,Altium Limited,Altium Designer,24.0.1 (36)*
G04*
G04 Layer_Color=65535*
%FSLAX44Y44*%
%MOMM*%
G71*
G04*
G04 #@! TF.SameCoordinates,90447B52-5C6C-4E24-8687-CF59556E230F*
G04*
G04*
G04 #@! TF.FilePolarity,Positive*
G04*
G01*
G75*
%ADD10C,0.4000*%
%ADD11C,0.2500*%
%ADD12C,0.2000*%
%ADD13C,0.2540*%
%ADD14C,0.1270*%
D10*
X843520Y642660D02*
G03*
X843520Y642660I-2000J0D01*
G01*
X780932Y646930D02*
G03*
X780932Y646930I-2000J0D01*
G01*
D11*
X831620Y621760D02*
G03*
X831620Y621760I-1250J0D01*
G01*
X791332Y667830D02*
G03*
X791332Y667830I-1250J0D01*
G01*
X1201400Y462370D02*
G03*
X1201400Y462370I-1250J0D01*
G01*
X617200Y645070D02*
G03*
X617200Y645070I-1250J0D01*
G01*
D12*
X1142200Y506330D02*
G03*
X1142200Y506330I-50000J0D01*
G01*
X692120Y630020D02*
Y642520D01*
X720120Y630020D02*
Y642520D01*
X883520Y634660D02*
Y655660D01*
X833520Y634660D02*
Y655660D01*
X883520D01*
X833520Y634660D02*
X883520D01*
X629250Y545100D02*
Y547100D01*
X640750Y545100D02*
Y547100D01*
X658410Y507410D02*
X680410D01*
X658410Y528910D02*
X680410D01*
X669890Y546370D02*
Y548370D01*
X681390Y546370D02*
Y548370D01*
X689940Y598880D02*
X704440D01*
X661070Y545730D02*
Y547730D01*
X649570Y545730D02*
Y547730D01*
X625270Y513670D02*
X647270D01*
X625270Y492170D02*
X647270D01*
X690028Y510170D02*
Y512170D01*
X701528Y510170D02*
Y512170D01*
X746400Y509870D02*
X748400D01*
X746400Y521370D02*
X748400D01*
X736933Y654930D02*
X786933D01*
X736933Y633930D02*
X786933D01*
Y654930D01*
X736933Y633930D02*
Y654930D01*
X824820Y531410D02*
Y553410D01*
X803320Y531410D02*
Y553410D01*
X1169150Y468870D02*
X1231150D01*
X1169150D02*
Y524270D01*
X1231150D01*
Y468870D02*
Y476190D01*
Y516950D02*
Y524270D01*
X584950Y583170D02*
Y590490D01*
Y631250D02*
Y638570D01*
Y583170D02*
X646950D01*
Y638570D01*
X584950D02*
X646950D01*
X658290Y582340D02*
X680290D01*
X658290Y603840D02*
X680290D01*
X785540Y566730D02*
Y588730D01*
X807040Y566730D02*
Y588730D01*
X834490Y544660D02*
Y569910D01*
X846990Y552910D02*
Y569910D01*
D13*
X898870Y564850D02*
X1028870D01*
X898870Y704850D02*
X1028870D01*
X898870Y564850D02*
Y704850D01*
X1028870Y564850D02*
Y704850D01*
X702815Y678684D02*
X700275Y681223D01*
X695197D01*
X692658Y678684D01*
Y668527D01*
X695197Y665988D01*
X700275D01*
X702815Y668527D01*
X707893Y678684D02*
X710432Y681223D01*
X715511D01*
X718050Y678684D01*
Y676145D01*
X715511Y673605D01*
X712971D01*
X715511D01*
X718050Y671066D01*
Y668527D01*
X715511Y665988D01*
X710432D01*
X707893Y668527D01*
X1261110Y509270D02*
X1271267D01*
X1261110Y482598D02*
X1271267D01*
X1266188Y487677D02*
Y477520D01*
X553720Y598170D02*
X563877D01*
X554990Y623568D02*
X565147D01*
X560068Y628647D02*
Y618490D01*
X1143000Y670560D02*
X1148078D01*
X1145539D01*
Y685795D01*
X1143000Y683256D01*
X1163313Y670560D02*
Y685795D01*
X1155696Y678177D01*
X1165853D01*
X1170931D02*
X1181088D01*
X1186166Y683256D02*
X1188705Y685795D01*
X1193784D01*
X1196323Y683256D01*
Y673099D01*
X1193784Y670560D01*
X1188705D01*
X1186166Y673099D01*
Y683256D01*
X1201401D02*
X1203940Y685795D01*
X1209019D01*
X1211558Y683256D01*
Y680717D01*
X1209019Y678177D01*
X1206479D01*
X1209019D01*
X1211558Y675638D01*
Y673099D01*
X1209019Y670560D01*
X1203940D01*
X1201401Y673099D01*
X1216636Y678177D02*
X1226793D01*
X1242028Y670560D02*
X1231871D01*
X1242028Y680717D01*
Y683256D01*
X1239489Y685795D01*
X1234410D01*
X1231871Y683256D01*
X1247106D02*
X1249645Y685795D01*
X1254724D01*
X1257263Y683256D01*
Y673099D01*
X1254724Y670560D01*
X1249645D01*
X1247106Y673099D01*
Y683256D01*
X1272498Y670560D02*
X1262341D01*
X1272498Y680717D01*
Y683256D01*
X1269959Y685795D01*
X1264881D01*
X1262341Y683256D01*
X1285194Y670560D02*
Y685795D01*
X1277577Y678177D01*
X1287733D01*
X1158240Y715005D02*
Y704848D01*
X1163318Y699770D01*
X1168397Y704848D01*
Y715005D01*
X1181093Y699770D02*
X1176014D01*
X1173475Y702309D01*
Y707387D01*
X1176014Y709927D01*
X1181093D01*
X1183632Y707387D01*
Y704848D01*
X1173475D01*
X1188710Y709927D02*
Y699770D01*
Y704848D01*
X1191249Y707387D01*
X1193789Y709927D01*
X1196328D01*
X1203945Y699770D02*
X1211563D01*
X1214102Y702309D01*
X1211563Y704848D01*
X1206484D01*
X1203945Y707387D01*
X1206484Y709927D01*
X1214102D01*
X1219180Y699770D02*
X1224259D01*
X1221720D01*
Y709927D01*
X1219180D01*
X1234415Y699770D02*
X1239494D01*
X1242033Y702309D01*
Y707387D01*
X1239494Y709927D01*
X1234415D01*
X1231876Y707387D01*
Y702309D01*
X1234415Y699770D01*
X1247111D02*
Y709927D01*
X1254729D01*
X1257268Y707387D01*
Y699770D01*
X1287738D02*
X1277581D01*
X1287738Y709927D01*
Y712466D01*
X1285199Y715005D01*
X1280121D01*
X1277581Y712466D01*
X977900Y740405D02*
Y725170D01*
X985518D01*
X988057Y727709D01*
Y730248D01*
X985518Y732787D01*
X977900D01*
X985518D01*
X988057Y735327D01*
Y737866D01*
X985518Y740405D01*
X977900D01*
X993135Y735327D02*
Y727709D01*
X995674Y725170D01*
X1003292D01*
Y735327D01*
X1018527D02*
X1010909D01*
X1008370Y732787D01*
Y727709D01*
X1010909Y725170D01*
X1018527D01*
X1023605D02*
Y740405D01*
Y730248D02*
X1031223Y735327D01*
X1023605Y730248D02*
X1031223Y725170D01*
X1048997Y735327D02*
X1041379D01*
X1038840Y732787D01*
Y727709D01*
X1041379Y725170D01*
X1048997D01*
X1056615D02*
X1061693D01*
X1064232Y727709D01*
Y732787D01*
X1061693Y735327D01*
X1056615D01*
X1054075Y732787D01*
Y727709D01*
X1056615Y725170D01*
X1069310D02*
Y735327D01*
X1076928D01*
X1079467Y732787D01*
Y725170D01*
X1084546Y735327D02*
X1089624Y725170D01*
X1094702Y735327D01*
X1107398Y725170D02*
X1102320D01*
X1099781Y727709D01*
Y732787D01*
X1102320Y735327D01*
X1107398D01*
X1109937Y732787D01*
Y730248D01*
X1099781D01*
X1115016Y735327D02*
Y725170D01*
Y730248D01*
X1117555Y732787D01*
X1120094Y735327D01*
X1122633D01*
X1132790Y737866D02*
Y735327D01*
X1130251D01*
X1135329D01*
X1132790D01*
Y727709D01*
X1135329Y725170D01*
X1150564D02*
X1145486D01*
X1142947Y727709D01*
Y732787D01*
X1145486Y735327D01*
X1150564D01*
X1153103Y732787D01*
Y730248D01*
X1142947D01*
X1158182Y735327D02*
Y725170D01*
Y730248D01*
X1160721Y732787D01*
X1163260Y735327D01*
X1165799D01*
X1198809Y740405D02*
X1188652D01*
Y732787D01*
X1193730Y735327D01*
X1196269D01*
X1198809Y732787D01*
Y727709D01*
X1196269Y725170D01*
X1191191D01*
X1188652Y727709D01*
X1203887Y740405D02*
Y730248D01*
X1208965Y725170D01*
X1214044Y730248D01*
Y740405D01*
X1234357Y732787D02*
X1244514D01*
X1264827Y725170D02*
X1269905D01*
X1267366D01*
Y740405D01*
X1264827Y737866D01*
X1277523Y740405D02*
Y730248D01*
X1282601Y725170D01*
X1287680Y730248D01*
Y740405D01*
X1036323Y627378D02*
Y612142D01*
X1046480D01*
X1051558D02*
X1056637D01*
X1054098D01*
Y627378D01*
X1051558Y624838D01*
X547372Y568951D02*
X562607D01*
Y561333D01*
X560068Y558794D01*
X554990D01*
X552450Y561333D01*
Y568951D01*
Y563873D02*
X547372Y558794D01*
X544833Y553716D02*
Y543559D01*
X547372Y538481D02*
X557529D01*
X562607Y533402D01*
X557529Y528324D01*
X547372D01*
X554990D01*
Y538481D01*
X547372Y513089D02*
Y523246D01*
X557529Y513089D01*
X560068D01*
X562607Y515628D01*
Y520707D01*
X560068Y523246D01*
X741683Y485143D02*
Y500378D01*
X749301D01*
X751840Y497838D01*
Y492760D01*
X749301Y490221D01*
X741683D01*
X746762D02*
X751840Y485143D01*
X756918D02*
X761997D01*
X759458D01*
Y500378D01*
X756918Y497838D01*
X627381Y481328D02*
X624842Y483867D01*
X619763D01*
X617224Y481328D01*
Y471172D01*
X619763Y468633D01*
X624842D01*
X627381Y471172D01*
X642616Y483867D02*
X637537Y481328D01*
X632459Y476250D01*
Y471172D01*
X634998Y468633D01*
X640077D01*
X642616Y471172D01*
Y473711D01*
X640077Y476250D01*
X632459D01*
X574042Y567682D02*
X589277D01*
Y560064D01*
X586738Y557525D01*
X581660D01*
X579120Y560064D01*
Y567682D01*
Y562603D02*
X574042Y557525D01*
X571503Y552447D02*
Y542290D01*
X574042Y537212D02*
X584199D01*
X589277Y532133D01*
X584199Y527055D01*
X574042D01*
X581660D01*
Y537212D01*
X574042Y521977D02*
Y516898D01*
Y519437D01*
X589277D01*
X586738Y521977D01*
X1075695Y582128D02*
X1073156Y584668D01*
X1068077D01*
X1065538Y582128D01*
Y571972D01*
X1068077Y569432D01*
X1073156D01*
X1075695Y571972D01*
X1083313Y569432D02*
X1088391D01*
X1090930Y571972D01*
Y577050D01*
X1088391Y579589D01*
X1083313D01*
X1080773Y577050D01*
Y571972D01*
X1083313Y569432D01*
X1096008Y579589D02*
Y571972D01*
X1098548Y569432D01*
X1106165D01*
Y579589D01*
X1113783Y582128D02*
Y579589D01*
X1111243D01*
X1116322D01*
X1113783D01*
Y571972D01*
X1116322Y569432D01*
X845821Y527048D02*
X843282Y529588D01*
X838203D01*
X835664Y527048D01*
Y516892D01*
X838203Y514352D01*
X843282D01*
X845821Y516892D01*
X861056Y514352D02*
X850899D01*
X861056Y524509D01*
Y527048D01*
X858517Y529588D01*
X853438D01*
X850899Y527048D01*
X666751Y486408D02*
X664212Y488947D01*
X659133D01*
X656594Y486408D01*
Y476252D01*
X659133Y473713D01*
X664212D01*
X666751Y476252D01*
X681986Y488947D02*
X671829D01*
Y481330D01*
X676908Y483869D01*
X679447D01*
X681986Y481330D01*
Y476252D01*
X679447Y473713D01*
X674368D01*
X671829Y476252D01*
X639184Y575832D02*
X637018Y577998D01*
X632686D01*
X630520Y575832D01*
Y567168D01*
X632686Y565002D01*
X637018D01*
X639184Y567168D01*
X650014Y565002D02*
Y577998D01*
X643516Y571500D01*
X652180D01*
X824230Y599438D02*
X821691Y601978D01*
X816612D01*
X814073Y599438D01*
Y589282D01*
X816612Y586743D01*
X821691D01*
X824230Y589282D01*
X829308Y586743D02*
X834387D01*
X831848D01*
Y601978D01*
X829308Y599438D01*
X601982Y566413D02*
X617217D01*
Y558796D01*
X614678Y556257D01*
X609600D01*
X607060Y558796D01*
Y566413D01*
Y561335D02*
X601982Y556257D01*
X599443Y551178D02*
Y541022D01*
X617217Y535943D02*
X601982D01*
Y528326D01*
X604521Y525787D01*
X607060D01*
X609600Y528326D01*
Y535943D01*
Y528326D01*
X612139Y525787D01*
X614678D01*
X617217Y528326D01*
Y535943D01*
X695964Y472443D02*
Y487677D01*
X703582D01*
X706121Y485138D01*
Y480060D01*
X703582Y477521D01*
X695964D01*
X701042D02*
X706121Y472443D01*
X721356D02*
X711199D01*
X721356Y482599D01*
Y485138D01*
X718817Y487677D01*
X713738D01*
X711199Y485138D01*
X844550Y695962D02*
Y706118D01*
X842011Y708658D01*
X836933D01*
X834393Y706118D01*
Y695962D01*
X836933Y693422D01*
X842011D01*
X839472Y698501D02*
X844550Y693422D01*
X842011D02*
X844550Y695962D01*
X849628Y693422D02*
X854707D01*
X852168D01*
Y708658D01*
X849628Y706118D01*
X770891Y697232D02*
Y707388D01*
X768352Y709928D01*
X763273D01*
X760734Y707388D01*
Y697232D01*
X763273Y694693D01*
X768352D01*
X765813Y699771D02*
X770891Y694693D01*
X768352D02*
X770891Y697232D01*
X786126Y694693D02*
X775969D01*
X786126Y704849D01*
Y707388D01*
X783587Y709928D01*
X778508D01*
X775969Y707388D01*
X946166Y541022D02*
Y556257D01*
X953784D01*
X956323Y553718D01*
Y548640D01*
X953784Y546100D01*
X946166D01*
X951245D02*
X956323Y541022D01*
X961402Y538483D02*
X971558D01*
X976637Y541022D02*
X984254D01*
X986793Y543561D01*
X984254Y546100D01*
X979176D01*
X976637Y548640D01*
X979176Y551179D01*
X986793D01*
X999489Y541022D02*
X994411D01*
X991872Y543561D01*
Y548640D01*
X994411Y551179D01*
X999489D01*
X1002028Y548640D01*
Y546100D01*
X991872D01*
X1007107Y541022D02*
Y551179D01*
X1014724D01*
X1017263Y548640D01*
Y541022D01*
X1022342D02*
X1029959D01*
X1032498Y543561D01*
X1029959Y546100D01*
X1024881D01*
X1022342Y548640D01*
X1024881Y551179D01*
X1032498D01*
X1045194Y541022D02*
X1040116D01*
X1037577Y543561D01*
Y548640D01*
X1040116Y551179D01*
X1045194D01*
X1047734Y548640D01*
Y546100D01*
X1037577D01*
X619760Y676908D02*
X614682D01*
X617221D01*
Y664212D01*
X614682Y661673D01*
X612142D01*
X609603Y664212D01*
X624838Y661673D02*
X629917D01*
X627378D01*
Y676908D01*
X624838Y674368D01*
X1202691Y552448D02*
X1197613D01*
X1200152D01*
Y539752D01*
X1197613Y537212D01*
X1195073D01*
X1192534Y539752D01*
X1217926Y537212D02*
X1207769D01*
X1217926Y547369D01*
Y549908D01*
X1215387Y552448D01*
X1210308D01*
X1207769Y549908D01*
X777245Y520698D02*
X782324D01*
X779784D01*
Y505462D01*
X777245D01*
X782324D01*
X800098Y518158D02*
X797559Y520698D01*
X792480D01*
X789941Y518158D01*
Y508002D01*
X792480Y505462D01*
X797559D01*
X800098Y508002D01*
X805176Y505462D02*
X810255D01*
X807716D01*
Y520698D01*
X805176Y518158D01*
X864873Y561338D02*
Y546102D01*
X872491D01*
X875030Y548642D01*
Y558798D01*
X872491Y561338D01*
X864873D01*
X880108Y546102D02*
X885187D01*
X882648D01*
Y561338D01*
X880108Y558798D01*
D14*
X944100Y481110D02*
Y517110D01*
X910100Y481110D02*
Y517110D01*
M02*
