G04*
G04 #@! TF.GenerationSoftware,Altium Limited,Altium Designer,24.0.1 (36)*
G04*
G04 Layer_Color=65535*
%FSLAX44Y44*%
%MOMM*%
G71*
G04*
G04 #@! TF.SameCoordinates,BB81E8EB-7F52-4CE0-AE74-A3D2E76F45DC*
G04*
G04*
G04 #@! TF.FilePolarity,Positive*
G04*
G01*
G75*
%ADD10C,0.2500*%
%ADD11C,0.4000*%
%ADD12C,0.2000*%
%ADD13C,0.2540*%
%ADD14C,0.1270*%
D10*
X794790Y535400D02*
G03*
X794790Y535400I-1250J0D01*
G01*
X1252200Y510630D02*
G03*
X1252200Y510630I-1250J0D01*
G01*
X708550Y666750D02*
G03*
X708550Y666750I-1250J0D01*
G01*
X925270Y627590D02*
G03*
X925270Y627590I-1250J0D01*
G01*
D11*
X806690Y556300D02*
G03*
X806690Y556300I-2000J0D01*
G01*
X946920Y616440D02*
G03*
X946920Y616440I-2000J0D01*
G01*
D12*
X1210780Y594760D02*
G03*
X1210780Y594760I-50000J0D01*
G01*
X810530Y495900D02*
X812530D01*
X810530Y507400D02*
X812530D01*
X796690Y548300D02*
X846690D01*
X796690Y569300D02*
X846690D01*
X796690Y548300D02*
Y569300D01*
X846690Y548300D02*
Y569300D01*
X731950Y653960D02*
X811200D01*
X738200Y610960D02*
X811200D01*
X866450Y503600D02*
X888450D01*
X866450Y525100D02*
X888450D01*
X1219950Y517130D02*
X1281950D01*
X1219950D02*
Y572530D01*
X1281950D01*
Y517130D02*
Y524450D01*
Y565210D02*
Y572530D01*
X645400Y697750D02*
X652720D01*
X693480D02*
X700800D01*
X645400Y635750D02*
Y697750D01*
Y635750D02*
X700800D01*
Y697750D01*
X689940Y598880D02*
X704440D01*
X936920Y574440D02*
Y624440D01*
X957920Y574440D02*
Y624440D01*
X936920D02*
X957920D01*
X936920Y574440D02*
X957920D01*
X668690Y553990D02*
Y555990D01*
X657190Y553990D02*
Y555990D01*
X617490Y540350D02*
X619490D01*
X617490Y551850D02*
X619490D01*
X635550Y494710D02*
X657550D01*
X635550Y516210D02*
X657550D01*
X635430Y537800D02*
X657430D01*
X635430Y516300D02*
X657430D01*
X676550Y499710D02*
X678550D01*
X676550Y511210D02*
X678550D01*
X653210Y582340D02*
X675210D01*
X653210Y603840D02*
X675210D01*
X865550Y580820D02*
Y602820D01*
X887050Y580820D02*
Y602820D01*
X891640Y542050D02*
Y567300D01*
X904140Y550300D02*
Y567300D01*
D13*
X1124279Y764540D02*
G03*
X1124271Y763266I-100659J0D01*
G01*
X803913Y449582D02*
Y464818D01*
X811531D01*
X814070Y462278D01*
Y457200D01*
X811531Y454661D01*
X803913D01*
X808992D02*
X814070Y449582D01*
X819148D02*
X824227D01*
X821688D01*
Y464818D01*
X819148Y462278D01*
X739141Y468632D02*
Y478788D01*
X736602Y481328D01*
X731523D01*
X728984Y478788D01*
Y468632D01*
X731523Y466092D01*
X736602D01*
X734062Y471171D02*
X739141Y466092D01*
X736602D02*
X739141Y468632D01*
X754376Y466092D02*
X744219D01*
X754376Y476249D01*
Y478788D01*
X751837Y481328D01*
X746758D01*
X744219Y478788D01*
X544830Y793750D02*
X549908D01*
X547369D01*
Y808985D01*
X544830Y806446D01*
X557526D02*
X560065Y808985D01*
X565143D01*
X567683Y806446D01*
Y803907D01*
X565143Y801367D01*
X562604D01*
X565143D01*
X567683Y798828D01*
Y796289D01*
X565143Y793750D01*
X560065D01*
X557526Y796289D01*
X572761Y801367D02*
X582918D01*
X587996Y806446D02*
X590535Y808985D01*
X595614D01*
X598153Y806446D01*
Y796289D01*
X595614Y793750D01*
X590535D01*
X587996Y796289D01*
Y806446D01*
X613388Y793750D02*
X603231D01*
X613388Y803907D01*
Y806446D01*
X610849Y808985D01*
X605770D01*
X603231Y806446D01*
X618466Y801367D02*
X628623D01*
X643858Y793750D02*
X633701D01*
X643858Y803907D01*
Y806446D01*
X641319Y808985D01*
X636240D01*
X633701Y806446D01*
X648936D02*
X651476Y808985D01*
X656554D01*
X659093Y806446D01*
Y796289D01*
X656554Y793750D01*
X651476D01*
X648936Y796289D01*
Y806446D01*
X674328Y793750D02*
X664171D01*
X674328Y803907D01*
Y806446D01*
X671789Y808985D01*
X666711D01*
X664171Y806446D01*
X687024Y793750D02*
Y808985D01*
X679407Y801367D01*
X689563D01*
X546100Y835655D02*
Y825498D01*
X551178Y820420D01*
X556257Y825498D01*
Y835655D01*
X568953Y820420D02*
X563874D01*
X561335Y822959D01*
Y828037D01*
X563874Y830577D01*
X568953D01*
X571492Y828037D01*
Y825498D01*
X561335D01*
X576570Y830577D02*
Y820420D01*
Y825498D01*
X579109Y828037D01*
X581648Y830577D01*
X584188D01*
X591805Y820420D02*
X599423D01*
X601962Y822959D01*
X599423Y825498D01*
X594344D01*
X591805Y828037D01*
X594344Y830577D01*
X601962D01*
X607040Y820420D02*
X612119D01*
X609580D01*
Y830577D01*
X607040D01*
X622275Y820420D02*
X627354D01*
X629893Y822959D01*
Y828037D01*
X627354Y830577D01*
X622275D01*
X619736Y828037D01*
Y822959D01*
X622275Y820420D01*
X634971D02*
Y830577D01*
X642589D01*
X645128Y828037D01*
Y820420D01*
X665441D02*
X670520D01*
X667981D01*
Y835655D01*
X665441Y833116D01*
X546100Y861055D02*
Y845820D01*
X553717D01*
X556257Y848359D01*
Y850898D01*
X553717Y853438D01*
X546100D01*
X553717D01*
X556257Y855977D01*
Y858516D01*
X553717Y861055D01*
X546100D01*
X561335Y855977D02*
Y848359D01*
X563874Y845820D01*
X571492D01*
Y855977D01*
X586727D02*
X579109D01*
X576570Y853438D01*
Y848359D01*
X579109Y845820D01*
X586727D01*
X591805D02*
Y861055D01*
Y850898D02*
X599423Y855977D01*
X591805Y850898D02*
X599423Y845820D01*
X617197Y855977D02*
X609580D01*
X607040Y853438D01*
Y848359D01*
X609580Y845820D01*
X617197D01*
X624814D02*
X629893D01*
X632432Y848359D01*
Y853438D01*
X629893Y855977D01*
X624814D01*
X622275Y853438D01*
Y848359D01*
X624814Y845820D01*
X637510D02*
Y855977D01*
X645128D01*
X647667Y853438D01*
Y845820D01*
X652746Y855977D02*
X657824Y845820D01*
X662902Y855977D01*
X675598Y845820D02*
X670520D01*
X667981Y848359D01*
Y853438D01*
X670520Y855977D01*
X675598D01*
X678137Y853438D01*
Y850898D01*
X667981D01*
X683216Y855977D02*
Y845820D01*
Y850898D01*
X685755Y853438D01*
X688294Y855977D01*
X690833D01*
X700990Y858516D02*
Y855977D01*
X698451D01*
X703529D01*
X700990D01*
Y848359D01*
X703529Y845820D01*
X718764D02*
X713686D01*
X711147Y848359D01*
Y853438D01*
X713686Y855977D01*
X718764D01*
X721303Y853438D01*
Y850898D01*
X711147D01*
X726382Y855977D02*
Y845820D01*
Y850898D01*
X728921Y853438D01*
X731460Y855977D01*
X733999D01*
X767009Y861055D02*
X756852D01*
Y853438D01*
X761930Y855977D01*
X764469D01*
X767009Y853438D01*
Y848359D01*
X764469Y845820D01*
X759391D01*
X756852Y848359D01*
X772087Y861055D02*
Y850898D01*
X777165Y845820D01*
X782244Y850898D01*
Y861055D01*
X802557Y853438D02*
X812714D01*
X833027Y845820D02*
X838105D01*
X835566D01*
Y861055D01*
X833027Y858516D01*
X845723Y861055D02*
Y850898D01*
X850801Y845820D01*
X855880Y850898D01*
Y861055D01*
X581661Y505458D02*
X579122Y507998D01*
X574043D01*
X571504Y505458D01*
Y495302D01*
X574043Y492762D01*
X579122D01*
X581661Y495302D01*
X596896Y507998D02*
X591818Y505458D01*
X586739Y500380D01*
Y495302D01*
X589278Y492762D01*
X594357D01*
X596896Y495302D01*
Y497841D01*
X594357Y500380D01*
X586739D01*
X551187Y542292D02*
Y557527D01*
X558804D01*
X561343Y554988D01*
Y549910D01*
X558804Y547370D01*
X551187D01*
X556265D02*
X561343Y542292D01*
X566422Y539753D02*
X576578D01*
X581657Y542292D02*
Y552449D01*
X586735Y557527D01*
X591813Y552449D01*
Y542292D01*
Y549910D01*
X581657D01*
X1137923Y769617D02*
Y754382D01*
X1148080D01*
X1153158D02*
X1158237D01*
X1155698D01*
Y769617D01*
X1153158Y767078D01*
X1144275Y670558D02*
X1141736Y673098D01*
X1136657D01*
X1134118Y670558D01*
Y660402D01*
X1136657Y657862D01*
X1141736D01*
X1144275Y660402D01*
X1151892Y657862D02*
X1156971D01*
X1159510Y660402D01*
Y665480D01*
X1156971Y668019D01*
X1151892D01*
X1149353Y665480D01*
Y660402D01*
X1151892Y657862D01*
X1164588Y668019D02*
Y660402D01*
X1167128Y657862D01*
X1174745D01*
Y668019D01*
X1182363Y670558D02*
Y668019D01*
X1179823D01*
X1184902D01*
X1182363D01*
Y660402D01*
X1184902Y657862D01*
X742951Y676908D02*
X740412Y679447D01*
X735333D01*
X732794Y676908D01*
Y666752D01*
X735333Y664212D01*
X740412D01*
X742951Y666752D01*
X748029Y676908D02*
X750568Y679447D01*
X755647D01*
X758186Y676908D01*
Y674369D01*
X755647Y671830D01*
X753108D01*
X755647D01*
X758186Y669291D01*
Y666752D01*
X755647Y664212D01*
X750568D01*
X748029Y666752D01*
X918211Y486408D02*
X915672Y488947D01*
X910593D01*
X908054Y486408D01*
Y476252D01*
X910593Y473713D01*
X915672D01*
X918211Y476252D01*
X933446Y473713D02*
X923289D01*
X933446Y483869D01*
Y486408D01*
X930907Y488947D01*
X925828D01*
X923289Y486408D01*
X580391Y532128D02*
X577852Y534668D01*
X572773D01*
X570234Y532128D01*
Y521972D01*
X572773Y519432D01*
X577852D01*
X580391Y521972D01*
X595626Y534668D02*
X585469D01*
Y527050D01*
X590547Y529589D01*
X593087D01*
X595626Y527050D01*
Y521972D01*
X593087Y519432D01*
X588008D01*
X585469Y521972D01*
X614681Y596898D02*
X612142Y599437D01*
X607063D01*
X604524Y596898D01*
Y586742D01*
X607063Y584202D01*
X612142D01*
X614681Y586742D01*
X627377Y584202D02*
Y599437D01*
X619759Y591820D01*
X629916D01*
X854710Y669288D02*
X852171Y671827D01*
X847093D01*
X844553Y669288D01*
Y659132D01*
X847093Y656592D01*
X852171D01*
X854710Y659132D01*
X859788Y656592D02*
X864867D01*
X862328D01*
Y671827D01*
X859788Y669288D01*
X549917Y575312D02*
Y590547D01*
X557534D01*
X560073Y588008D01*
Y582930D01*
X557534Y580390D01*
X549917D01*
X554995D02*
X560073Y575312D01*
X565152Y572773D02*
X575308D01*
X580387Y590547D02*
Y575312D01*
X588004D01*
X590543Y577851D01*
Y580390D01*
X588004Y582930D01*
X580387D01*
X588004D01*
X590543Y585469D01*
Y588008D01*
X588004Y590547D01*
X580387D01*
X668024Y464823D02*
Y480057D01*
X675642D01*
X678181Y477518D01*
Y472440D01*
X675642Y469901D01*
X668024D01*
X673102D02*
X678181Y464823D01*
X693416D02*
X683259D01*
X693416Y474979D01*
Y477518D01*
X690877Y480057D01*
X685798D01*
X683259Y477518D01*
X943610Y637542D02*
Y647698D01*
X941071Y650238D01*
X935993D01*
X933453Y647698D01*
Y637542D01*
X935993Y635003D01*
X941071D01*
X938532Y640081D02*
X943610Y635003D01*
X941071D02*
X943610Y637542D01*
X948688Y635003D02*
X953767D01*
X951228D01*
Y650238D01*
X948688Y647698D01*
X949976Y491492D02*
Y506727D01*
X957594D01*
X960133Y504188D01*
Y499110D01*
X957594Y496570D01*
X949976D01*
X955055D02*
X960133Y491492D01*
X965211Y488953D02*
X975368D01*
X980447Y491492D02*
X988064D01*
X990603Y494031D01*
X988064Y496570D01*
X982986D01*
X980447Y499110D01*
X982986Y501649D01*
X990603D01*
X1003299Y491492D02*
X998221D01*
X995682Y494031D01*
Y499110D01*
X998221Y501649D01*
X1003299D01*
X1005838Y499110D01*
Y496570D01*
X995682D01*
X1010917Y491492D02*
Y501649D01*
X1018534D01*
X1021073Y499110D01*
Y491492D01*
X1026152D02*
X1033769D01*
X1036309Y494031D01*
X1033769Y496570D01*
X1028691D01*
X1026152Y499110D01*
X1028691Y501649D01*
X1036309D01*
X1049004Y491492D02*
X1043926D01*
X1041387Y494031D01*
Y499110D01*
X1043926Y501649D01*
X1049004D01*
X1051544Y499110D01*
Y496570D01*
X1041387D01*
X615950Y661667D02*
X610872D01*
X613411D01*
Y648972D01*
X610872Y646432D01*
X608332D01*
X605793Y648972D01*
X621028Y646432D02*
X626107D01*
X623568D01*
Y661667D01*
X621028Y659128D01*
X1253491Y600708D02*
X1248412D01*
X1250952D01*
Y588012D01*
X1248412Y585472D01*
X1245873D01*
X1243334Y588012D01*
X1268726Y585472D02*
X1258569D01*
X1268726Y595629D01*
Y598168D01*
X1266187Y600708D01*
X1261108D01*
X1258569Y598168D01*
X668027Y627378D02*
Y612142D01*
X678183D01*
X683262Y627378D02*
X693418D01*
X688340D01*
Y612142D01*
X708653Y624838D02*
X706114Y627378D01*
X701036D01*
X698497Y624838D01*
Y614682D01*
X701036Y612142D01*
X706114D01*
X708653Y614682D01*
X911863Y552448D02*
Y537212D01*
X919481D01*
X922020Y539752D01*
Y549908D01*
X919481Y552448D01*
X911863D01*
X927098Y537212D02*
X932177D01*
X929638D01*
Y552448D01*
X927098Y549908D01*
D14*
X1037060Y574530D02*
X1073060D01*
X1037060Y540530D02*
X1073060D01*
M02*
