G04*
G04 #@! TF.GenerationSoftware,Altium Limited,Altium Designer,24.0.1 (36)*
G04*
G04 Layer_Physical_Order=1*
G04 Layer_Color=255*
%FSLAX44Y44*%
%MOMM*%
G71*
G04*
G04 #@! TF.SameCoordinates,BB81E8EB-7F52-4CE0-AE74-A3D2E76F45DC*
G04*
G04*
G04 #@! TF.FilePolarity,Positive*
G04*
G01*
G75*
%ADD13C,0.2540*%
%ADD15R,0.8500X1.3500*%
%ADD16R,0.7200X1.7800*%
%ADD17R,2.3500X2.4500*%
%ADD18R,0.9500X1.3500*%
%ADD19R,2.7400X3.8600*%
%ADD20R,1.4500X0.4500*%
%ADD21R,1.7800X0.7200*%
%ADD22R,1.3500X0.8500*%
%ADD23R,1.5400X3.4200*%
%ADD24R,3.0000X2.8000*%
%ADD25R,1.3500X0.9500*%
%ADD26R,0.5500X1.0500*%
%ADD43C,0.8000*%
%ADD44R,1.6000X1.6000*%
%ADD45C,1.6000*%
%ADD46R,1.6000X1.6000*%
%ADD47R,1.2000X1.2000*%
%ADD48C,1.2000*%
%ADD49C,1.2700*%
G36*
X1304290Y447040D02*
X524510D01*
Y880110D01*
X1304290D01*
Y447040D01*
D02*
G37*
%LPC*%
G36*
X686859Y700190D02*
X684742D01*
X682697Y699642D01*
X680863Y698584D01*
X679366Y697087D01*
X678308Y695253D01*
X677760Y693208D01*
Y691092D01*
X678308Y689047D01*
X679366Y687213D01*
X680863Y685716D01*
X682697Y684658D01*
X684742Y684110D01*
X686859D01*
X688903Y684658D01*
X690737Y685716D01*
X692234Y687213D01*
X693292Y689047D01*
X693840Y691092D01*
Y693208D01*
X693292Y695253D01*
X692234Y697087D01*
X690737Y698584D01*
X688903Y699642D01*
X686859Y700190D01*
D02*
G37*
G36*
X661459D02*
X659342D01*
X657297Y699642D01*
X655463Y698584D01*
X653966Y697087D01*
X652908Y695253D01*
X652360Y693208D01*
Y691092D01*
X652908Y689047D01*
X653966Y687213D01*
X655463Y685716D01*
X657297Y684658D01*
X659342Y684110D01*
X661459D01*
X663503Y684658D01*
X665337Y685716D01*
X666834Y687213D01*
X667892Y689047D01*
X668440Y691092D01*
Y693208D01*
X667892Y695253D01*
X666834Y697087D01*
X665337Y698584D01*
X663503Y699642D01*
X661459Y700190D01*
D02*
G37*
G36*
X661788Y677290D02*
X661670D01*
Y668020D01*
X670940D01*
Y668138D01*
X670222Y670818D01*
X668834Y673222D01*
X666872Y675184D01*
X664468Y676572D01*
X661788Y677290D01*
D02*
G37*
G36*
X659130D02*
X659012D01*
X656332Y676572D01*
X653928Y675184D01*
X651966Y673222D01*
X650578Y670818D01*
X649860Y668138D01*
Y668020D01*
X659130D01*
Y677290D01*
D02*
G37*
G36*
X670940Y665480D02*
X661670D01*
Y656210D01*
X661788D01*
X664468Y656928D01*
X666872Y658316D01*
X668834Y660278D01*
X670222Y662682D01*
X670940Y665362D01*
Y665480D01*
D02*
G37*
G36*
X659130D02*
X649860D01*
Y665362D01*
X650578Y662682D01*
X651966Y660278D01*
X653928Y658316D01*
X656332Y656928D01*
X659012Y656210D01*
X659130D01*
Y665480D01*
D02*
G37*
G36*
X819990Y647250D02*
X806970D01*
Y633730D01*
X819990D01*
Y647250D01*
D02*
G37*
G36*
X804430D02*
X791410D01*
Y633730D01*
X804430D01*
Y647250D01*
D02*
G37*
G36*
X1169320Y628300D02*
X1162050D01*
Y621030D01*
X1169320D01*
Y628300D01*
D02*
G37*
G36*
X842010Y628623D02*
Y621030D01*
X849603D01*
X849024Y623191D01*
X847854Y625219D01*
X846199Y626874D01*
X844171Y628044D01*
X842010Y628623D01*
D02*
G37*
G36*
X839470D02*
X837309Y628044D01*
X835281Y626874D01*
X833626Y625219D01*
X832456Y623191D01*
X831877Y621030D01*
X839470D01*
Y628623D01*
D02*
G37*
G36*
X1159510Y628300D02*
X1152240D01*
Y621030D01*
X1159510D01*
Y628300D01*
D02*
G37*
G36*
X935460Y624630D02*
X925290D01*
Y619760D01*
X935460D01*
Y624630D01*
D02*
G37*
G36*
X1092240Y781080D02*
X1057160D01*
Y748000D01*
X1068104D01*
Y618202D01*
X1027071Y577170D01*
X1015920D01*
Y545585D01*
X945124D01*
X943638Y545289D01*
X942377Y544447D01*
X904436Y506505D01*
X903263Y506991D01*
Y511178D01*
X903869Y512643D01*
X904094Y514350D01*
Y546908D01*
X903869Y548615D01*
X903210Y550206D01*
X903180Y550246D01*
Y555090D01*
X904079Y555985D01*
X911860D01*
X913347Y556281D01*
X914607Y557123D01*
X926767Y569283D01*
X927609Y570543D01*
X927905Y572030D01*
Y574250D01*
X935460D01*
Y586530D01*
X935460D01*
Y586950D01*
X935460D01*
Y591820D01*
X924020D01*
X912580D01*
Y586950D01*
X912580D01*
Y586530D01*
X912580D01*
Y574250D01*
X918950D01*
X919476Y572980D01*
X910251Y563755D01*
X903180D01*
Y578090D01*
X902410D01*
Y587297D01*
X902591Y587346D01*
X904619Y588516D01*
X906274Y590171D01*
X907444Y592199D01*
X908050Y594460D01*
Y596800D01*
X907444Y599061D01*
X906274Y601089D01*
X904619Y602744D01*
X902591Y603914D01*
X900330Y604520D01*
X897990D01*
X895729Y603914D01*
X893701Y602744D01*
X892046Y601089D01*
X890876Y599061D01*
X890270Y596800D01*
Y594460D01*
X890876Y592199D01*
X892046Y590171D01*
X893701Y588516D01*
X894640Y587974D01*
Y580406D01*
X893370Y579293D01*
X892810Y579366D01*
X889199D01*
X888325Y580240D01*
X888152Y581557D01*
X887493Y583148D01*
X886444Y584515D01*
X885590Y585170D01*
Y591610D01*
X885590D01*
Y592030D01*
X885590D01*
Y598050D01*
X876300D01*
X867010D01*
Y592030D01*
X867010D01*
Y591610D01*
X867010D01*
Y582524D01*
X862308Y577822D01*
X861135Y578308D01*
Y611783D01*
X862405Y612385D01*
X863525Y611738D01*
Y608210D01*
X863821Y606723D01*
X864663Y605463D01*
X866935Y603191D01*
Y602800D01*
X867010Y602425D01*
Y600590D01*
X875030D01*
Y606610D01*
X874193D01*
X873567Y607547D01*
X871295Y609819D01*
Y611738D01*
X872869Y612646D01*
X874524Y614301D01*
X875694Y616329D01*
X876273Y618490D01*
X867410D01*
Y621030D01*
X876273D01*
X875694Y623191D01*
X874785Y624765D01*
X875387Y626035D01*
X905681D01*
X911956Y619760D01*
X922750D01*
Y624630D01*
X918074D01*
X910037Y632667D01*
X908777Y633509D01*
X907290Y633805D01*
X863202D01*
X861715Y633509D01*
X860455Y632667D01*
X854503Y626715D01*
X853661Y625455D01*
X853365Y623968D01*
Y574063D01*
X853217Y573915D01*
X846880D01*
Y593640D01*
X834600D01*
Y593640D01*
X834180D01*
Y593640D01*
X821900D01*
Y593640D01*
X821480D01*
Y593640D01*
X809200D01*
Y593640D01*
X808780D01*
Y593640D01*
X796500D01*
Y592066D01*
X784755D01*
X783731Y593336D01*
X783836Y594140D01*
Y604520D01*
X783612Y606227D01*
X782953Y607818D01*
X781904Y609184D01*
X780538Y610233D01*
X778947Y610892D01*
X777240Y611116D01*
X738062D01*
X735705Y613474D01*
Y614636D01*
X738739Y617670D01*
X757990D01*
Y647250D01*
X738540D01*
X737884Y648104D01*
X714574Y671414D01*
X713208Y672463D01*
X711617Y673122D01*
X709910Y673346D01*
X696340D01*
Y677290D01*
X675260D01*
Y656210D01*
X696340D01*
Y660154D01*
X707178D01*
X728556Y638776D01*
X729410Y638120D01*
Y626999D01*
X724444Y622033D01*
X723396Y620667D01*
X722737Y619076D01*
X722512Y617369D01*
Y610741D01*
X722737Y609034D01*
X723396Y607443D01*
X724444Y606077D01*
X730666Y599856D01*
X732032Y598807D01*
X733623Y598148D01*
X735330Y597924D01*
X744632D01*
X745900Y597920D01*
Y588340D01*
Y581400D01*
X755690D01*
Y578860D01*
X745900D01*
Y576299D01*
X745599Y576239D01*
X744339Y575397D01*
X743853Y574912D01*
X742680Y575398D01*
Y585720D01*
X727710D01*
Y563880D01*
Y542040D01*
X741285D01*
Y531025D01*
X741581Y529539D01*
X742423Y528279D01*
X790849Y479853D01*
X792109Y479011D01*
X793596Y478715D01*
X874986D01*
X875472Y477542D01*
X874255Y476325D01*
X781865D01*
X717323Y540867D01*
X717809Y542040D01*
X725170D01*
Y562610D01*
X710200D01*
Y549649D01*
X709027Y549163D01*
X708792Y549397D01*
X707532Y550239D01*
X706980Y550349D01*
Y562340D01*
Y568840D01*
Y575340D01*
Y581840D01*
Y585360D01*
X687400D01*
Y581840D01*
Y575340D01*
Y568840D01*
Y558833D01*
X686130Y558354D01*
X678497Y565987D01*
X677236Y566829D01*
X675750Y567125D01*
X672230D01*
Y570030D01*
X653650D01*
Y567125D01*
X651428D01*
X650240Y568313D01*
Y570130D01*
X649634Y572391D01*
X648464Y574419D01*
X646809Y576074D01*
X644781Y577244D01*
X642520Y577850D01*
X640180D01*
X637919Y577244D01*
X635891Y576074D01*
X634236Y574419D01*
X633066Y572391D01*
X632460Y570130D01*
Y567790D01*
X633066Y565529D01*
X634236Y563501D01*
X635891Y561846D01*
X637919Y560676D01*
X640180Y560070D01*
X642520D01*
X644781Y560676D01*
X646118Y561447D01*
X647073Y560493D01*
X648333Y559651D01*
X649819Y559355D01*
X653650D01*
Y556450D01*
X672230D01*
Y559355D01*
X674141D01*
X682113Y551383D01*
X683373Y550541D01*
X684860Y550245D01*
X687400D01*
Y545015D01*
X684719D01*
X680247Y549487D01*
X678987Y550329D01*
X677500Y550625D01*
X672230D01*
Y553530D01*
X653650D01*
Y550625D01*
X633530D01*
Y555390D01*
X619950D01*
Y536810D01*
X630565D01*
X631640Y536340D01*
X631640Y535540D01*
Y528320D01*
X637660D01*
Y536340D01*
X634605D01*
X633530Y536810D01*
X633530Y537610D01*
Y542855D01*
X653650D01*
Y539950D01*
X672230D01*
Y542855D01*
X675891D01*
X680363Y538383D01*
X681623Y537541D01*
X683110Y537246D01*
X687400D01*
Y529840D01*
X693305D01*
Y520959D01*
X687096Y514750D01*
X684504D01*
X669457Y529797D01*
X668197Y530639D01*
X666710Y530935D01*
X661220D01*
Y536340D01*
X647490D01*
X646640Y536340D01*
X645370Y536340D01*
X640200D01*
Y527050D01*
Y517760D01*
X645370D01*
X646220Y517760D01*
X647490Y517760D01*
X661220D01*
Y523165D01*
X665101D01*
X672343Y515923D01*
X671857Y514750D01*
X662510D01*
Y514750D01*
X661340D01*
Y514750D01*
X647610D01*
X646760Y514750D01*
X645490Y514750D01*
X640320D01*
Y505460D01*
Y496170D01*
X645490D01*
X646340Y496170D01*
X647610Y496170D01*
X661340D01*
Y496170D01*
X662510D01*
Y496170D01*
X676090D01*
Y510517D01*
X677263Y511003D01*
X679010Y509256D01*
Y496170D01*
X692590D01*
Y509256D01*
X699937Y516603D01*
X700779Y517863D01*
X701075Y519350D01*
Y529840D01*
X706980D01*
Y538563D01*
X708153Y539049D01*
X777509Y469693D01*
X778769Y468851D01*
X780256Y468555D01*
X875864D01*
X877351Y468851D01*
X878611Y469693D01*
X946733Y537815D01*
X1019730D01*
X1020105Y537890D01*
X1036400D01*
Y567841D01*
X1079364Y610806D01*
X1080413Y612172D01*
X1081072Y613763D01*
X1081296Y615470D01*
Y748000D01*
X1092240D01*
Y781080D01*
D02*
G37*
G36*
X819990Y631190D02*
X806970D01*
Y617670D01*
X819990D01*
Y631190D01*
D02*
G37*
G36*
X804430D02*
X791410D01*
Y617670D01*
X804430D01*
Y631190D01*
D02*
G37*
G36*
X1169320Y618490D02*
X1162050D01*
Y611220D01*
X1169320D01*
Y618490D01*
D02*
G37*
G36*
X1159510D02*
X1152240D01*
Y611220D01*
X1159510D01*
Y618490D01*
D02*
G37*
G36*
X849603D02*
X842010D01*
Y610897D01*
X844171Y611476D01*
X846199Y612646D01*
X847854Y614301D01*
X849024Y616329D01*
X849603Y618490D01*
D02*
G37*
G36*
X839470D02*
X831877D01*
X832456Y616329D01*
X833626Y614301D01*
X835281Y612646D01*
X837309Y611476D01*
X839470Y610897D01*
Y618490D01*
D02*
G37*
G36*
X935460Y617220D02*
X924020D01*
X912580D01*
Y612350D01*
X912580D01*
Y611930D01*
X912580D01*
Y607060D01*
X924020D01*
X935460D01*
Y611930D01*
X935460D01*
Y612350D01*
X935460D01*
Y617220D01*
D02*
G37*
G36*
X885590Y606610D02*
X877570D01*
Y600590D01*
X885590D01*
Y606610D01*
D02*
G37*
G36*
X655440Y602380D02*
X649420D01*
Y594360D01*
X655440D01*
Y602380D01*
D02*
G37*
G36*
X935460Y604520D02*
X924020D01*
X912580D01*
Y599650D01*
X912580D01*
Y599230D01*
X912580D01*
Y594360D01*
X924020D01*
X935460D01*
Y599230D01*
X935460D01*
Y599650D01*
X935460D01*
Y604520D01*
D02*
G37*
G36*
X664420Y602380D02*
X663150Y602380D01*
X657980D01*
Y593090D01*
Y583800D01*
X663150D01*
X664000Y583800D01*
X665270Y583800D01*
X679000D01*
Y589245D01*
X687400D01*
Y587900D01*
X706980D01*
Y588340D01*
Y597920D01*
X687400D01*
Y597015D01*
X679000D01*
Y602380D01*
X665270D01*
X664420Y602380D01*
D02*
G37*
G36*
X655440Y591820D02*
X649420D01*
Y583800D01*
X655440D01*
Y591820D01*
D02*
G37*
G36*
X725170Y585720D02*
X710200D01*
Y565150D01*
X725170D01*
Y585720D01*
D02*
G37*
G36*
X1252338Y568070D02*
X1252220D01*
Y558800D01*
X1261490D01*
Y558918D01*
X1260772Y561598D01*
X1259384Y564002D01*
X1257422Y565964D01*
X1255018Y567352D01*
X1252338Y568070D01*
D02*
G37*
G36*
X1249680D02*
X1249562D01*
X1246882Y567352D01*
X1244478Y565964D01*
X1242516Y564002D01*
X1241128Y561598D01*
X1240410Y558918D01*
Y558800D01*
X1249680D01*
Y568070D01*
D02*
G37*
G36*
X989090Y781080D02*
X954010D01*
Y748000D01*
X964224D01*
Y624630D01*
X959380D01*
Y612350D01*
X959380D01*
Y611930D01*
X959380D01*
Y599650D01*
X959380D01*
Y599230D01*
X959380D01*
Y586950D01*
X959380D01*
Y586530D01*
X959380D01*
Y574250D01*
X964954D01*
Y569856D01*
X964436Y569339D01*
X963266Y567311D01*
X962660Y565050D01*
Y562710D01*
X963266Y560449D01*
X964436Y558421D01*
X966091Y556766D01*
X968119Y555596D01*
X970380Y554990D01*
X972720D01*
X974981Y555596D01*
X977009Y556766D01*
X978664Y558421D01*
X979834Y560449D01*
X980440Y562710D01*
Y565050D01*
X979834Y567311D01*
X978664Y569339D01*
X978146Y569856D01*
Y574250D01*
X982260D01*
Y586530D01*
X982260D01*
Y586950D01*
X982260D01*
Y599230D01*
X982260D01*
Y599650D01*
X982260D01*
Y611930D01*
X982260D01*
Y612350D01*
X982260D01*
Y624630D01*
X977416D01*
Y748000D01*
X989090D01*
Y781080D01*
D02*
G37*
G36*
X1277409Y565570D02*
X1275292D01*
X1273247Y565022D01*
X1271413Y563964D01*
X1269916Y562467D01*
X1268858Y560633D01*
X1268310Y558588D01*
Y556471D01*
X1268858Y554427D01*
X1269916Y552593D01*
X1271413Y551096D01*
X1273247Y550038D01*
X1275292Y549490D01*
X1277409D01*
X1279453Y550038D01*
X1281287Y551096D01*
X1282784Y552593D01*
X1283842Y554427D01*
X1284390Y556471D01*
Y558588D01*
X1283842Y560633D01*
X1282784Y562467D01*
X1281287Y563964D01*
X1279453Y565022D01*
X1277409Y565570D01*
D02*
G37*
G36*
X617030Y555390D02*
X611510D01*
Y547370D01*
X617030D01*
Y555390D01*
D02*
G37*
G36*
X608970D02*
X603450D01*
Y547370D01*
X608970D01*
Y555390D01*
D02*
G37*
G36*
X1261490Y556260D02*
X1252220D01*
Y546990D01*
X1252338D01*
X1255018Y547708D01*
X1257422Y549096D01*
X1259384Y551058D01*
X1260772Y553462D01*
X1261490Y556142D01*
Y556260D01*
D02*
G37*
G36*
X1249680D02*
X1240410D01*
Y556142D01*
X1241128Y553462D01*
X1242516Y551058D01*
X1244478Y549096D01*
X1246882Y547708D01*
X1249562Y546990D01*
X1249680D01*
Y556260D01*
D02*
G37*
G36*
X617030Y544830D02*
X611510D01*
Y536810D01*
X617030D01*
Y544830D01*
D02*
G37*
G36*
X608970D02*
X603450D01*
Y536810D01*
X608970D01*
Y544830D01*
D02*
G37*
G36*
X1161904Y578300D02*
X1159656D01*
X1157484Y577718D01*
X1155536Y576594D01*
X1153946Y575004D01*
X1152822Y573056D01*
X1152240Y570884D01*
Y570549D01*
X1110258Y528566D01*
X1088636D01*
Y537890D01*
X1094200D01*
Y577170D01*
X1073720D01*
Y537890D01*
X1075444D01*
Y527946D01*
X1074926Y527429D01*
X1073756Y525401D01*
X1073150Y523140D01*
Y520800D01*
X1073756Y518539D01*
X1074926Y516511D01*
X1076581Y514856D01*
X1078609Y513686D01*
X1080870Y513080D01*
X1083210D01*
X1085471Y513686D01*
X1087499Y514856D01*
X1088016Y515374D01*
X1112990D01*
X1114697Y515598D01*
X1116288Y516257D01*
X1117654Y517306D01*
X1160780Y560431D01*
X1193746Y527466D01*
X1195112Y526417D01*
X1196703Y525758D01*
X1198410Y525534D01*
X1240410D01*
Y521590D01*
X1261490D01*
Y542670D01*
X1240410D01*
Y538726D01*
X1201142D01*
X1169320Y570549D01*
Y570884D01*
X1168738Y573056D01*
X1167614Y575004D01*
X1166024Y576594D01*
X1164076Y577718D01*
X1161904Y578300D01*
D02*
G37*
G36*
X1277409Y540170D02*
X1275292D01*
X1273247Y539622D01*
X1271413Y538564D01*
X1269916Y537067D01*
X1268858Y535233D01*
X1268310Y533189D01*
Y531072D01*
X1268858Y529027D01*
X1269916Y527193D01*
X1271413Y525696D01*
X1273247Y524638D01*
X1275292Y524090D01*
X1277409D01*
X1279453Y524638D01*
X1281287Y525696D01*
X1282784Y527193D01*
X1283842Y529027D01*
X1284390Y531072D01*
Y533189D01*
X1283842Y535233D01*
X1282784Y537067D01*
X1281287Y538564D01*
X1279453Y539622D01*
X1277409Y540170D01*
D02*
G37*
G36*
X637660Y525780D02*
X631640D01*
Y517760D01*
X637660D01*
Y525780D01*
D02*
G37*
G36*
X637780Y514750D02*
X631760D01*
Y506730D01*
X637780D01*
Y514750D01*
D02*
G37*
G36*
Y504190D02*
X631760D01*
Y496170D01*
X637780D01*
Y504190D01*
D02*
G37*
%LPD*%
G36*
X875408Y575749D02*
X876067Y574158D01*
X877116Y572792D01*
X881802Y568106D01*
X883168Y567057D01*
X884759Y566398D01*
X886466Y566174D01*
X892600D01*
Y563755D01*
X862888D01*
X862402Y564928D01*
X866622Y569148D01*
X867464Y570408D01*
X867760Y571895D01*
Y572286D01*
X872504Y577030D01*
X875240D01*
X875408Y575749D01*
D02*
G37*
G36*
X892600Y555090D02*
Y551268D01*
X891785Y550206D01*
X891126Y548615D01*
X890901Y546908D01*
Y523640D01*
X877660D01*
X877660Y523640D01*
X876546Y524018D01*
Y529850D01*
X876322Y531557D01*
X875663Y533148D01*
X874614Y534515D01*
X854555Y554574D01*
X854371Y554715D01*
X854802Y555985D01*
X891701D01*
X892600Y555090D01*
D02*
G37*
G36*
X769620Y543314D02*
X782128D01*
X787076Y538366D01*
X788442Y537317D01*
X790033Y536658D01*
X791740Y536434D01*
X795217D01*
X796054Y535479D01*
X796044Y535400D01*
X796268Y533693D01*
X796500Y533133D01*
Y523960D01*
X808780D01*
Y523960D01*
X809200D01*
Y523960D01*
X821480D01*
Y523960D01*
X821900D01*
Y523960D01*
X833330D01*
X834180Y523960D01*
Y523960D01*
X834600D01*
X835546Y523178D01*
X835570Y523121D01*
X834734Y522045D01*
X787894D01*
X767573Y542365D01*
X767620Y542526D01*
X768239Y543495D01*
X769620Y543314D01*
D02*
G37*
G36*
X863354Y527118D02*
Y523640D01*
X862660D01*
Y519676D01*
X859416D01*
X858899Y520194D01*
X856871Y521364D01*
X854610Y521970D01*
X852270D01*
X850009Y521364D01*
X847981Y520194D01*
X846326Y518539D01*
X845156Y516511D01*
X844550Y514250D01*
Y511910D01*
X845156Y509649D01*
X846326Y507621D01*
X847981Y505966D01*
X850009Y504796D01*
X852270Y504190D01*
X854610D01*
X856871Y504796D01*
X858899Y505966D01*
X859416Y506484D01*
X862660D01*
Y505060D01*
X877240D01*
Y505060D01*
X877660D01*
Y505060D01*
X892240D01*
Y507754D01*
X895493D01*
Y504747D01*
X877231Y486485D01*
X839816D01*
X839649Y487755D01*
X841631Y488286D01*
X843659Y489456D01*
X845314Y491111D01*
X846484Y493139D01*
X847090Y495400D01*
Y497740D01*
X846484Y500001D01*
X845314Y502029D01*
X843659Y503684D01*
X841631Y504854D01*
X839370Y505460D01*
X837030D01*
X835064Y504933D01*
X834607Y505239D01*
X833120Y505535D01*
X826570D01*
Y510940D01*
X812990D01*
Y492360D01*
X826570D01*
Y497765D01*
X829291D01*
X829310Y497740D01*
Y495400D01*
X829916Y493139D01*
X831086Y491111D01*
X832741Y489456D01*
X834769Y488286D01*
X836751Y487755D01*
X836584Y486485D01*
X795205D01*
X753023Y528667D01*
X753509Y529840D01*
X759986D01*
X785443Y504383D01*
X786703Y503541D01*
X788190Y503245D01*
X796490D01*
Y492360D01*
X810070D01*
Y510940D01*
X800675D01*
X800300Y511015D01*
X789799D01*
X787712Y513102D01*
X788198Y514275D01*
X836712D01*
X838199Y514571D01*
X839459Y515413D01*
X843487Y519441D01*
X844329Y520701D01*
X844625Y522188D01*
Y523960D01*
X846880D01*
Y541795D01*
X848150Y542321D01*
X863354Y527118D01*
D02*
G37*
D13*
X755206Y587114D02*
X755690Y586630D01*
X769730D01*
X898525Y571925D02*
Y594995D01*
X897890Y571290D02*
X898525Y571925D01*
Y594995D02*
X899160Y595630D01*
X756450Y559870D02*
X911860D01*
X896410Y572770D02*
X897890Y571290D01*
X892810Y572770D02*
X896410D01*
X833120Y501650D02*
X838200Y496570D01*
X819780Y501650D02*
X833120D01*
X780256Y472440D02*
X875864D01*
X706045Y546650D02*
X780256Y472440D01*
X875864D02*
X945124Y541700D01*
X760690Y534630D02*
X788190Y507130D01*
X800300D02*
X803280Y504150D01*
X755690Y534630D02*
X760690D01*
X788190Y507130D02*
X800300D01*
X803280Y501650D02*
Y504150D01*
X878840Y482600D02*
X899378Y503138D01*
X745170Y531025D02*
X793596Y482600D01*
X878840D01*
X761670Y548610D02*
X768320D01*
X769620Y549910D01*
X755690Y547630D02*
X760690D01*
X761670Y548610D01*
X856930Y564950D02*
X863875Y571895D01*
X911860Y559870D02*
X924020Y572030D01*
X791771Y564950D02*
X856930D01*
X755690Y560630D02*
X756450Y559870D01*
X786786Y577120D02*
X793876Y570030D01*
X789591Y567130D02*
X791771Y564950D01*
X793876Y570030D02*
X854826D01*
X857250Y572454D01*
X755690Y580130D02*
X756130Y579690D01*
X768195Y577120D02*
X786786D01*
X756130Y579690D02*
X765625D01*
X768195Y577120D01*
X743700Y632460D02*
Y632960D01*
Y631960D02*
Y632460D01*
X755690Y573630D02*
Y580130D01*
X754710Y572650D02*
X755690Y573630D01*
X868680Y513080D02*
X869950Y514350D01*
X1082040Y555610D02*
X1083960Y557530D01*
X1026160Y548130D02*
Y557530D01*
X1019730Y541700D02*
X1026160Y548130D01*
X945124Y541700D02*
X1019730D01*
X1026160Y557530D02*
Y566930D01*
X970820Y763810D02*
X971550Y764540D01*
X800310Y543030D02*
X802640Y540700D01*
Y535400D02*
Y540700D01*
X836712Y518160D02*
X840740Y522188D01*
Y535400D01*
X924020Y593090D02*
Y605790D01*
Y618490D01*
X970820Y580390D02*
X971550Y579660D01*
X924020Y572030D02*
Y580390D01*
X907290Y629920D02*
X918720Y618490D01*
X863202Y629920D02*
X907290D01*
X918720Y618490D02*
X924020D01*
X878300Y584320D02*
X881780Y580840D01*
Y579850D02*
Y580840D01*
X876300Y584320D02*
X878300D01*
X897498Y546908D02*
X897890Y547300D01*
X870820Y602800D02*
X874300Y599320D01*
X867410Y608210D02*
Y619760D01*
X874300Y599320D02*
X876300D01*
X870820Y602800D02*
Y604800D01*
X867410Y608210D02*
X870820Y604800D01*
X857250Y572454D02*
Y623968D01*
X874300Y584320D02*
X876300D01*
X863875Y573895D02*
X874300Y584320D01*
X863875Y571895D02*
Y573895D01*
X857250Y623968D02*
X863202Y629920D01*
X899378Y503138D02*
Y512470D01*
X897498Y514350D02*
X899378Y512470D01*
X786284Y518160D02*
X836712D01*
X764294Y540150D02*
X786284Y518160D01*
X755690Y567130D02*
X789591D01*
X755690Y541130D02*
X756670Y540150D01*
X764294D01*
X649819Y563240D02*
X662940D01*
X644099Y568960D02*
X649819Y563240D01*
X641350Y568960D02*
X644099D01*
X626740Y546100D02*
X627380Y546740D01*
X662940D01*
X677500D02*
X683110Y541130D01*
X662940Y546740D02*
X677500D01*
X683110Y541130D02*
X697190D01*
X662940Y563240D02*
X675750D01*
X684860Y554130D01*
X697190D01*
X733220Y643440D02*
X743700Y632960D01*
X685800Y507960D02*
X697190Y519350D01*
X685800Y505460D02*
Y507960D01*
X697190Y519350D02*
Y534630D01*
X671710Y593090D02*
X671750Y593130D01*
X697190D01*
X654050Y505460D02*
X669300D01*
X638930Y505580D02*
X639050Y505460D01*
X654050D02*
X654680Y506090D01*
X666710Y527050D02*
X685800Y507960D01*
X653930Y527050D02*
X666710D01*
X638820Y527160D02*
X638930Y527050D01*
X638820Y527160D02*
Y529160D01*
X745170Y570735D02*
X747086Y572650D01*
X726440Y563880D02*
X743682D01*
X745170Y565368D01*
Y570735D01*
X747086Y572650D02*
X754710D01*
X692190Y534630D02*
X697190D01*
X698170Y546650D02*
X706045D01*
X754710Y553150D02*
X755690Y554130D01*
X747086Y553150D02*
X754710D01*
X745170Y551235D02*
X747086Y553150D01*
X745170Y531025D02*
Y551235D01*
D15*
X819780Y501650D02*
D03*
X803280D02*
D03*
X626740Y546100D02*
D03*
X610240D02*
D03*
X685800Y505460D02*
D03*
X669300D02*
D03*
D16*
X802640Y535400D02*
D03*
X815340D02*
D03*
X828040D02*
D03*
X840740D02*
D03*
X802640Y582200D02*
D03*
X815340D02*
D03*
X828040D02*
D03*
X840740D02*
D03*
D17*
X743700Y632460D02*
D03*
X805700D02*
D03*
D18*
X884950Y514350D02*
D03*
X869950D02*
D03*
X654050Y505460D02*
D03*
X639050D02*
D03*
X638930Y527050D02*
D03*
X653930D02*
D03*
X671710Y593090D02*
D03*
X656710D02*
D03*
D19*
X726440Y563880D02*
D03*
D20*
X755690Y593130D02*
D03*
Y586630D02*
D03*
Y580130D02*
D03*
Y573630D02*
D03*
Y567130D02*
D03*
Y560630D02*
D03*
Y554130D02*
D03*
Y547630D02*
D03*
Y541130D02*
D03*
Y534630D02*
D03*
X697190D02*
D03*
Y541130D02*
D03*
Y547630D02*
D03*
Y554130D02*
D03*
Y560630D02*
D03*
Y567130D02*
D03*
Y573630D02*
D03*
Y580130D02*
D03*
Y586630D02*
D03*
Y593130D02*
D03*
D21*
X924020Y618490D02*
D03*
Y605790D02*
D03*
Y593090D02*
D03*
Y580390D02*
D03*
X970820Y618490D02*
D03*
Y605790D02*
D03*
Y593090D02*
D03*
Y580390D02*
D03*
D22*
X662940Y563240D02*
D03*
Y546740D02*
D03*
D23*
X1026160Y557530D02*
D03*
X1083960D02*
D03*
D24*
X1074700Y764540D02*
D03*
X971550D02*
D03*
D25*
X876300Y584320D02*
D03*
Y599320D02*
D03*
D26*
X897890Y547300D02*
D03*
Y570300D02*
D03*
D43*
X769730Y586630D02*
X777240Y594140D01*
Y604520D01*
X735330D02*
X777240D01*
X729109Y610741D02*
Y617369D01*
X743700Y631960D01*
X729109Y610741D02*
X735330Y604520D01*
X886466Y572770D02*
X892810D01*
X881780Y577456D02*
X886466Y572770D01*
X769620Y549910D02*
X784860D01*
X846825Y550300D02*
X847215Y549910D01*
X849890D01*
X869950Y529850D01*
X784860Y549910D02*
X791740Y543030D01*
X834265Y549910D02*
X834655Y550300D01*
X791740Y543030D02*
X800310D01*
X834655Y550300D02*
X846825D01*
X784860Y549910D02*
X834265D01*
X881780Y577456D02*
Y579850D01*
X770890Y585470D02*
X802240D01*
X802640Y582200D02*
Y585070D01*
X802240Y585470D02*
X802640Y585070D01*
X685800Y666750D02*
X709910D01*
X733220Y643440D01*
X769730Y586630D02*
X770890Y585470D01*
X828040Y582200D02*
X836930D01*
X815340D02*
X828040D01*
X802640D02*
X815340D01*
X853440Y513080D02*
X868680D01*
X1198410Y532130D02*
X1250950D01*
X1160780Y569760D02*
X1198410Y532130D01*
X1112990Y521970D02*
X1160780Y569760D01*
X1082040Y521970D02*
X1112990D01*
X1082040D02*
Y555610D01*
X1074700Y615470D02*
Y764540D01*
X1026160Y566930D02*
X1074700Y615470D01*
X970820Y618490D02*
Y763810D01*
X884950Y514350D02*
X897498D01*
X815340Y535400D02*
X828040D01*
X802640D02*
X815340D01*
X869950Y514350D02*
Y529850D01*
X971550Y563880D02*
Y579660D01*
X970820Y580390D02*
Y593090D01*
Y605790D01*
Y618490D01*
X897498Y514350D02*
Y546908D01*
D44*
X1250950Y532130D02*
D03*
D45*
Y557530D02*
D03*
X660400Y666750D02*
D03*
D46*
X685800D02*
D03*
D47*
X1160780Y619760D02*
D03*
D48*
Y569760D02*
D03*
D49*
X899160Y595630D02*
D03*
X838200Y496570D02*
D03*
X853440Y513080D02*
D03*
X1082040Y521970D02*
D03*
X971550Y563880D02*
D03*
X867410Y619760D02*
D03*
X840740D02*
D03*
X641350Y568960D02*
D03*
M02*
