G04*
G04 #@! TF.GenerationSoftware,Altium Limited,Altium Designer,24.0.1 (36)*
G04*
G04 Layer_Color=8388736*
%FSLAX44Y44*%
%MOMM*%
G71*
G04*
G04 #@! TF.SameCoordinates,5D675279-D88B-4D66-B6F5-DA5342284FE9*
G04*
G04*
G04 #@! TF.FilePolarity,Negative*
G04*
G01*
G75*
%ADD17R,0.9500X1.3500*%
%ADD25R,1.3500X0.9500*%
%ADD27R,0.9232X1.9832*%
%ADD28R,2.5532X2.6532*%
%ADD29R,2.9432X4.0632*%
%ADD30R,1.6532X0.6532*%
%ADD31R,1.9832X0.9232*%
%ADD32R,1.5532X1.0532*%
%ADD33R,1.0532X1.5532*%
%ADD34R,1.7432X3.6232*%
%ADD35R,3.2032X3.0032*%
%ADD36R,0.7532X1.2532*%
%ADD37R,1.8032X1.8032*%
%ADD38C,1.8032*%
%ADD39R,1.8032X1.8032*%
%ADD40R,1.4032X1.4032*%
%ADD41C,1.4032*%
%ADD42C,1.4732*%
D17*
X884950Y514350D02*
D03*
X869950D02*
D03*
X654050Y505460D02*
D03*
X639050D02*
D03*
X638930Y527050D02*
D03*
X653930D02*
D03*
X671710Y593090D02*
D03*
X656710D02*
D03*
D25*
X876300Y584320D02*
D03*
Y599320D02*
D03*
D27*
X840740Y582200D02*
D03*
X828040D02*
D03*
X815340D02*
D03*
X802640D02*
D03*
X840740Y535400D02*
D03*
X828040D02*
D03*
X815340D02*
D03*
X802640D02*
D03*
D28*
X743700Y632460D02*
D03*
X805700D02*
D03*
D29*
X726440Y563880D02*
D03*
D30*
X755690Y593130D02*
D03*
Y586630D02*
D03*
Y580130D02*
D03*
Y573630D02*
D03*
Y567130D02*
D03*
Y560630D02*
D03*
Y554130D02*
D03*
Y547630D02*
D03*
Y541130D02*
D03*
Y534630D02*
D03*
X697190D02*
D03*
Y541130D02*
D03*
Y547630D02*
D03*
Y554130D02*
D03*
Y560630D02*
D03*
Y567130D02*
D03*
Y573630D02*
D03*
Y580130D02*
D03*
Y586630D02*
D03*
Y593130D02*
D03*
D31*
X924020Y618490D02*
D03*
Y605790D02*
D03*
Y593090D02*
D03*
Y580390D02*
D03*
X970820Y618490D02*
D03*
Y605790D02*
D03*
Y593090D02*
D03*
Y580390D02*
D03*
D32*
X662940Y563240D02*
D03*
Y546740D02*
D03*
D33*
X626740Y546100D02*
D03*
X610240D02*
D03*
X685800Y505460D02*
D03*
X669300D02*
D03*
D34*
X1026160Y557530D02*
D03*
X1083960D02*
D03*
D35*
X1074700Y764540D02*
D03*
X971550D02*
D03*
D36*
X897890Y547300D02*
D03*
Y570300D02*
D03*
D37*
X1250950Y532130D02*
D03*
D38*
Y557530D02*
D03*
X660400Y666750D02*
D03*
D39*
X685800D02*
D03*
D40*
X1160780Y619760D02*
D03*
D41*
Y569760D02*
D03*
D42*
X853440Y513080D02*
D03*
X1082040Y521970D02*
D03*
X971550Y563880D02*
D03*
X867410Y619760D02*
D03*
X840740D02*
D03*
X641350Y568960D02*
D03*
M02*
