G04*
G04 #@! TF.GenerationSoftware,Altium Limited,Altium Designer,24.0.1 (36)*
G04*
G04 Layer_Color=32896*
%FSLAX44Y44*%
%MOMM*%
G71*
G04*
G04 #@! TF.SameCoordinates,861917B8-4398-4D05-8FE2-F05A855006CB*
G04*
G04*
G04 #@! TF.FilePolarity,Positive*
G04*
G01*
G75*
G36*
X635494Y640588D02*
X576907D01*
Y739648D01*
X635494D01*
Y640588D01*
D02*
G37*
%LPC*%
G36*
X633512Y739365D02*
X632946D01*
Y738799D01*
X632805D01*
Y737808D01*
X632663D01*
Y737242D01*
X632522D01*
Y736959D01*
X632663D01*
Y736110D01*
X632805D01*
Y735827D01*
X632946D01*
Y735969D01*
X633229D01*
Y736110D01*
X633654D01*
Y735969D01*
X633937D01*
Y736393D01*
X633795D01*
Y736676D01*
X633654D01*
Y736393D01*
X633512D01*
Y736252D01*
X633229D01*
Y736393D01*
X633088D01*
Y736818D01*
X632946D01*
Y737242D01*
X633088D01*
Y738233D01*
X632946D01*
Y738374D01*
X633088D01*
Y738516D01*
X633371D01*
Y738233D01*
X633512D01*
Y737384D01*
X633654D01*
Y737525D01*
X633795D01*
Y738233D01*
X634078D01*
Y738657D01*
X633937D01*
Y739082D01*
X633795D01*
Y739223D01*
X633512D01*
Y739365D01*
D02*
G37*
G36*
X631956Y737101D02*
X631814D01*
Y736959D01*
Y736818D01*
X631956D01*
Y736676D01*
X632097D01*
Y736818D01*
X632239D01*
Y736959D01*
X631956D01*
Y737101D01*
D02*
G37*
G36*
X634644Y737950D02*
X634361D01*
Y737808D01*
X634220D01*
Y737101D01*
X634361D01*
Y736393D01*
X634503D01*
Y736959D01*
Y737101D01*
Y737242D01*
X634644D01*
Y737950D01*
D02*
G37*
G36*
X632097Y736393D02*
X631956D01*
Y736252D01*
X631814D01*
Y736110D01*
X631673D01*
Y735686D01*
X631814D01*
Y735261D01*
X631956D01*
Y735544D01*
X632097D01*
Y736252D01*
Y736393D01*
D02*
G37*
G36*
X631956Y734978D02*
X631814D01*
Y734695D01*
X631956D01*
Y734978D01*
D02*
G37*
G36*
X631107Y734695D02*
X630965D01*
Y734129D01*
X631107D01*
Y733846D01*
X631248D01*
Y733563D01*
X631390D01*
Y733421D01*
X631531D01*
Y733138D01*
X631673D01*
Y732572D01*
X631814D01*
Y732289D01*
X631956D01*
Y732006D01*
X632097D01*
Y731865D01*
X632239D01*
Y731723D01*
X632380D01*
Y731582D01*
X632522D01*
Y731440D01*
X632663D01*
Y731157D01*
X632805D01*
Y731016D01*
X632946D01*
Y730733D01*
X632805D01*
Y730450D01*
X632663D01*
Y730166D01*
X632522D01*
Y730025D01*
X632380D01*
Y729883D01*
X632239D01*
Y729742D01*
X632097D01*
Y729459D01*
X631956D01*
Y729317D01*
X631814D01*
Y729176D01*
X631673D01*
Y728751D01*
X631814D01*
Y728610D01*
X631956D01*
Y728468D01*
X632097D01*
Y728327D01*
X632239D01*
Y728185D01*
X632380D01*
Y728044D01*
X632522D01*
Y727902D01*
X632805D01*
Y727761D01*
X632946D01*
Y727619D01*
X633088D01*
Y727478D01*
X633229D01*
Y727336D01*
X633371D01*
Y727053D01*
X633795D01*
Y728185D01*
X633512D01*
Y728044D01*
X633371D01*
Y727902D01*
X633229D01*
Y727761D01*
X633088D01*
Y728185D01*
X633229D01*
Y728327D01*
X633371D01*
Y728468D01*
X633795D01*
Y728185D01*
X633937D01*
Y728610D01*
X634078D01*
Y728893D01*
X634220D01*
Y729034D01*
X634361D01*
Y729459D01*
X634503D01*
Y729883D01*
X634361D01*
Y730025D01*
X634644D01*
Y730166D01*
X634786D01*
Y730308D01*
X634927D01*
Y730591D01*
X635069D01*
Y730874D01*
X635210D01*
Y731157D01*
X634927D01*
Y731440D01*
X634786D01*
Y731299D01*
X634361D01*
Y731440D01*
X634078D01*
Y731299D01*
X633795D01*
Y731440D01*
X633512D01*
Y731582D01*
X633229D01*
Y731723D01*
X632946D01*
Y731865D01*
X632805D01*
Y732006D01*
X632663D01*
Y732148D01*
X632522D01*
Y732289D01*
X632380D01*
Y732572D01*
X632097D01*
Y732714D01*
X631956D01*
Y732855D01*
X631814D01*
Y733138D01*
X631673D01*
Y733704D01*
X631531D01*
Y733987D01*
X631390D01*
Y734270D01*
X631248D01*
Y734412D01*
X631107D01*
Y734695D01*
D02*
G37*
G36*
X632380Y726629D02*
X632239D01*
Y726487D01*
X632380D01*
Y726346D01*
X632522D01*
Y725780D01*
X632805D01*
Y726063D01*
X632946D01*
Y726204D01*
Y726346D01*
X632805D01*
Y726487D01*
X632380D01*
Y726629D01*
D02*
G37*
G36*
X630116Y727053D02*
X629974D01*
Y726912D01*
X629833D01*
Y726770D01*
X629550D01*
Y726629D01*
X629408D01*
Y726487D01*
X629267D01*
Y726346D01*
X629125D01*
Y726204D01*
X628984D01*
Y726063D01*
X628842D01*
Y725921D01*
X628701D01*
Y725780D01*
X628559D01*
Y725638D01*
X628418D01*
Y725497D01*
X628276D01*
Y725355D01*
X628135D01*
Y725213D01*
X627993D01*
Y725072D01*
X627852D01*
Y724930D01*
X627710D01*
Y724789D01*
X627569D01*
Y724648D01*
X627427D01*
Y724506D01*
X627286D01*
Y724364D01*
X627144D01*
Y724223D01*
X627003D01*
Y724081D01*
X626861D01*
Y723798D01*
X626720D01*
Y723657D01*
X626578D01*
Y723515D01*
X626437D01*
Y723374D01*
X626295D01*
Y723091D01*
X626154D01*
Y722808D01*
X626012D01*
Y722666D01*
X625871D01*
Y722525D01*
X625729D01*
Y722383D01*
X625588D01*
Y722242D01*
X625446D01*
Y722100D01*
X625304D01*
Y721959D01*
X625163D01*
Y721817D01*
X625021D01*
Y721676D01*
X624880D01*
Y721534D01*
X624597D01*
Y721393D01*
X624455D01*
Y721251D01*
X624314D01*
Y721110D01*
X624031D01*
Y720968D01*
X623889D01*
Y720827D01*
X623748D01*
Y720685D01*
X623606D01*
Y720544D01*
X623465D01*
Y720402D01*
X623323D01*
Y720119D01*
X623182D01*
Y719977D01*
X623040D01*
Y719836D01*
X622899D01*
Y719553D01*
X622757D01*
Y719411D01*
X622474D01*
Y719270D01*
X622333D01*
Y719128D01*
X622191D01*
Y718987D01*
X622050D01*
Y718845D01*
X621767D01*
Y718704D01*
X621625D01*
Y718562D01*
X621484D01*
Y718421D01*
X621342D01*
Y718279D01*
X621201D01*
Y718138D01*
X621059D01*
Y717996D01*
X620918D01*
Y717855D01*
X620776D01*
Y717713D01*
X620634D01*
Y717572D01*
X620351D01*
Y717430D01*
X620210D01*
Y717289D01*
X619927D01*
Y717147D01*
X619785D01*
Y717006D01*
X619644D01*
Y716864D01*
X619502D01*
Y716723D01*
X619219D01*
Y716581D01*
X619078D01*
Y716440D01*
X618936D01*
Y716298D01*
X618795D01*
Y716157D01*
X618653D01*
Y715732D01*
X618512D01*
Y715591D01*
X618370D01*
Y715449D01*
X618087D01*
Y715307D01*
X617804D01*
Y715166D01*
X617380D01*
Y715024D01*
X617097D01*
Y715166D01*
X616955D01*
Y715307D01*
X616814D01*
Y715449D01*
X616672D01*
Y715166D01*
X616531D01*
Y714883D01*
X616389D01*
Y714742D01*
X615965D01*
Y715024D01*
X616106D01*
Y715307D01*
X616248D01*
Y715449D01*
X616389D01*
Y716015D01*
X616531D01*
Y716298D01*
X616672D01*
Y716015D01*
X616955D01*
Y717006D01*
X617097D01*
Y717289D01*
X617238D01*
Y717572D01*
X617380D01*
Y717855D01*
X617521D01*
Y718138D01*
X617663D01*
Y718562D01*
X617804D01*
Y718987D01*
X617946D01*
Y719553D01*
X618087D01*
Y720544D01*
X617946D01*
Y720827D01*
X618087D01*
Y721110D01*
X617946D01*
Y721534D01*
X617804D01*
Y721676D01*
X617663D01*
Y721959D01*
X617521D01*
Y722100D01*
X617380D01*
Y722242D01*
X617238D01*
Y722383D01*
X617097D01*
Y722525D01*
X616955D01*
Y722808D01*
X616814D01*
Y722949D01*
X616531D01*
Y723091D01*
X616389D01*
Y723232D01*
X616248D01*
Y723374D01*
X616106D01*
Y723515D01*
X615823D01*
Y723657D01*
X615681D01*
Y723798D01*
X615398D01*
Y723940D01*
X615257D01*
Y724081D01*
X614974D01*
Y724223D01*
X614549D01*
Y724364D01*
X612851D01*
Y724223D01*
X611861D01*
Y724081D01*
X611719D01*
Y723798D01*
X611578D01*
Y723657D01*
X611436D01*
Y723515D01*
X611295D01*
Y723374D01*
X611012D01*
Y723515D01*
X610162D01*
Y723374D01*
X610021D01*
Y723232D01*
X609879D01*
Y723091D01*
X609596D01*
Y722949D01*
X609455D01*
Y722808D01*
X609313D01*
Y722666D01*
X609172D01*
Y722383D01*
X609030D01*
Y722100D01*
X608889D01*
Y721817D01*
X608747D01*
Y721534D01*
X608606D01*
Y721251D01*
X608464D01*
Y720827D01*
X608323D01*
Y718562D01*
X608464D01*
Y718279D01*
X608323D01*
Y717855D01*
X608606D01*
Y717289D01*
X608889D01*
Y717430D01*
X609030D01*
Y717572D01*
X609172D01*
Y717006D01*
X609030D01*
Y716723D01*
X609172D01*
Y716298D01*
X609030D01*
Y715874D01*
X608747D01*
Y715732D01*
X608606D01*
Y715307D01*
X608747D01*
Y713751D01*
X608889D01*
Y713609D01*
X609030D01*
Y713468D01*
X609172D01*
Y713185D01*
X609313D01*
Y713043D01*
X609455D01*
Y712902D01*
X609596D01*
Y712760D01*
X609738D01*
Y712619D01*
X609879D01*
Y712477D01*
X610021D01*
Y712336D01*
X610162D01*
Y712194D01*
X610304D01*
Y712053D01*
X610446D01*
Y711911D01*
X610587D01*
Y711770D01*
X610728D01*
Y711628D01*
X610870D01*
Y711487D01*
X611012D01*
Y711345D01*
X611153D01*
Y711204D01*
X611295D01*
Y711062D01*
X611436D01*
Y710921D01*
X611578D01*
Y710779D01*
X611295D01*
Y710638D01*
X611153D01*
Y710496D01*
X611012D01*
Y710355D01*
X610870D01*
Y710213D01*
X610728D01*
Y710071D01*
X610870D01*
Y709930D01*
X611012D01*
Y709789D01*
X611153D01*
Y709505D01*
X611295D01*
Y708656D01*
X611436D01*
Y708232D01*
X611295D01*
Y707949D01*
X611012D01*
Y707666D01*
X610870D01*
Y707524D01*
X610728D01*
Y707383D01*
X610587D01*
Y707241D01*
X610446D01*
Y706958D01*
X610304D01*
Y706817D01*
X610162D01*
Y706534D01*
X610021D01*
Y706251D01*
X609879D01*
Y705826D01*
X609738D01*
Y705402D01*
X609596D01*
Y704836D01*
X609313D01*
Y705118D01*
X609172D01*
Y705543D01*
X609030D01*
Y705826D01*
X608889D01*
Y706109D01*
X608747D01*
Y706817D01*
X608606D01*
Y708373D01*
X608464D01*
Y708939D01*
X608606D01*
Y709364D01*
X609455D01*
Y709222D01*
X609738D01*
Y709081D01*
X609879D01*
Y709222D01*
X609738D01*
Y709364D01*
X609879D01*
Y709505D01*
X610021D01*
Y709647D01*
X609879D01*
Y709789D01*
X610021D01*
Y709930D01*
X609455D01*
Y710071D01*
X608747D01*
Y710213D01*
X608606D01*
Y710638D01*
X608464D01*
Y710779D01*
X608323D01*
Y710921D01*
X608181D01*
Y711345D01*
X608040D01*
Y712053D01*
X608181D01*
Y712336D01*
X608040D01*
Y712760D01*
X608181D01*
Y713326D01*
X608323D01*
Y714034D01*
X608464D01*
Y714317D01*
X608323D01*
Y714175D01*
X607615D01*
Y714034D01*
X607049D01*
Y713892D01*
X606625D01*
Y713751D01*
X606342D01*
Y713609D01*
X606059D01*
Y713468D01*
X605493D01*
Y713326D01*
X604785D01*
Y713185D01*
X604360D01*
Y713043D01*
X603936D01*
Y712902D01*
X603370D01*
Y712760D01*
X602945D01*
Y712902D01*
X602096D01*
Y712760D01*
X601813D01*
Y712619D01*
X601672D01*
Y712477D01*
X601530D01*
Y712336D01*
X601247D01*
Y712194D01*
X601105D01*
Y712053D01*
X600964D01*
Y711911D01*
X600822D01*
Y711770D01*
X600540D01*
Y711628D01*
X600256D01*
Y711487D01*
X599973D01*
Y711345D01*
X599832D01*
Y711204D01*
X599549D01*
Y711062D01*
X599407D01*
Y710921D01*
X599124D01*
Y710779D01*
X598983D01*
Y710638D01*
X598841D01*
Y710496D01*
X598417D01*
Y710355D01*
X598275D01*
Y710213D01*
X598134D01*
Y710071D01*
X597851D01*
Y709930D01*
X597709D01*
Y709789D01*
X597568D01*
Y709647D01*
X597426D01*
Y709505D01*
X597285D01*
Y709364D01*
X597143D01*
Y709222D01*
X597002D01*
Y709081D01*
X596860D01*
Y708939D01*
X596719D01*
Y708798D01*
X596436D01*
Y708656D01*
X596294D01*
Y708515D01*
X596011D01*
Y708373D01*
X595445D01*
Y708090D01*
X595020D01*
Y707949D01*
X594737D01*
Y707807D01*
X594596D01*
Y707666D01*
X594454D01*
Y707524D01*
X594313D01*
Y707383D01*
X594030D01*
Y707241D01*
X593747D01*
Y707100D01*
X593605D01*
Y706958D01*
X593322D01*
Y706817D01*
X593181D01*
Y706675D01*
X593039D01*
Y706534D01*
X592898D01*
Y706392D01*
X592615D01*
Y706251D01*
X592473D01*
Y706109D01*
X592332D01*
Y705968D01*
X592049D01*
Y705826D01*
X591907D01*
Y705685D01*
X591766D01*
Y705402D01*
X591483D01*
Y705260D01*
X591341D01*
Y705118D01*
X591058D01*
Y704977D01*
X590634D01*
Y704836D01*
X590492D01*
Y704694D01*
X590350D01*
Y704553D01*
X590209D01*
Y704411D01*
X590067D01*
Y704269D01*
X589784D01*
Y704128D01*
X589643D01*
Y703986D01*
X589360D01*
Y703703D01*
X589077D01*
Y703562D01*
X588935D01*
Y703420D01*
X588794D01*
Y703279D01*
X588652D01*
Y703137D01*
X588511D01*
Y702996D01*
X588369D01*
Y702854D01*
X588228D01*
Y702713D01*
X588086D01*
Y702571D01*
X587945D01*
Y702430D01*
X587803D01*
Y702288D01*
X587662D01*
Y702147D01*
X587520D01*
Y702005D01*
X587379D01*
Y701864D01*
X587096D01*
Y701722D01*
X586954D01*
Y701581D01*
X586813D01*
Y701439D01*
X586671D01*
Y701298D01*
X586530D01*
Y701156D01*
X586388D01*
Y701015D01*
X586246D01*
Y700873D01*
X586105D01*
Y700732D01*
X585964D01*
Y700590D01*
X585822D01*
Y700449D01*
X585681D01*
Y700307D01*
X585539D01*
Y700165D01*
X585397D01*
Y700024D01*
X585256D01*
Y699883D01*
X585114D01*
Y699741D01*
X584973D01*
Y699600D01*
X584831D01*
Y699458D01*
X584690D01*
Y699316D01*
X584548D01*
Y699175D01*
X584407D01*
Y699033D01*
X584265D01*
Y698892D01*
X584124D01*
Y698750D01*
X583982D01*
Y698609D01*
X583841D01*
Y698467D01*
X583699D01*
Y698326D01*
X583558D01*
Y698043D01*
X583416D01*
Y697901D01*
X583275D01*
Y697760D01*
X583133D01*
Y697618D01*
X582992D01*
Y697477D01*
X582850D01*
Y697335D01*
X582709D01*
Y697194D01*
X582567D01*
Y697052D01*
X582426D01*
Y696911D01*
X582284D01*
Y696769D01*
X582143D01*
Y696628D01*
X582001D01*
Y696486D01*
X581860D01*
Y696345D01*
X581718D01*
Y696203D01*
X581577D01*
Y696062D01*
X581435D01*
Y695920D01*
X581293D01*
Y695637D01*
X581152D01*
Y695496D01*
X581011D01*
Y695354D01*
X580869D01*
Y695212D01*
X580728D01*
Y695071D01*
X580586D01*
Y694930D01*
X580444D01*
Y694788D01*
X580303D01*
Y694647D01*
X580161D01*
Y694505D01*
X580020D01*
Y693797D01*
X580161D01*
Y693514D01*
X580303D01*
Y693373D01*
X580444D01*
Y693231D01*
X580586D01*
Y692948D01*
X580728D01*
Y692807D01*
X580869D01*
Y692665D01*
X581011D01*
Y692524D01*
X581152D01*
Y692382D01*
X581293D01*
Y692241D01*
X581435D01*
Y692099D01*
X581577D01*
Y691958D01*
X581718D01*
Y691816D01*
X582001D01*
Y691675D01*
X582143D01*
Y691533D01*
X582426D01*
Y691392D01*
X582709D01*
Y691250D01*
X582992D01*
Y691109D01*
X583133D01*
Y691250D01*
X583275D01*
Y691533D01*
X583416D01*
Y691675D01*
X583558D01*
Y691816D01*
X583699D01*
Y691958D01*
X583841D01*
Y692099D01*
X583982D01*
Y692382D01*
X584124D01*
Y692524D01*
X584265D01*
Y692665D01*
X584407D01*
Y692807D01*
X584548D01*
Y693090D01*
X584690D01*
Y693231D01*
X584831D01*
Y693514D01*
X584973D01*
Y693656D01*
X585114D01*
Y693797D01*
X585256D01*
Y693939D01*
X585397D01*
Y694080D01*
X585539D01*
Y694222D01*
X585681D01*
Y694363D01*
X585822D01*
Y694505D01*
X585964D01*
Y694647D01*
X586105D01*
Y694788D01*
X586246D01*
Y694930D01*
X586388D01*
Y695071D01*
X586530D01*
Y695212D01*
X586671D01*
Y695354D01*
X586813D01*
Y695496D01*
X586954D01*
Y695637D01*
X587096D01*
Y695779D01*
X587379D01*
Y695920D01*
X587520D01*
Y696062D01*
X587662D01*
Y696203D01*
X587803D01*
Y696345D01*
X587945D01*
Y696486D01*
X588086D01*
Y696628D01*
X588228D01*
Y696769D01*
X588511D01*
Y696911D01*
X588652D01*
Y697052D01*
X588794D01*
Y697194D01*
X589077D01*
Y697335D01*
X589218D01*
Y697477D01*
X589360D01*
Y697618D01*
X589501D01*
Y697760D01*
X589643D01*
Y697901D01*
X589926D01*
Y698043D01*
X590067D01*
Y698184D01*
X590350D01*
Y698326D01*
X590492D01*
Y698467D01*
X590775D01*
Y698609D01*
X590916D01*
Y698750D01*
X591199D01*
Y698892D01*
X591341D01*
Y699033D01*
X591624D01*
Y699175D01*
X591907D01*
Y699316D01*
X592049D01*
Y699458D01*
X592332D01*
Y699600D01*
X592473D01*
Y699741D01*
X592756D01*
Y699883D01*
X592898D01*
Y700024D01*
X593181D01*
Y700165D01*
X593464D01*
Y700307D01*
X593605D01*
Y700449D01*
X593888D01*
Y700590D01*
X594030D01*
Y700732D01*
X594313D01*
Y700873D01*
X594596D01*
Y701015D01*
X594879D01*
Y701156D01*
X595020D01*
Y701298D01*
X595445D01*
Y701439D01*
X595728D01*
Y701581D01*
X595869D01*
Y701722D01*
X596294D01*
Y701864D01*
X596577D01*
Y702005D01*
X596719D01*
Y702147D01*
X597143D01*
Y702288D01*
X597426D01*
Y702430D01*
X597851D01*
Y702571D01*
X598134D01*
Y702713D01*
X598558D01*
Y702854D01*
X598983D01*
Y702996D01*
X599266D01*
Y703137D01*
X599690D01*
Y703279D01*
X600115D01*
Y703420D01*
X600964D01*
Y702571D01*
X601105D01*
Y702147D01*
X601247D01*
Y701439D01*
X601389D01*
Y700590D01*
X601530D01*
Y699600D01*
X601672D01*
Y698609D01*
X601813D01*
Y697618D01*
X601955D01*
Y695354D01*
X602096D01*
Y692948D01*
X601955D01*
Y692807D01*
X601813D01*
Y692665D01*
X601672D01*
Y692524D01*
X601105D01*
Y692382D01*
X600540D01*
Y692241D01*
X600398D01*
Y692099D01*
X600256D01*
Y691958D01*
X599973D01*
Y691816D01*
X599549D01*
Y691675D01*
X599124D01*
Y691533D01*
X598983D01*
Y691392D01*
X598841D01*
Y691250D01*
X598700D01*
Y691109D01*
X598558D01*
Y690967D01*
X598417D01*
Y690684D01*
X598275D01*
Y690543D01*
X598134D01*
Y690118D01*
X597992D01*
Y688986D01*
X597851D01*
Y686297D01*
X597709D01*
Y685165D01*
X597568D01*
Y684316D01*
X597426D01*
Y683325D01*
X597709D01*
Y683467D01*
X597851D01*
Y681627D01*
X597992D01*
Y680495D01*
X598134D01*
Y680212D01*
X598275D01*
Y679929D01*
X598417D01*
Y679504D01*
X598558D01*
Y679080D01*
X598700D01*
Y678797D01*
X598841D01*
Y678514D01*
X598983D01*
Y678231D01*
X599124D01*
Y677948D01*
X599266D01*
Y677665D01*
X599407D01*
Y677523D01*
X599549D01*
Y677240D01*
X599690D01*
Y676957D01*
X599832D01*
Y676674D01*
X599973D01*
Y676391D01*
X600115D01*
Y676108D01*
X600256D01*
Y675825D01*
X600115D01*
Y675400D01*
X599973D01*
Y674835D01*
X599832D01*
Y674268D01*
X599690D01*
Y673985D01*
X599549D01*
Y673561D01*
X599407D01*
Y673278D01*
X599266D01*
Y673136D01*
X599124D01*
Y672570D01*
X598983D01*
Y672429D01*
X598841D01*
Y672004D01*
X598700D01*
Y671580D01*
X598558D01*
Y671155D01*
X598417D01*
Y670872D01*
X598275D01*
Y670731D01*
X598134D01*
Y670447D01*
X597992D01*
Y670023D01*
X597851D01*
Y669598D01*
X597709D01*
Y669315D01*
X597568D01*
Y669174D01*
X597426D01*
Y669032D01*
X597285D01*
Y668891D01*
X597143D01*
Y668749D01*
X597002D01*
Y668608D01*
X596860D01*
Y668466D01*
X596719D01*
Y668183D01*
X596577D01*
Y668042D01*
X596436D01*
Y667759D01*
X596294D01*
Y667476D01*
X596152D01*
Y667334D01*
X596011D01*
Y667051D01*
X595869D01*
Y666768D01*
X595728D01*
Y666627D01*
X595587D01*
Y666485D01*
X595445D01*
Y666344D01*
X595303D01*
Y666202D01*
X595162D01*
Y666061D01*
X595020D01*
Y665778D01*
X594879D01*
Y665636D01*
X594737D01*
Y665495D01*
X594596D01*
Y665211D01*
X594454D01*
Y665070D01*
X594313D01*
Y664787D01*
X594171D01*
Y664645D01*
X594030D01*
Y664362D01*
X593888D01*
Y664079D01*
X593747D01*
Y663938D01*
X593464D01*
Y663796D01*
X593322D01*
Y663655D01*
X593181D01*
Y663513D01*
X593039D01*
Y663230D01*
X592898D01*
Y663089D01*
X592756D01*
Y662947D01*
X592615D01*
Y662806D01*
X592473D01*
Y662664D01*
X592332D01*
Y662381D01*
X592190D01*
Y662240D01*
X592049D01*
Y662098D01*
X591907D01*
Y661957D01*
X591766D01*
Y661815D01*
X591624D01*
Y661532D01*
X591483D01*
Y661391D01*
X591341D01*
Y661249D01*
X591199D01*
Y661108D01*
X591058D01*
Y660966D01*
X590916D01*
Y660825D01*
X590775D01*
Y660683D01*
X590634D01*
Y660542D01*
X590492D01*
Y660400D01*
X590350D01*
Y660258D01*
X590209D01*
Y660117D01*
X590067D01*
Y659976D01*
X589926D01*
Y659692D01*
X589784D01*
Y659551D01*
X589643D01*
Y659409D01*
X589501D01*
Y659268D01*
X589360D01*
Y659126D01*
X589218D01*
Y658985D01*
X589077D01*
Y658843D01*
X588935D01*
Y658702D01*
X588794D01*
Y658560D01*
X588652D01*
Y658419D01*
X588511D01*
Y658277D01*
X588369D01*
Y658136D01*
X588228D01*
Y657994D01*
X588086D01*
Y657853D01*
X587945D01*
Y657711D01*
X587803D01*
Y657570D01*
X587662D01*
Y657428D01*
X587520D01*
Y657287D01*
X587379D01*
Y657145D01*
X587237D01*
Y657004D01*
X587096D01*
Y656862D01*
X586813D01*
Y656721D01*
X586671D01*
Y656579D01*
X586530D01*
Y656438D01*
X586388D01*
Y656296D01*
X586246D01*
Y656155D01*
X586105D01*
Y656013D01*
X585822D01*
Y655872D01*
X585681D01*
Y655730D01*
X585539D01*
Y655589D01*
X585397D01*
Y655447D01*
X585114D01*
Y655305D01*
X584973D01*
Y655164D01*
X584690D01*
Y655023D01*
X584548D01*
Y654881D01*
X584265D01*
Y654739D01*
X584124D01*
Y654598D01*
X583841D01*
Y654456D01*
X583699D01*
Y654315D01*
X583558D01*
Y654173D01*
X583275D01*
Y654032D01*
X583133D01*
Y653890D01*
X582992D01*
Y653749D01*
X582850D01*
Y653607D01*
X582567D01*
Y653466D01*
X582426D01*
Y653324D01*
X582284D01*
Y653183D01*
X582143D01*
Y652900D01*
X582001D01*
Y652192D01*
X582143D01*
Y652051D01*
X582284D01*
Y650777D01*
X582143D01*
Y649928D01*
X582284D01*
Y649503D01*
X582567D01*
Y649928D01*
X582709D01*
Y649786D01*
X582850D01*
Y649645D01*
X583558D01*
Y649503D01*
X583699D01*
Y649362D01*
X584265D01*
Y649220D01*
X584548D01*
Y649079D01*
X584690D01*
Y648796D01*
X584973D01*
Y648654D01*
X585114D01*
Y648371D01*
X585256D01*
Y648230D01*
X585681D01*
Y648088D01*
X585822D01*
Y647805D01*
X585681D01*
Y647522D01*
X585539D01*
Y647664D01*
X585397D01*
Y647522D01*
X585256D01*
Y647239D01*
X585397D01*
Y646956D01*
X585539D01*
Y647098D01*
X585681D01*
Y647381D01*
X585822D01*
Y647098D01*
X586105D01*
Y647239D01*
X586246D01*
Y647098D01*
X586671D01*
Y646956D01*
X587237D01*
Y647098D01*
X587520D01*
Y647239D01*
X587662D01*
Y647381D01*
X587803D01*
Y647522D01*
X587945D01*
Y647664D01*
X588086D01*
Y647805D01*
X588228D01*
Y647947D01*
X588369D01*
Y648088D01*
X588511D01*
Y648230D01*
X588652D01*
Y648371D01*
X588794D01*
Y648513D01*
X588935D01*
Y648654D01*
X589077D01*
Y648796D01*
X589218D01*
Y648937D01*
X589360D01*
Y649079D01*
X589501D01*
Y649220D01*
X589643D01*
Y649362D01*
X589784D01*
Y649503D01*
X589926D01*
Y649645D01*
X590067D01*
Y649786D01*
X590209D01*
Y649928D01*
X590350D01*
Y650070D01*
X590492D01*
Y650211D01*
X590634D01*
Y650352D01*
X590775D01*
Y650636D01*
X590916D01*
Y650777D01*
X591058D01*
Y650919D01*
X591199D01*
Y651060D01*
X591341D01*
Y651202D01*
X591483D01*
Y651343D01*
X591624D01*
Y651485D01*
X591766D01*
Y651626D01*
X591907D01*
Y651909D01*
X592049D01*
Y652051D01*
X592190D01*
Y652192D01*
X592332D01*
Y652334D01*
X592473D01*
Y652617D01*
X592615D01*
Y652758D01*
X592756D01*
Y653041D01*
X592898D01*
Y653183D01*
X593039D01*
Y653466D01*
X593181D01*
Y653607D01*
X593322D01*
Y653749D01*
X593464D01*
Y654032D01*
X593605D01*
Y654173D01*
X593747D01*
Y654315D01*
X593888D01*
Y654598D01*
X594030D01*
Y654739D01*
X594171D01*
Y654881D01*
X594313D01*
Y655023D01*
X594454D01*
Y655164D01*
X594596D01*
Y655447D01*
X594737D01*
Y655589D01*
X594879D01*
Y655730D01*
X595020D01*
Y655872D01*
X595162D01*
Y656013D01*
X595303D01*
Y656155D01*
X595445D01*
Y656296D01*
X595587D01*
Y656438D01*
X595869D01*
Y656579D01*
X596011D01*
Y656721D01*
X596294D01*
Y656862D01*
X596719D01*
Y657004D01*
X597002D01*
Y657145D01*
X597285D01*
Y657287D01*
X597426D01*
Y657428D01*
X597709D01*
Y657570D01*
X597851D01*
Y657711D01*
X598134D01*
Y657853D01*
X598275D01*
Y658136D01*
X598417D01*
Y659268D01*
X598558D01*
Y659409D01*
X598841D01*
Y659551D01*
X599124D01*
Y659692D01*
X599266D01*
Y659834D01*
X599407D01*
Y659976D01*
X599549D01*
Y660117D01*
X599690D01*
Y660258D01*
X599832D01*
Y660400D01*
X599973D01*
Y660542D01*
X600115D01*
Y660683D01*
X600256D01*
Y660825D01*
X600398D01*
Y661108D01*
X600540D01*
Y661249D01*
X600681D01*
Y661391D01*
X600822D01*
Y661532D01*
X600964D01*
Y661815D01*
X601105D01*
Y661957D01*
X601247D01*
Y662098D01*
X601389D01*
Y662381D01*
X601530D01*
Y662523D01*
X601672D01*
Y662806D01*
X601813D01*
Y662947D01*
X601955D01*
Y663230D01*
X602096D01*
Y663372D01*
X602238D01*
Y663655D01*
X602379D01*
Y663796D01*
X602521D01*
Y664079D01*
X602662D01*
Y664362D01*
X602804D01*
Y664504D01*
X602945D01*
Y664787D01*
X603087D01*
Y664929D01*
X603228D01*
Y665070D01*
X603370D01*
Y665211D01*
X603511D01*
Y665353D01*
X603653D01*
Y665636D01*
X603794D01*
Y665778D01*
X603936D01*
Y665919D01*
X604077D01*
Y666061D01*
X604219D01*
Y666202D01*
X604360D01*
Y666344D01*
X604502D01*
Y666627D01*
X604643D01*
Y666768D01*
X604785D01*
Y666910D01*
X604926D01*
Y667051D01*
X605068D01*
Y667193D01*
X605209D01*
Y667334D01*
X605351D01*
Y667476D01*
X605493D01*
Y667617D01*
X605634D01*
Y667900D01*
X605775D01*
Y668042D01*
X605917D01*
Y668325D01*
X606059D01*
Y668466D01*
X606200D01*
Y668608D01*
X606342D01*
Y668749D01*
X606483D01*
Y668891D01*
X606625D01*
Y669032D01*
X606766D01*
Y669174D01*
X606908D01*
Y669457D01*
X607049D01*
Y669598D01*
X607191D01*
Y669740D01*
X607332D01*
Y669882D01*
X607474D01*
Y670023D01*
X607615D01*
Y670306D01*
X607757D01*
Y670164D01*
X607898D01*
Y670023D01*
X608040D01*
Y669882D01*
X608181D01*
Y669740D01*
X608323D01*
Y669457D01*
X608464D01*
Y669174D01*
X608606D01*
Y668891D01*
X608747D01*
Y668608D01*
X608889D01*
Y667900D01*
X609030D01*
Y667476D01*
X608889D01*
Y667334D01*
X608747D01*
Y667193D01*
X608606D01*
Y667051D01*
X608464D01*
Y666910D01*
X608323D01*
Y666768D01*
X608181D01*
Y666627D01*
X608040D01*
Y666344D01*
X607898D01*
Y665495D01*
X608040D01*
Y663372D01*
X607898D01*
Y662806D01*
X607757D01*
Y662240D01*
X607615D01*
Y661815D01*
X607474D01*
Y661391D01*
X607332D01*
Y660825D01*
X607191D01*
Y660258D01*
X607049D01*
Y659692D01*
X606908D01*
Y658985D01*
X606766D01*
Y658419D01*
X606625D01*
Y657994D01*
X606483D01*
Y657711D01*
X606342D01*
Y657428D01*
X606200D01*
Y657145D01*
X606059D01*
Y656862D01*
X605917D01*
Y656579D01*
X605775D01*
Y656296D01*
X605634D01*
Y656155D01*
X605493D01*
Y655872D01*
X605351D01*
Y655730D01*
X605209D01*
Y655589D01*
X605068D01*
Y655305D01*
X604926D01*
Y655164D01*
X604785D01*
Y655023D01*
X604643D01*
Y654881D01*
X604502D01*
Y654739D01*
X604360D01*
Y654598D01*
X604219D01*
Y654315D01*
X604077D01*
Y654173D01*
X603936D01*
Y654032D01*
X603794D01*
Y653749D01*
X603653D01*
Y653607D01*
X603511D01*
Y653324D01*
X603370D01*
Y653183D01*
X603228D01*
Y652900D01*
X603087D01*
Y652617D01*
X602945D01*
Y652334D01*
X602804D01*
Y652192D01*
X602945D01*
Y652051D01*
X603370D01*
Y651909D01*
X603653D01*
Y651768D01*
X604077D01*
Y651626D01*
X604502D01*
Y651485D01*
X604643D01*
Y651202D01*
X604785D01*
Y651060D01*
X604926D01*
Y650919D01*
X605209D01*
Y650777D01*
X605351D01*
Y650636D01*
X605634D01*
Y650494D01*
X605775D01*
Y650352D01*
X606059D01*
Y650211D01*
X606200D01*
Y650070D01*
X606342D01*
Y649928D01*
X606200D01*
Y649786D01*
X606483D01*
Y649645D01*
X606625D01*
Y649786D01*
X607191D01*
Y649645D01*
X607332D01*
Y649503D01*
X607474D01*
Y649786D01*
X607332D01*
Y649928D01*
X607474D01*
Y650070D01*
X608181D01*
Y650211D01*
X609313D01*
Y650352D01*
X609455D01*
Y650636D01*
X609596D01*
Y651626D01*
X609738D01*
Y652758D01*
X609879D01*
Y653183D01*
X610021D01*
Y653607D01*
X610162D01*
Y654173D01*
X610304D01*
Y654456D01*
X610446D01*
Y654739D01*
X610587D01*
Y655164D01*
X610728D01*
Y655447D01*
X610870D01*
Y655730D01*
X611012D01*
Y656155D01*
X611153D01*
Y656438D01*
X611295D01*
Y656721D01*
X611436D01*
Y657004D01*
X611578D01*
Y657428D01*
X611719D01*
Y657711D01*
X611861D01*
Y657994D01*
X612002D01*
Y658136D01*
X612144D01*
Y658419D01*
X612285D01*
Y658702D01*
X612427D01*
Y658985D01*
X612568D01*
Y659126D01*
X612710D01*
Y659409D01*
X612851D01*
Y659692D01*
X612993D01*
Y659834D01*
X613134D01*
Y660117D01*
X613276D01*
Y660400D01*
X613417D01*
Y660542D01*
X613559D01*
Y660825D01*
X613700D01*
Y661108D01*
X613842D01*
Y661249D01*
X613983D01*
Y661532D01*
X614125D01*
Y661815D01*
X614266D01*
Y662098D01*
X614408D01*
Y662240D01*
X614549D01*
Y662523D01*
X614691D01*
Y662806D01*
X614832D01*
Y663089D01*
X614974D01*
Y663372D01*
X615115D01*
Y663796D01*
X615257D01*
Y664079D01*
X615398D01*
Y664504D01*
X615540D01*
Y664929D01*
X615681D01*
Y665353D01*
X615823D01*
Y665778D01*
X615965D01*
Y665919D01*
X616106D01*
Y666344D01*
X616248D01*
Y666627D01*
X616389D01*
Y667051D01*
X616531D01*
Y667759D01*
X616672D01*
Y668749D01*
X616531D01*
Y669032D01*
X616389D01*
Y669457D01*
X616248D01*
Y670023D01*
X616106D01*
Y670589D01*
X615965D01*
Y671014D01*
X615823D01*
Y671438D01*
X615681D01*
Y671721D01*
X615540D01*
Y672004D01*
X615398D01*
Y672287D01*
X615257D01*
Y672429D01*
X615115D01*
Y672712D01*
X614974D01*
Y672995D01*
X614832D01*
Y673278D01*
X614691D01*
Y673419D01*
X614549D01*
Y673702D01*
X614408D01*
Y673985D01*
X614266D01*
Y674127D01*
X614125D01*
Y674410D01*
X613983D01*
Y674693D01*
X613842D01*
Y674835D01*
X613700D01*
Y675117D01*
X613559D01*
Y675259D01*
X613417D01*
Y675542D01*
X613276D01*
Y675825D01*
X613134D01*
Y675967D01*
X612993D01*
Y676250D01*
X612851D01*
Y676391D01*
X612710D01*
Y676533D01*
X612568D01*
Y676816D01*
X612427D01*
Y676957D01*
X612285D01*
Y677240D01*
X612144D01*
Y677382D01*
X612002D01*
Y677523D01*
X611861D01*
Y677806D01*
X611719D01*
Y677948D01*
X611578D01*
Y678372D01*
X611719D01*
Y678655D01*
X611861D01*
Y678938D01*
X612002D01*
Y679363D01*
X612144D01*
Y679788D01*
X612285D01*
Y680495D01*
X612427D01*
Y681627D01*
X612568D01*
Y681769D01*
X612710D01*
Y681910D01*
X612851D01*
Y682052D01*
X612993D01*
Y682193D01*
X613134D01*
Y682335D01*
X613276D01*
Y682476D01*
X613417D01*
Y682618D01*
X613700D01*
Y682759D01*
X613983D01*
Y682901D01*
X614266D01*
Y683042D01*
X614832D01*
Y683184D01*
X615398D01*
Y683325D01*
X616531D01*
Y683467D01*
X616955D01*
Y683750D01*
X617097D01*
Y684033D01*
X617238D01*
Y684457D01*
X617380D01*
Y685023D01*
X617521D01*
Y685590D01*
X617663D01*
Y686156D01*
X617804D01*
Y687005D01*
X617946D01*
Y687854D01*
X618087D01*
Y688844D01*
X618229D01*
Y690543D01*
X618087D01*
Y691392D01*
X618229D01*
Y693656D01*
X618087D01*
Y693939D01*
X617946D01*
Y694222D01*
X617804D01*
Y694788D01*
X617663D01*
Y695637D01*
X617521D01*
Y696345D01*
X617380D01*
Y697194D01*
X617238D01*
Y700165D01*
X617380D01*
Y701015D01*
X617521D01*
Y701864D01*
X617663D01*
Y702996D01*
X617804D01*
Y703703D01*
X617946D01*
Y704553D01*
X618087D01*
Y705118D01*
X618229D01*
Y705826D01*
X618370D01*
Y706392D01*
X618512D01*
Y706817D01*
X618653D01*
Y707241D01*
X618795D01*
Y707524D01*
X618936D01*
Y707666D01*
X619078D01*
Y707807D01*
X619219D01*
Y707949D01*
X619361D01*
Y708090D01*
X619502D01*
Y708232D01*
X619644D01*
Y708515D01*
X619785D01*
Y708656D01*
X619927D01*
Y708798D01*
X620068D01*
Y708939D01*
X620210D01*
Y709081D01*
X620351D01*
Y709222D01*
X620493D01*
Y709364D01*
X620634D01*
Y709505D01*
X620776D01*
Y709647D01*
X620918D01*
Y709789D01*
X621059D01*
Y709930D01*
X621201D01*
Y710071D01*
X621342D01*
Y710213D01*
X621484D01*
Y710355D01*
X621625D01*
Y710496D01*
X621767D01*
Y710638D01*
X621908D01*
Y710779D01*
X622050D01*
Y710921D01*
X622191D01*
Y711062D01*
X622333D01*
Y711204D01*
X622474D01*
Y711345D01*
X622616D01*
Y711487D01*
X622757D01*
Y711628D01*
X622899D01*
Y711770D01*
X623040D01*
Y712053D01*
X623182D01*
Y712194D01*
X623323D01*
Y712336D01*
X623465D01*
Y712477D01*
X623606D01*
Y712619D01*
X623889D01*
Y712760D01*
X624031D01*
Y712902D01*
X624172D01*
Y713043D01*
X624314D01*
Y713326D01*
X624455D01*
Y713468D01*
X624597D01*
Y713609D01*
X624738D01*
Y713751D01*
X624880D01*
Y713892D01*
X625021D01*
Y714034D01*
X625163D01*
Y714175D01*
X625304D01*
Y714317D01*
X625446D01*
Y714600D01*
X625588D01*
Y714742D01*
X625729D01*
Y714883D01*
X625871D01*
Y715166D01*
X626012D01*
Y715591D01*
X626154D01*
Y715732D01*
X626295D01*
Y715874D01*
X626437D01*
Y716015D01*
X626578D01*
Y716157D01*
X626720D01*
Y716440D01*
X626861D01*
Y716581D01*
X627003D01*
Y716864D01*
X627144D01*
Y717006D01*
X627427D01*
Y717289D01*
X627569D01*
Y717430D01*
X627710D01*
Y717572D01*
X627852D01*
Y717855D01*
X627993D01*
Y717996D01*
X628135D01*
Y718138D01*
X628276D01*
Y718279D01*
X628418D01*
Y718421D01*
X628559D01*
Y718562D01*
X628701D01*
Y718704D01*
X628984D01*
Y718845D01*
X629125D01*
Y719128D01*
X629267D01*
Y719270D01*
X629408D01*
Y719411D01*
X629550D01*
Y719695D01*
X629691D01*
Y719836D01*
X629833D01*
Y720119D01*
X629974D01*
Y720402D01*
X630116D01*
Y720685D01*
X630257D01*
Y720827D01*
X630399D01*
Y721110D01*
X630541D01*
Y721393D01*
X630682D01*
Y721534D01*
X630824D01*
Y721817D01*
X630965D01*
Y721959D01*
X631107D01*
Y722242D01*
X631248D01*
Y722383D01*
X631390D01*
Y722666D01*
X631531D01*
Y722808D01*
X631673D01*
Y723091D01*
X631814D01*
Y723232D01*
X631956D01*
Y723515D01*
X632097D01*
Y723798D01*
X632239D01*
Y723940D01*
X632380D01*
Y724223D01*
X632522D01*
Y724506D01*
X632663D01*
Y724789D01*
X632805D01*
Y725072D01*
X632946D01*
Y725213D01*
X633088D01*
Y725497D01*
X633229D01*
Y725780D01*
X632946D01*
Y725638D01*
X632805D01*
Y725497D01*
X632663D01*
Y725355D01*
X632522D01*
Y725213D01*
X632380D01*
Y725072D01*
X631673D01*
Y725213D01*
X631390D01*
Y725355D01*
X631107D01*
Y725497D01*
X630965D01*
Y725638D01*
X630824D01*
Y725780D01*
X630682D01*
Y725921D01*
X630541D01*
Y726204D01*
X630399D01*
Y726487D01*
X630257D01*
Y726770D01*
X630116D01*
Y727053D01*
D02*
G37*
G36*
X610587Y709930D02*
X610304D01*
Y708798D01*
X610446D01*
Y708656D01*
X610587D01*
Y708373D01*
X610728D01*
Y708232D01*
X610870D01*
Y708090D01*
X611012D01*
Y708515D01*
X610870D01*
Y709081D01*
X610728D01*
Y709647D01*
X610587D01*
Y709789D01*
Y709930D01*
D02*
G37*
G36*
X578746Y692524D02*
X578463D01*
Y692382D01*
X578322D01*
Y692241D01*
X578180D01*
Y691958D01*
X578039D01*
Y691816D01*
X577897D01*
Y691533D01*
X577756D01*
Y691250D01*
X577614D01*
Y690967D01*
X577756D01*
Y691109D01*
X577897D01*
Y691250D01*
X578039D01*
Y691392D01*
X578180D01*
Y691675D01*
X578322D01*
Y691816D01*
X578463D01*
Y692099D01*
X578605D01*
Y692382D01*
X578746D01*
Y692524D01*
D02*
G37*
G36*
X577614Y690967D02*
X577473D01*
Y690826D01*
X577614D01*
Y690967D01*
D02*
G37*
G36*
X583133Y689552D02*
X582992D01*
Y689410D01*
X583133D01*
Y689552D01*
D02*
G37*
G36*
X578746Y691816D02*
X578605D01*
Y691675D01*
X578463D01*
Y691392D01*
X578322D01*
Y691250D01*
X578180D01*
Y691109D01*
Y690967D01*
X578039D01*
Y690826D01*
X577897D01*
Y690684D01*
X577756D01*
Y690401D01*
X577614D01*
Y690259D01*
X577473D01*
Y689835D01*
X577331D01*
Y689552D01*
X577190D01*
Y688703D01*
X577048D01*
Y688561D01*
X577190D01*
Y688420D01*
X577331D01*
Y687571D01*
X577614D01*
Y687854D01*
X577897D01*
Y687995D01*
X578039D01*
Y688137D01*
X578180D01*
Y688278D01*
X578322D01*
Y688420D01*
X578463D01*
Y688703D01*
X578888D01*
Y688986D01*
X579029D01*
Y689127D01*
X579171D01*
Y689269D01*
X579454D01*
Y689410D01*
X579595D01*
Y689552D01*
X579878D01*
Y689694D01*
X580020D01*
Y689835D01*
X580303D01*
Y689977D01*
X580444D01*
Y690118D01*
X580728D01*
Y690259D01*
X581011D01*
Y690401D01*
X581435D01*
Y690259D01*
X581860D01*
Y689977D01*
X582001D01*
Y689835D01*
X582143D01*
Y689269D01*
X582284D01*
Y689835D01*
X582426D01*
Y689977D01*
X582567D01*
Y690118D01*
X582426D01*
Y690259D01*
X582284D01*
Y690401D01*
X582143D01*
Y690543D01*
X582284D01*
Y690684D01*
X582143D01*
Y690826D01*
X581718D01*
Y690684D01*
X581152D01*
Y690543D01*
X580728D01*
Y690401D01*
X580586D01*
Y690259D01*
X579737D01*
Y690401D01*
X579595D01*
Y690543D01*
X579454D01*
Y690401D01*
X579312D01*
Y689694D01*
X579171D01*
Y689552D01*
X579029D01*
Y689410D01*
X578888D01*
Y689269D01*
X578746D01*
Y689127D01*
X578605D01*
Y688986D01*
X578463D01*
Y688844D01*
X578180D01*
Y688703D01*
X578039D01*
Y688561D01*
X577897D01*
Y688844D01*
X578039D01*
Y689269D01*
X578180D01*
Y689410D01*
X578322D01*
Y689552D01*
X578463D01*
Y689694D01*
X578605D01*
Y689977D01*
X578746D01*
Y690118D01*
X578888D01*
Y690259D01*
X579029D01*
Y690401D01*
X579171D01*
Y690826D01*
X579312D01*
Y691109D01*
X579171D01*
Y691250D01*
X578746D01*
Y690967D01*
X578605D01*
Y690543D01*
X578463D01*
Y690259D01*
X578322D01*
Y690118D01*
X578180D01*
Y689977D01*
X578039D01*
Y689694D01*
X577897D01*
Y689410D01*
X577756D01*
Y689269D01*
X577614D01*
Y689127D01*
X577473D01*
Y689694D01*
X577614D01*
Y689835D01*
X577756D01*
Y690118D01*
X577897D01*
Y690401D01*
X578039D01*
Y690543D01*
X578180D01*
Y690684D01*
X578322D01*
Y690826D01*
X578463D01*
Y691109D01*
X578605D01*
Y691533D01*
X578746D01*
Y691816D01*
D02*
G37*
G36*
X582143Y689269D02*
X582001D01*
Y689127D01*
X582143D01*
Y689269D01*
D02*
G37*
G36*
X581011Y649645D02*
X580869D01*
Y649503D01*
Y649220D01*
X581011D01*
Y649645D01*
D02*
G37*
G36*
X585256Y647947D02*
X585114D01*
Y647805D01*
X584973D01*
Y647098D01*
X585114D01*
Y647664D01*
X585256D01*
Y647805D01*
Y647947D01*
D02*
G37*
G36*
X585397Y646673D02*
X585256D01*
Y646532D01*
Y646390D01*
Y646249D01*
X585397D01*
Y646673D01*
D02*
G37*
G36*
X581152Y649079D02*
X581011D01*
Y648796D01*
X581152D01*
Y648371D01*
X581293D01*
Y647947D01*
X581435D01*
Y647522D01*
X581577D01*
Y647098D01*
X581718D01*
Y646673D01*
X581860D01*
Y646249D01*
X582001D01*
Y646673D01*
X581860D01*
Y647098D01*
X581718D01*
Y647522D01*
X581577D01*
Y647947D01*
X581435D01*
Y648371D01*
X581293D01*
Y648796D01*
X581152D01*
Y649079D01*
D02*
G37*
G36*
X582143Y646107D02*
X582001D01*
Y645824D01*
X582143D01*
Y645965D01*
Y646107D01*
D02*
G37*
G36*
X604077Y645683D02*
X603936D01*
Y645541D01*
X604077D01*
Y645683D01*
D02*
G37*
G36*
X603228Y644975D02*
X602945D01*
Y644833D01*
X603228D01*
Y644692D01*
X603653D01*
Y644550D01*
X603936D01*
Y644409D01*
X604360D01*
Y644267D01*
X604785D01*
Y644126D01*
X605209D01*
Y643984D01*
X605634D01*
Y643843D01*
X606059D01*
Y643701D01*
X606342D01*
Y643560D01*
X606625D01*
Y643701D01*
X606342D01*
Y643843D01*
X606059D01*
Y643984D01*
X605634D01*
Y644126D01*
X605493D01*
Y644267D01*
X605209D01*
Y644409D01*
X604502D01*
Y644550D01*
X604219D01*
Y644692D01*
X603653D01*
Y644833D01*
X603228D01*
Y644975D01*
D02*
G37*
G36*
X606908Y643560D02*
X606766D01*
Y643418D01*
X606908D01*
Y643560D01*
D02*
G37*
G36*
X607332Y643418D02*
X607191D01*
Y643277D01*
X607332D01*
Y643418D01*
D02*
G37*
G36*
X584973Y646390D02*
X584831D01*
Y645824D01*
X584690D01*
Y644975D01*
X584831D01*
Y644833D01*
X584690D01*
Y644409D01*
X584831D01*
Y644550D01*
X584973D01*
Y644267D01*
X584548D01*
Y643984D01*
X584690D01*
Y643843D01*
X584831D01*
Y643560D01*
X584973D01*
Y643418D01*
X585114D01*
Y643277D01*
X585539D01*
Y643560D01*
X585397D01*
Y643701D01*
X585256D01*
Y643984D01*
X585114D01*
Y643843D01*
X584973D01*
Y644126D01*
X585114D01*
Y644409D01*
X585256D01*
Y644692D01*
X585114D01*
Y645399D01*
X584973D01*
Y646390D01*
D02*
G37*
G36*
X607898Y643277D02*
X607474D01*
Y643135D01*
X607898D01*
Y642994D01*
X608323D01*
Y643135D01*
X607898D01*
Y643277D01*
D02*
G37*
G36*
X585256Y643135D02*
X584690D01*
Y642994D01*
X585256D01*
Y643135D01*
D02*
G37*
G36*
X582709Y643560D02*
X582284D01*
Y643418D01*
X582426D01*
Y643277D01*
X582709D01*
Y643135D01*
X582992D01*
Y642994D01*
X583133Y642852D01*
X583275D01*
Y642994D01*
X583133D01*
Y643135D01*
X582992D01*
Y643418D01*
X582709D01*
Y643560D01*
D02*
G37*
%LPD*%
G36*
X633371Y738799D02*
X633088D01*
Y738940D01*
X633371D01*
Y738799D01*
D02*
G37*
G36*
X614691Y721393D02*
X614974D01*
Y721251D01*
X615115D01*
Y721110D01*
X615257D01*
Y720968D01*
X615398D01*
Y720827D01*
X615540D01*
Y720685D01*
X615681D01*
Y720402D01*
X615823D01*
Y720119D01*
X615965D01*
Y719836D01*
X616106D01*
Y719411D01*
X615115D01*
Y719270D01*
X614408D01*
Y719411D01*
X614266D01*
Y719270D01*
X613983D01*
Y719128D01*
X613842D01*
Y718421D01*
X613983D01*
Y718138D01*
X614266D01*
Y717996D01*
X614691D01*
Y717855D01*
X615398D01*
Y717713D01*
X614974D01*
Y717572D01*
X615540D01*
Y717713D01*
X615823D01*
Y717855D01*
X616106D01*
Y717713D01*
X616248D01*
Y717572D01*
X616389D01*
Y717006D01*
X616248D01*
Y716864D01*
X616106D01*
Y716723D01*
X615965D01*
Y716581D01*
X615823D01*
Y716440D01*
X615681D01*
Y716157D01*
X615115D01*
Y716015D01*
X614974D01*
Y716157D01*
X614832D01*
Y716298D01*
X614691D01*
Y716440D01*
X614549D01*
Y716723D01*
X614408D01*
Y716864D01*
X614266D01*
Y716723D01*
X613700D01*
Y716864D01*
X612427D01*
Y717006D01*
X612144D01*
Y716864D01*
X611861D01*
Y716723D01*
X611719D01*
Y716581D01*
X611436D01*
Y716440D01*
X611295D01*
Y716581D01*
X611153D01*
Y716864D01*
X611012D01*
Y717006D01*
X610446D01*
Y717147D01*
X610304D01*
Y717006D01*
X610162D01*
Y716581D01*
X610021D01*
Y716298D01*
X609879D01*
Y716015D01*
X609738D01*
Y716157D01*
X609596D01*
Y717713D01*
X609455D01*
Y718279D01*
X609596D01*
Y718845D01*
X609738D01*
Y719128D01*
X609879D01*
Y719411D01*
X610021D01*
Y719695D01*
X610162D01*
Y719977D01*
X610304D01*
Y720260D01*
X610446D01*
Y720544D01*
X610587D01*
Y720685D01*
X610728D01*
Y720260D01*
X610870D01*
Y719836D01*
X610728D01*
Y719553D01*
X610870D01*
Y719695D01*
X611295D01*
Y719553D01*
X611153D01*
Y719411D01*
X611012D01*
Y719270D01*
X610870D01*
Y718987D01*
X610728D01*
Y718845D01*
X610870D01*
Y718704D01*
X611153D01*
Y718421D01*
X611295D01*
Y718279D01*
X611719D01*
Y718421D01*
X612002D01*
Y718845D01*
X612285D01*
Y718421D01*
X612710D01*
Y718279D01*
X612993D01*
Y718421D01*
X613134D01*
Y718279D01*
X613276D01*
Y718421D01*
X613417D01*
Y719128D01*
X613559D01*
Y719270D01*
X613417D01*
Y719411D01*
X613559D01*
Y719553D01*
X613842D01*
Y719695D01*
X613700D01*
Y719836D01*
X613559D01*
Y719977D01*
X613700D01*
Y720827D01*
X613842D01*
Y721110D01*
X613983D01*
Y721251D01*
X614125D01*
Y720968D01*
X614266D01*
Y720827D01*
X614125D01*
Y720544D01*
X614266D01*
Y720685D01*
X614408D01*
Y721393D01*
X614549D01*
Y721534D01*
X614691D01*
Y721393D01*
D02*
G37*
G36*
X612144Y719128D02*
X611436D01*
Y719270D01*
X612144D01*
Y719128D01*
D02*
G37*
G36*
X615965Y718704D02*
X616106D01*
Y718421D01*
X615965D01*
Y718562D01*
X615823D01*
Y718704D01*
X615681D01*
Y718845D01*
X615965D01*
Y718704D01*
D02*
G37*
G36*
X615398Y717996D02*
X615257D01*
Y718138D01*
X615398D01*
Y717996D01*
D02*
G37*
G36*
X612285Y716440D02*
X612427D01*
Y716298D01*
X612568D01*
Y716157D01*
X612851D01*
Y715874D01*
X613134D01*
Y715732D01*
X613700D01*
Y715874D01*
X613983D01*
Y715732D01*
X614125D01*
Y715591D01*
X612710D01*
Y715732D01*
X612144D01*
Y715874D01*
X611861D01*
Y716015D01*
X611719D01*
Y715874D01*
X611578D01*
Y716157D01*
X611719D01*
Y716298D01*
X611861D01*
Y716440D01*
X612002D01*
Y716581D01*
X612285D01*
Y716440D01*
D02*
G37*
G36*
X614974Y715307D02*
X614832D01*
Y715449D01*
X614974D01*
Y715307D01*
D02*
G37*
G36*
X613276D02*
X613842D01*
Y715166D01*
Y715024D01*
X612710D01*
Y715166D01*
X612427D01*
Y715307D01*
X612710D01*
Y715449D01*
X612993D01*
Y715307D01*
X613134D01*
Y715449D01*
X613276D01*
Y715307D01*
D02*
G37*
G36*
X609596Y715449D02*
X609455D01*
Y715166D01*
X609313D01*
Y714883D01*
X609455D01*
Y714600D01*
X609313D01*
Y714458D01*
X609172D01*
Y714175D01*
X609313D01*
Y714034D01*
Y713892D01*
X609030D01*
Y714883D01*
X609172D01*
Y715591D01*
X609313D01*
Y715732D01*
X609596D01*
Y715449D01*
D02*
G37*
G36*
X609879Y713609D02*
X610021D01*
Y713468D01*
X609879D01*
Y713326D01*
X609738D01*
Y713468D01*
Y713609D01*
Y713892D01*
X609879D01*
Y713609D01*
D02*
G37*
G36*
X611436Y716015D02*
X611295D01*
Y715874D01*
X611153D01*
Y715307D01*
X611295D01*
Y715024D01*
X611436D01*
Y714883D01*
X611578D01*
Y714742D01*
X612002D01*
Y714883D01*
X613276D01*
Y714742D01*
X613559D01*
Y714600D01*
X613700D01*
Y714317D01*
X613559D01*
Y714175D01*
X613700D01*
Y714034D01*
X613842D01*
Y713892D01*
X613983D01*
Y714034D01*
X614125D01*
Y714317D01*
X614408D01*
Y714742D01*
X614549D01*
Y714883D01*
X614974D01*
Y714600D01*
X614832D01*
Y714175D01*
X614691D01*
Y713892D01*
X614549D01*
Y713609D01*
X614408D01*
Y713326D01*
X614266D01*
Y713185D01*
X613983D01*
Y713043D01*
X613700D01*
Y712902D01*
X613134D01*
Y713043D01*
X612285D01*
Y713185D01*
X611719D01*
Y713326D01*
X611436D01*
Y713468D01*
X611295D01*
Y713609D01*
X611153D01*
Y713751D01*
X611012D01*
Y713892D01*
X610870D01*
Y714317D01*
X610728D01*
Y714742D01*
X610587D01*
Y714883D01*
X610446D01*
Y715024D01*
X610304D01*
Y715307D01*
X610162D01*
Y715024D01*
X609879D01*
Y715307D01*
X609738D01*
Y715449D01*
X609879D01*
Y715591D01*
X610162D01*
Y715732D01*
X610587D01*
Y716015D01*
X610870D01*
Y716157D01*
X611436D01*
Y716015D01*
D02*
G37*
G36*
X614691Y711911D02*
X614549D01*
Y711487D01*
X614408D01*
Y710921D01*
X614266D01*
Y710496D01*
X614125D01*
Y710638D01*
X613983D01*
Y710921D01*
X613559D01*
Y710779D01*
X613276D01*
Y710638D01*
X612993D01*
Y710496D01*
X612710D01*
Y710638D01*
X612851D01*
Y710779D01*
X613134D01*
Y710921D01*
X613417D01*
Y711062D01*
X613559D01*
Y711204D01*
X613700D01*
Y711345D01*
X613983D01*
Y711487D01*
X614125D01*
Y711770D01*
X614266D01*
Y711911D01*
Y712053D01*
X614408D01*
Y712477D01*
X614691D01*
Y711911D01*
D02*
G37*
G36*
X613417Y708515D02*
X613276D01*
Y708656D01*
X613134D01*
Y709081D01*
X613417D01*
Y708515D01*
D02*
G37*
G36*
X609455Y691533D02*
X609596D01*
Y691392D01*
X609738D01*
Y691109D01*
X609879D01*
Y690967D01*
X610021D01*
Y690826D01*
X610162D01*
Y690684D01*
X610304D01*
Y690543D01*
X610446D01*
Y689552D01*
X610304D01*
Y689694D01*
X610162D01*
Y689835D01*
Y689977D01*
X610021D01*
Y690259D01*
X609879D01*
Y690401D01*
X609738D01*
Y690684D01*
X609596D01*
Y690967D01*
X609455D01*
Y691109D01*
X609313D01*
Y691392D01*
X609172D01*
Y691675D01*
X609455D01*
Y691533D01*
D02*
G37*
G36*
X609030Y691109D02*
X609172D01*
Y690967D01*
X609313D01*
Y690684D01*
X609455D01*
Y690543D01*
X609596D01*
Y690259D01*
X609738D01*
Y689977D01*
X609879D01*
Y689694D01*
X610021D01*
Y689410D01*
X610162D01*
Y688703D01*
X610304D01*
Y688137D01*
X610162D01*
Y687712D01*
X610304D01*
Y687429D01*
X610446D01*
Y687005D01*
X610587D01*
Y686722D01*
X610728D01*
Y686580D01*
X610870D01*
Y686439D01*
X611012D01*
Y686156D01*
X611153D01*
Y686014D01*
X610870D01*
Y686156D01*
X610728D01*
Y686297D01*
X609879D01*
Y686156D01*
X608747D01*
Y686014D01*
X608323D01*
Y685873D01*
X607898D01*
Y685731D01*
X607332D01*
Y685590D01*
X606908D01*
Y685448D01*
X606483D01*
Y685590D01*
X605351D01*
Y685731D01*
X605068D01*
Y685873D01*
X604502D01*
Y686014D01*
X603794D01*
Y685873D01*
X603511D01*
Y685731D01*
X603228D01*
Y685590D01*
X602945D01*
Y685448D01*
X602804D01*
Y685306D01*
X602379D01*
Y685165D01*
X601955D01*
Y685023D01*
X601389D01*
Y685306D01*
X601672D01*
Y685448D01*
X601955D01*
Y685590D01*
X602238D01*
Y685731D01*
X602521D01*
Y685873D01*
X602804D01*
Y686014D01*
X603228D01*
Y686156D01*
X603511D01*
Y686722D01*
X603794D01*
Y686863D01*
X603936D01*
Y687005D01*
X604077D01*
Y687146D01*
X604360D01*
Y687288D01*
X604643D01*
Y687429D01*
X604785D01*
Y687571D01*
X604926D01*
Y687712D01*
X605209D01*
Y687854D01*
X605351D01*
Y687995D01*
X605493D01*
Y688278D01*
X605634D01*
Y688420D01*
X605775D01*
Y688703D01*
X605917D01*
Y688844D01*
X606059D01*
Y688986D01*
X606342D01*
Y689127D01*
X606483D01*
Y689269D01*
X606625D01*
Y689410D01*
X606908D01*
Y689552D01*
X607049D01*
Y689694D01*
X607191D01*
Y689835D01*
X607332D01*
Y689977D01*
X607615D01*
Y690118D01*
X607757D01*
Y690259D01*
X607898D01*
Y690401D01*
X608040D01*
Y690543D01*
X608181D01*
Y690684D01*
X608323D01*
Y690826D01*
X608464D01*
Y690967D01*
X608606D01*
Y691109D01*
X608747D01*
Y691250D01*
X609030D01*
Y691109D01*
D02*
G37*
G36*
X610728Y685731D02*
X611012D01*
Y685590D01*
X610728D01*
Y685448D01*
X610446D01*
Y685590D01*
X609738D01*
Y685731D01*
X609313D01*
Y685873D01*
X610728D01*
Y685731D01*
D02*
G37*
G36*
X582567Y650211D02*
X582426D01*
Y650352D01*
X582284D01*
Y650494D01*
X582567D01*
Y650211D01*
D02*
G37*
%LPC*%
G36*
X611719Y714600D02*
X611578D01*
Y714317D01*
X611719D01*
Y714034D01*
X612710D01*
Y714175D01*
X612144D01*
Y714317D01*
X611861D01*
Y714458D01*
X611719D01*
Y714600D01*
D02*
G37*
G36*
X613417Y714034D02*
X612851D01*
Y713892D01*
X613276D01*
Y713751D01*
X613842D01*
Y713892D01*
X613417D01*
Y714034D01*
D02*
G37*
%LPD*%
G36*
X577473Y688703D02*
X577331D01*
Y688844D01*
Y689127D01*
X577473D01*
Y688703D01*
D02*
G37*
M02*
