G04*
G04 #@! TF.GenerationSoftware,Altium Limited,Altium Designer,24.0.1 (36)*
G04*
G04 Layer_Physical_Order=2*
G04 Layer_Color=16711680*
%FSLAX44Y44*%
%MOMM*%
G71*
G04*
G04 #@! TF.SameCoordinates,861917B8-4398-4D05-8FE2-F05A855006CB*
G04*
G04*
G04 #@! TF.FilePolarity,Positive*
G04*
G01*
G75*
%ADD13C,0.2540*%
%ADD42C,0.8000*%
%ADD43R,1.6000X1.6000*%
%ADD44C,1.6000*%
%ADD45R,1.2000X1.2000*%
%ADD46C,1.2000*%
%ADD47C,1.2700*%
D13*
X675640Y523240D02*
Y572770D01*
Y523240D02*
X731520Y467360D01*
X742950Y688340D02*
X778510Y652780D01*
Y533400D02*
Y652780D01*
X731520Y467360D02*
X891540D01*
X716280Y515620D02*
X735330Y496570D01*
X887730D01*
X800100Y666750D02*
X801370Y668020D01*
D42*
X795020Y538480D02*
Y564886D01*
X792480Y567426D02*
Y592560D01*
Y567426D02*
X795020Y564886D01*
X800100Y600180D02*
Y666750D01*
X792480Y592560D02*
X800100Y600180D01*
D43*
X1200150Y483870D02*
D03*
X615950Y623570D02*
D03*
D44*
X1200150Y509270D02*
D03*
X615950Y598170D02*
D03*
D45*
X1092200Y531330D02*
D03*
D46*
Y481330D02*
D03*
D47*
X675640Y572770D02*
D03*
X742950Y688340D02*
D03*
X795020Y538480D02*
D03*
X778510Y533400D02*
D03*
X891540Y467360D02*
D03*
X716280Y515620D02*
D03*
X887730Y496570D02*
D03*
X801370Y668020D02*
D03*
M02*
