G04*
G04 #@! TF.GenerationSoftware,Altium Limited,Altium Designer,24.0.1 (36)*
G04*
G04 Layer_Physical_Order=1*
G04 Layer_Color=255*
%FSLAX44Y44*%
%MOMM*%
G71*
G04*
G04 #@! TF.SameCoordinates,861917B8-4398-4D05-8FE2-F05A855006CB*
G04*
G04*
G04 #@! TF.FilePolarity,Positive*
G04*
G01*
G75*
%ADD13C,0.2540*%
%ADD15R,2.7700X2.2600*%
%ADD16R,3.0700X2.2600*%
%ADD17R,0.7200X1.7800*%
%ADD18R,1.3500X0.8500*%
%ADD19R,0.9500X1.3500*%
%ADD20R,1.4500X0.4500*%
%ADD21R,2.7400X3.8600*%
%ADD22R,0.8500X1.3500*%
%ADD23R,2.4500X2.3500*%
%ADD24R,1.3500X0.9500*%
%ADD25R,3.4200X1.5400*%
%ADD26R,0.5500X1.0500*%
%ADD42C,0.8000*%
%ADD43R,1.6000X1.6000*%
%ADD44C,1.6000*%
%ADD45R,1.2000X1.2000*%
%ADD46C,1.2000*%
%ADD47C,1.2700*%
G36*
X1296595Y439495D02*
X531199D01*
X530935Y439759D01*
Y767005D01*
X1296595D01*
X1296595Y439495D01*
D02*
G37*
%LPC*%
G36*
X722180Y701880D02*
X708660D01*
Y688860D01*
X722180D01*
Y701880D01*
D02*
G37*
G36*
X706120D02*
X692600D01*
Y688860D01*
X706120D01*
Y701880D01*
D02*
G37*
G36*
X979540Y703170D02*
X946760D01*
Y675490D01*
X979540D01*
Y703170D01*
D02*
G37*
G36*
X722180Y686320D02*
X708660D01*
Y673300D01*
X722180D01*
Y686320D01*
D02*
G37*
G36*
X706120D02*
X692600D01*
Y673300D01*
X706120D01*
Y686320D01*
D02*
G37*
G36*
X858730Y633200D02*
X857460Y633200D01*
X853440D01*
Y621760D01*
Y610320D01*
X857460D01*
X858310Y610320D01*
X859580Y610320D01*
X863600D01*
Y621760D01*
Y633200D01*
X859580D01*
X858730Y633200D01*
D02*
G37*
G36*
X722180Y639880D02*
X692600D01*
Y630166D01*
X626490D01*
Y634110D01*
X605410D01*
Y613030D01*
X626490D01*
Y616974D01*
X692600D01*
Y611300D01*
X716686D01*
X741093Y586893D01*
X740607Y585720D01*
X727710D01*
Y563880D01*
Y542040D01*
X735095D01*
X735773Y540770D01*
X735561Y540452D01*
X735265Y538965D01*
Y524910D01*
X732360D01*
Y506330D01*
X745940D01*
Y524910D01*
X743035D01*
Y537356D01*
X744727Y539049D01*
X745900Y538563D01*
Y529840D01*
X751805D01*
Y524910D01*
X748860D01*
Y506330D01*
X762440D01*
Y524910D01*
X759575D01*
Y529840D01*
X765480D01*
Y537246D01*
X769171D01*
X770090Y536326D01*
X769620Y534570D01*
Y532230D01*
X770226Y529969D01*
X771396Y527941D01*
X773051Y526286D01*
X775079Y525116D01*
X777340Y524510D01*
X779680D01*
X781941Y525116D01*
X783969Y526286D01*
X785624Y527941D01*
X786794Y529969D01*
X787295Y531837D01*
X788294Y532249D01*
X788670Y532258D01*
X789561Y531366D01*
X791589Y530196D01*
X793850Y529590D01*
X796099D01*
X796407Y529354D01*
X797998Y528695D01*
X799705Y528470D01*
X804780D01*
Y527620D01*
X823360D01*
Y542200D01*
X823360D01*
Y542620D01*
X823360D01*
Y546025D01*
X835450D01*
Y542120D01*
X846030D01*
Y557700D01*
X845444D01*
X844918Y558970D01*
X880317Y594369D01*
X881159Y595629D01*
X881455Y597116D01*
Y610320D01*
X883710D01*
Y633200D01*
X872280D01*
X871430Y633200D01*
X870160Y633200D01*
X866140D01*
Y621760D01*
Y610320D01*
X870160D01*
X871010Y610320D01*
X872280Y610320D01*
X873685D01*
Y598725D01*
X847203Y572243D01*
X846030Y572729D01*
Y580700D01*
X835450D01*
Y576795D01*
X805881D01*
X805580Y577940D01*
X805580Y578790D01*
Y583960D01*
X796290D01*
X787000D01*
Y578790D01*
X787000Y577940D01*
X787000Y576670D01*
Y571015D01*
X765480D01*
Y572360D01*
X755690D01*
Y574900D01*
X765480D01*
Y578860D01*
X755690D01*
Y581400D01*
X765480D01*
Y581840D01*
Y588340D01*
Y597920D01*
X745900D01*
Y594733D01*
X744727Y594247D01*
X725714Y613260D01*
X726199Y614434D01*
X736742D01*
Y609590D01*
X749023D01*
Y609590D01*
X749443D01*
Y609590D01*
X761722D01*
Y609590D01*
X762143D01*
Y609590D01*
X774423D01*
Y609590D01*
X774843D01*
Y609590D01*
X787122D01*
Y618763D01*
X787354Y619323D01*
X787579Y621030D01*
X787354Y622737D01*
X787122Y623297D01*
Y632470D01*
X774843D01*
Y632470D01*
X774423D01*
Y632470D01*
X762143D01*
Y632470D01*
X761722D01*
Y632470D01*
X749443D01*
Y632470D01*
X749023D01*
Y632470D01*
X736742D01*
Y627626D01*
X722180D01*
Y639880D01*
D02*
G37*
G36*
X838200Y633200D02*
X833330D01*
Y623030D01*
X838200D01*
Y633200D01*
D02*
G37*
G36*
X591609Y631610D02*
X589492D01*
X587447Y631062D01*
X585613Y630004D01*
X584116Y628507D01*
X583058Y626673D01*
X582510Y624628D01*
Y622511D01*
X583058Y620467D01*
X584116Y618633D01*
X585613Y617136D01*
X587447Y616078D01*
X589492Y615530D01*
X591609D01*
X593653Y616078D01*
X595487Y617136D01*
X596984Y618633D01*
X598042Y620467D01*
X598590Y622511D01*
Y624628D01*
X598042Y626673D01*
X596984Y628507D01*
X595487Y630004D01*
X593653Y631062D01*
X591609Y631610D01*
D02*
G37*
G36*
X846030Y633200D02*
X844760Y633200D01*
X840740D01*
Y621760D01*
Y610320D01*
X844760D01*
X845610Y610320D01*
X846880Y610320D01*
X850900D01*
Y621760D01*
Y633200D01*
X846880D01*
X846030Y633200D01*
D02*
G37*
G36*
X838200Y620490D02*
X833330D01*
Y610320D01*
X838200D01*
Y620490D01*
D02*
G37*
G36*
X617338Y608710D02*
X617220D01*
Y599440D01*
X626490D01*
Y599558D01*
X625772Y602238D01*
X624384Y604642D01*
X622422Y606604D01*
X620018Y607992D01*
X617338Y608710D01*
D02*
G37*
G36*
X614680D02*
X614562D01*
X611882Y607992D01*
X609478Y606604D01*
X607516Y604642D01*
X606128Y602238D01*
X605410Y599558D01*
Y599440D01*
X614680D01*
Y608710D01*
D02*
G37*
G36*
X660520Y602380D02*
X654500D01*
Y594360D01*
X660520D01*
Y602380D01*
D02*
G37*
G36*
X591609Y606210D02*
X589492D01*
X587447Y605662D01*
X585613Y604604D01*
X584116Y603107D01*
X583058Y601273D01*
X582510Y599229D01*
Y597112D01*
X583058Y595067D01*
X584116Y593233D01*
X585613Y591736D01*
X587447Y590678D01*
X589492Y590130D01*
X591609D01*
X593653Y590678D01*
X595487Y591736D01*
X596984Y593233D01*
X598042Y595067D01*
X598590Y597112D01*
Y599229D01*
X598042Y601273D01*
X596984Y603107D01*
X595487Y604604D01*
X593653Y605662D01*
X591609Y606210D01*
D02*
G37*
G36*
X669500Y602380D02*
X668230Y602380D01*
X663060D01*
Y593090D01*
Y583800D01*
X668230D01*
X669080Y583800D01*
X670350Y583800D01*
X684080D01*
Y589245D01*
X687400D01*
Y587900D01*
X706980D01*
Y588340D01*
Y597920D01*
X687400D01*
Y597015D01*
X684080D01*
Y602380D01*
X670350D01*
X669500Y602380D01*
D02*
G37*
G36*
X626490Y596900D02*
X617220D01*
Y587630D01*
X617338D01*
X620018Y588348D01*
X622422Y589736D01*
X624384Y591698D01*
X625772Y594102D01*
X626490Y596782D01*
Y596900D01*
D02*
G37*
G36*
X614680D02*
X605410D01*
Y596782D01*
X606128Y594102D01*
X607516Y591698D01*
X609478Y589736D01*
X611882Y588348D01*
X614562Y587630D01*
X614680D01*
Y596900D01*
D02*
G37*
G36*
X805580Y592520D02*
X797560D01*
Y586500D01*
X805580D01*
Y592520D01*
D02*
G37*
G36*
X790810Y592595D02*
X790435Y592520D01*
X787000D01*
Y589085D01*
X786925Y588710D01*
X787000Y588335D01*
Y586500D01*
X795020D01*
Y592520D01*
X791185D01*
X790810Y592595D01*
D02*
G37*
G36*
X660520Y591820D02*
X654500D01*
Y583800D01*
X660520D01*
Y591820D01*
D02*
G37*
G36*
X706980Y585360D02*
X687400D01*
Y581840D01*
Y575340D01*
Y574900D01*
X706980D01*
Y575340D01*
Y581840D01*
Y585360D01*
D02*
G37*
G36*
X744120Y697230D02*
X741780D01*
X739519Y696624D01*
X737491Y695454D01*
X735836Y693799D01*
X734666Y691771D01*
X734060Y689510D01*
Y687170D01*
X734666Y684909D01*
X735836Y682881D01*
X737491Y681226D01*
X738680Y680540D01*
X738340Y679270D01*
X736742D01*
Y656390D01*
X749023D01*
X749023Y656390D01*
X749443D01*
Y656390D01*
X750293Y656390D01*
X761722D01*
Y656390D01*
X762143D01*
Y656390D01*
X774423D01*
Y656390D01*
X774843D01*
Y656390D01*
X787122D01*
Y661424D01*
X795394D01*
X795911Y660906D01*
X797939Y659736D01*
X800200Y659130D01*
X802540D01*
X804801Y659736D01*
X806829Y660906D01*
X807346Y661424D01*
X833330D01*
Y657120D01*
X845610D01*
Y657120D01*
X846030D01*
Y657120D01*
X858310D01*
Y657120D01*
X858730D01*
Y657120D01*
X871010D01*
Y657120D01*
X871430D01*
Y657120D01*
X883710D01*
Y661964D01*
X906788D01*
X981310Y587441D01*
Y569090D01*
X1017090D01*
Y596770D01*
X990639D01*
X914184Y673224D01*
X912818Y674273D01*
X911227Y674932D01*
X909520Y675156D01*
X883710D01*
Y680000D01*
X871430D01*
Y680000D01*
X871010D01*
Y680000D01*
X858730D01*
Y680000D01*
X858310D01*
Y680000D01*
X846030D01*
Y680000D01*
X845610D01*
Y680000D01*
X833330D01*
Y674616D01*
X807346D01*
X806829Y675134D01*
X804801Y676304D01*
X802540Y676910D01*
X800200D01*
X797939Y676304D01*
X795911Y675134D01*
X795394Y674616D01*
X787122D01*
Y679270D01*
X774843D01*
Y679270D01*
X774423D01*
Y679270D01*
X762143D01*
Y679270D01*
X761722D01*
Y679270D01*
X750293D01*
X749443Y679270D01*
Y679270D01*
X749023D01*
Y679270D01*
X747560D01*
X747220Y680540D01*
X748409Y681226D01*
X750064Y682881D01*
X751234Y684909D01*
X751840Y687170D01*
Y689510D01*
X751234Y691771D01*
X750064Y693799D01*
X748409Y695454D01*
X746381Y696624D01*
X744120Y697230D01*
D02*
G37*
G36*
X706980Y572360D02*
X687400D01*
Y568840D01*
Y568400D01*
X706980D01*
Y568840D01*
Y572360D01*
D02*
G37*
G36*
X725170Y585720D02*
X710200D01*
Y565150D01*
X725170D01*
Y585720D01*
D02*
G37*
G36*
X664610Y561770D02*
X646030D01*
Y558865D01*
X644290D01*
Y561140D01*
X625710D01*
Y547560D01*
X644290D01*
Y551095D01*
X646030D01*
Y548190D01*
X664610D01*
Y561770D01*
D02*
G37*
G36*
X676810Y581660D02*
X674470D01*
X672209Y581054D01*
X670181Y579884D01*
X668526Y578229D01*
X667356Y576201D01*
X666750Y573940D01*
Y571600D01*
X667356Y569339D01*
X668526Y567311D01*
X670181Y565656D01*
X671755Y564748D01*
Y562410D01*
X666350D01*
Y548830D01*
X684930D01*
Y550245D01*
X687400D01*
Y544035D01*
X684930D01*
Y545910D01*
X666350D01*
Y543005D01*
X664610D01*
Y545270D01*
X646030D01*
Y531690D01*
X664610D01*
Y535182D01*
X664881Y535235D01*
X666350D01*
Y532330D01*
X684930D01*
Y536266D01*
X687400D01*
Y529840D01*
X693305D01*
Y526210D01*
X686488D01*
Y522045D01*
X684200D01*
Y527450D01*
X670470D01*
X669620Y527450D01*
X668350Y527450D01*
X663180D01*
Y518160D01*
Y508870D01*
X668350D01*
X669200Y508870D01*
X670470Y508870D01*
X684200D01*
Y514275D01*
X686488D01*
Y512630D01*
X705068D01*
Y526210D01*
X701075D01*
Y529840D01*
X706980D01*
Y538312D01*
X708153Y538798D01*
X712395Y534556D01*
Y523643D01*
X710821Y522734D01*
X709166Y521079D01*
X707996Y519051D01*
X707390Y516790D01*
Y514450D01*
X707996Y512189D01*
X709166Y510161D01*
X710821Y508506D01*
X712849Y507336D01*
X715110Y506730D01*
X717450D01*
X719711Y507336D01*
X721739Y508506D01*
X723394Y510161D01*
X724564Y512189D01*
X725170Y514450D01*
Y516790D01*
X724564Y519051D01*
X723394Y521079D01*
X721739Y522734D01*
X720165Y523643D01*
Y536165D01*
X719869Y537651D01*
X719027Y538911D01*
X717072Y540867D01*
X717558Y542040D01*
X725170D01*
Y562610D01*
X710200D01*
Y549398D01*
X709027Y548912D01*
X708541Y549397D01*
X707281Y550239D01*
X706980Y550299D01*
Y562340D01*
Y565860D01*
X687400D01*
Y558015D01*
X684930D01*
Y562410D01*
X679525D01*
Y564748D01*
X681099Y565656D01*
X682754Y567311D01*
X683924Y569339D01*
X684530Y571600D01*
Y573940D01*
X683924Y576201D01*
X682754Y578229D01*
X681099Y579884D01*
X679071Y581054D01*
X676810Y581660D01*
D02*
G37*
G36*
X644290Y544640D02*
X636270D01*
Y539120D01*
X644290D01*
Y544640D01*
D02*
G37*
G36*
X633730D02*
X625710D01*
Y539120D01*
X633730D01*
Y544640D01*
D02*
G37*
G36*
X1100740Y539870D02*
X1093470D01*
Y532600D01*
X1100740D01*
Y539870D01*
D02*
G37*
G36*
X1090930D02*
X1083660D01*
Y532600D01*
X1090930D01*
Y539870D01*
D02*
G37*
G36*
X644290Y536580D02*
X636270D01*
Y531060D01*
X644290D01*
Y536580D01*
D02*
G37*
G36*
X633730D02*
X625710D01*
Y531060D01*
X633730D01*
Y536580D01*
D02*
G37*
G36*
X1100740Y530060D02*
X1093470D01*
Y522790D01*
X1100740D01*
Y530060D01*
D02*
G37*
G36*
X1090930D02*
X1083660D01*
Y522790D01*
X1090930D01*
Y530060D01*
D02*
G37*
G36*
X660640Y527450D02*
X654620D01*
Y519430D01*
X660640D01*
Y527450D01*
D02*
G37*
G36*
X1201538Y519810D02*
X1201420D01*
Y510540D01*
X1210690D01*
Y510658D01*
X1209972Y513338D01*
X1208584Y515742D01*
X1206622Y517704D01*
X1204218Y519092D01*
X1201538Y519810D01*
D02*
G37*
G36*
X1198880D02*
X1198762D01*
X1196082Y519092D01*
X1193678Y517704D01*
X1191716Y515742D01*
X1190328Y513338D01*
X1189610Y510658D01*
Y510540D01*
X1198880D01*
Y519810D01*
D02*
G37*
G36*
X660640Y516890D02*
X654620D01*
Y508870D01*
X660640D01*
Y516890D01*
D02*
G37*
G36*
X944990Y596770D02*
X909210D01*
Y569090D01*
X920504D01*
Y538250D01*
X907460D01*
Y523264D01*
X889496Y505300D01*
X888900Y505460D01*
X886560D01*
X884299Y504854D01*
X882271Y503684D01*
X880616Y502029D01*
X879446Y500001D01*
X878840Y497740D01*
Y495400D01*
X879446Y493139D01*
X880616Y491111D01*
X882271Y489456D01*
X884299Y488286D01*
X886560Y487680D01*
X888900D01*
X891161Y488286D01*
X893189Y489456D01*
X894844Y491111D01*
X896014Y493139D01*
X896620Y495400D01*
Y497740D01*
X896014Y500001D01*
X895711Y500527D01*
X912954Y517770D01*
X946740D01*
Y538250D01*
X933696D01*
Y569090D01*
X944990D01*
Y596770D01*
D02*
G37*
G36*
X627500Y512210D02*
X621480D01*
Y504190D01*
X627500D01*
Y512210D01*
D02*
G37*
G36*
X1226609Y517310D02*
X1224492D01*
X1222447Y516762D01*
X1220613Y515704D01*
X1219116Y514207D01*
X1218058Y512373D01*
X1217510Y510328D01*
Y508212D01*
X1218058Y506167D01*
X1219116Y504333D01*
X1220613Y502836D01*
X1222447Y501778D01*
X1224492Y501230D01*
X1226609D01*
X1228653Y501778D01*
X1230487Y502836D01*
X1231984Y504333D01*
X1233042Y506167D01*
X1233590Y508212D01*
Y510328D01*
X1233042Y512373D01*
X1231984Y514207D01*
X1230487Y515704D01*
X1228653Y516762D01*
X1226609Y517310D01*
D02*
G37*
G36*
X1210690Y508000D02*
X1201420D01*
Y498730D01*
X1201538D01*
X1204218Y499448D01*
X1206622Y500836D01*
X1208584Y502798D01*
X1209972Y505202D01*
X1210690Y507882D01*
Y508000D01*
D02*
G37*
G36*
X1198880D02*
X1189610D01*
Y507882D01*
X1190328Y505202D01*
X1191716Y502798D01*
X1193678Y500836D01*
X1196082Y499448D01*
X1198762Y498730D01*
X1198880D01*
Y508000D01*
D02*
G37*
G36*
X636480Y512210D02*
X635210Y512210D01*
X630040D01*
Y502920D01*
Y493630D01*
X635210D01*
X636060Y493630D01*
X637330Y493630D01*
X651060D01*
Y499035D01*
X686488D01*
Y496130D01*
X705068D01*
Y509710D01*
X686488D01*
Y506805D01*
X651060D01*
Y512210D01*
X637330D01*
X636480Y512210D01*
D02*
G37*
G36*
X627500Y501650D02*
X621480D01*
Y493630D01*
X627500D01*
Y501650D01*
D02*
G37*
G36*
X1210690Y494410D02*
X1189610D01*
Y487926D01*
X1097681D01*
X1097444Y488164D01*
X1095496Y489288D01*
X1093324Y489870D01*
X1091076D01*
X1088904Y489288D01*
X1086956Y488164D01*
X1085366Y486574D01*
X1084242Y484626D01*
X1083660Y482454D01*
Y482119D01*
X1078348Y476806D01*
X946740D01*
Y480450D01*
X907460D01*
Y471245D01*
X899563D01*
X898654Y472819D01*
X896999Y474474D01*
X894971Y475644D01*
X892710Y476250D01*
X890370D01*
X888109Y475644D01*
X886081Y474474D01*
X884426Y472819D01*
X883256Y470791D01*
X882650Y468530D01*
Y466190D01*
X883256Y463929D01*
X884426Y461901D01*
X886081Y460246D01*
X888109Y459076D01*
X890370Y458470D01*
X892710D01*
X894971Y459076D01*
X896999Y460246D01*
X898654Y461901D01*
X899563Y463475D01*
X907460D01*
Y459970D01*
X946740D01*
Y463613D01*
X1081080D01*
X1082787Y463838D01*
X1084378Y464497D01*
X1085744Y465546D01*
X1092989Y472790D01*
X1093324D01*
X1095496Y473372D01*
X1097444Y474496D01*
X1097681Y474734D01*
X1189610D01*
Y473330D01*
X1210690D01*
Y494410D01*
D02*
G37*
G36*
X1226609Y491910D02*
X1224492D01*
X1222447Y491362D01*
X1220613Y490304D01*
X1219116Y488807D01*
X1218058Y486973D01*
X1217510Y484929D01*
Y482812D01*
X1218058Y480767D01*
X1219116Y478933D01*
X1220613Y477436D01*
X1222447Y476378D01*
X1224492Y475830D01*
X1226609D01*
X1228653Y476378D01*
X1230487Y477436D01*
X1231984Y478933D01*
X1233042Y480767D01*
X1233590Y482812D01*
Y484929D01*
X1233042Y486973D01*
X1231984Y488807D01*
X1230487Y490304D01*
X1228653Y491362D01*
X1226609Y491910D01*
D02*
G37*
%LPD*%
D13*
X675640Y557173D02*
Y572770D01*
X742916Y667864D02*
Y688306D01*
X742883Y667830D02*
X742916Y667864D01*
Y688306D02*
X742950Y688340D01*
X807850Y554130D02*
X812070Y549910D01*
X755690Y554130D02*
X807850D01*
X812070Y549910D02*
X814070D01*
X704330Y623570D02*
X705600Y624840D01*
X706120Y624320D01*
X784391Y547630D02*
X793541Y538480D01*
X795020D01*
X755690Y541130D02*
X770780D01*
X755690D02*
X756670Y540150D01*
X770780Y541130D02*
X778510Y533400D01*
X755690Y547630D02*
X784391D01*
X676790Y593130D02*
X697190D01*
X891540Y467360D02*
X924250D01*
X927100Y470210D01*
X1197610Y481330D02*
X1200150Y483870D01*
X716280Y515620D02*
Y536165D01*
X697190Y547630D02*
X698170Y546650D01*
X705794D01*
X716280Y536165D01*
X887730Y496570D02*
Y498040D01*
X917700Y528010D01*
X927100D01*
X995150Y582930D02*
X999200D01*
X643770Y502920D02*
X695778D01*
X676910Y518160D02*
X694873D01*
X655320Y538480D02*
X655863Y539023D01*
X664489Y539120D02*
X675640D01*
X664392Y539023D02*
X664489Y539120D01*
X655863Y539023D02*
X664392D01*
X676670Y540150D02*
X696210D01*
X697190Y541130D01*
X635630Y554980D02*
X655320D01*
X635000Y554350D02*
X635630Y554980D01*
X643770Y502920D02*
X643890Y503040D01*
X694873Y518160D02*
X697190Y520477D01*
Y534630D01*
X675640Y555620D02*
X677130Y554130D01*
X697190D01*
X692190Y534630D02*
X697190D01*
X838930Y668020D02*
X839470Y668560D01*
X780983Y667864D02*
X781139Y668020D01*
X841084Y560630D02*
X877570Y597116D01*
Y621760D01*
X755690Y560630D02*
X841084D01*
X754710Y566150D02*
X755690Y567130D01*
X747086Y566150D02*
X754710D01*
X743410Y562474D02*
X747086Y566150D01*
X743410Y543226D02*
Y562474D01*
X739150Y538965D02*
X743410Y543226D01*
X739150Y515620D02*
Y538965D01*
X755650Y515620D02*
X755690Y515660D01*
Y534630D01*
X735210Y572650D02*
X754710D01*
X726440Y563880D02*
X735210Y572650D01*
X790930Y567130D02*
X796710Y572910D01*
X755690Y567130D02*
X790930D01*
X796710Y572910D02*
X840740D01*
X814070Y549910D02*
X840740D01*
X754710Y553150D02*
X755690Y554130D01*
X754710Y572650D02*
X755690Y573630D01*
Y580130D02*
X756670Y581110D01*
X755690Y586630D02*
X756670Y587610D01*
X712450Y621030D02*
X745870Y587610D01*
X707890Y625590D02*
X712450Y621030D01*
X745870Y587610D02*
X754710D01*
X755690Y586630D01*
X707390Y625590D02*
X707890D01*
X755690Y534630D02*
X760690D01*
X755690Y573630D02*
Y580130D01*
X790810Y588710D02*
X794290Y585230D01*
X796290D01*
X675258Y593090D02*
X675298Y593130D01*
D15*
X963150Y689330D02*
D03*
D16*
X999200Y582930D02*
D03*
X927100D02*
D03*
D17*
X877570Y668560D02*
D03*
X864870D02*
D03*
X852170D02*
D03*
X839470D02*
D03*
X877570Y621760D02*
D03*
X864870D02*
D03*
X852170D02*
D03*
X839470D02*
D03*
X780983Y667830D02*
D03*
X768282D02*
D03*
X755583D02*
D03*
X742883D02*
D03*
X780983Y621030D02*
D03*
X768282D02*
D03*
X755583D02*
D03*
X742883D02*
D03*
D18*
X635000Y537850D02*
D03*
Y554350D02*
D03*
X675640Y539120D02*
D03*
Y555620D02*
D03*
X655320Y554980D02*
D03*
Y538480D02*
D03*
X695778Y502920D02*
D03*
Y519420D02*
D03*
D19*
X676910Y518160D02*
D03*
X661910D02*
D03*
X628770Y502920D02*
D03*
X643770D02*
D03*
X676790Y593090D02*
D03*
X661790D02*
D03*
D20*
X697190Y593130D02*
D03*
Y586630D02*
D03*
Y580130D02*
D03*
Y573630D02*
D03*
Y567130D02*
D03*
Y560630D02*
D03*
Y554130D02*
D03*
Y547630D02*
D03*
Y541130D02*
D03*
Y534630D02*
D03*
X755690D02*
D03*
Y541130D02*
D03*
Y547630D02*
D03*
Y554130D02*
D03*
Y560630D02*
D03*
Y567130D02*
D03*
Y573630D02*
D03*
Y580130D02*
D03*
Y586630D02*
D03*
Y593130D02*
D03*
D21*
X726440Y563880D02*
D03*
D22*
X755650Y515620D02*
D03*
X739150D02*
D03*
D23*
X707390Y625590D02*
D03*
Y687590D02*
D03*
D24*
X814070Y549910D02*
D03*
Y534910D02*
D03*
X796290Y570230D02*
D03*
Y585230D02*
D03*
D25*
X927100Y528010D02*
D03*
Y470210D02*
D03*
D26*
X840740Y549910D02*
D03*
Y572910D02*
D03*
D42*
X615950Y623570D02*
X704330D01*
X799705Y535067D02*
X813913D01*
X814070Y534910D01*
X796292Y538480D02*
X799705Y535067D01*
X795020Y538480D02*
X796292D01*
X1081080Y470210D02*
X1092200Y481330D01*
X927100Y470210D02*
X1081080D01*
X1092200Y481330D02*
X1197610D01*
X927100Y528010D02*
Y582930D01*
X909520Y668560D02*
X995150Y582930D01*
X877570Y668560D02*
X909520D01*
X801370Y668020D02*
X838930D01*
X781139D02*
X801370D01*
X768282Y667830D02*
X780983D01*
X755583D02*
X768282D01*
X864870Y668560D02*
X877570D01*
X852170D02*
X864870D01*
X839470D02*
X852170D01*
X712450Y621030D02*
X742883D01*
X768282D02*
X780983D01*
X755583D02*
X768282D01*
X742883D02*
X755583D01*
D43*
X1200150Y483870D02*
D03*
X615950Y623570D02*
D03*
D44*
X1200150Y509270D02*
D03*
X615950Y598170D02*
D03*
D45*
X1092200Y531330D02*
D03*
D46*
Y481330D02*
D03*
D47*
X675640Y572770D02*
D03*
X742950Y688340D02*
D03*
X795020Y538480D02*
D03*
X778510Y533400D02*
D03*
X891540Y467360D02*
D03*
X716280Y515620D02*
D03*
X887730Y496570D02*
D03*
X801370Y668020D02*
D03*
M02*
