G04*
G04 #@! TF.GenerationSoftware,Altium Limited,Altium Designer,24.0.1 (36)*
G04*
G04 Layer_Color=8421504*
%FSLAX44Y44*%
%MOMM*%
G71*
G04*
G04 #@! TF.SameCoordinates,861917B8-4398-4D05-8FE2-F05A855006CB*
G04*
G04*
G04 #@! TF.FilePolarity,Positive*
G04*
G01*
G75*
%ADD15R,2.7700X2.2600*%
%ADD16R,3.0700X2.2600*%
%ADD17R,0.7200X1.7800*%
%ADD18R,1.3500X0.8500*%
%ADD19R,0.9500X1.3500*%
%ADD20R,1.4500X0.4500*%
%ADD21R,2.7400X3.8600*%
%ADD22R,0.8500X1.3500*%
%ADD23R,2.4500X2.3500*%
%ADD24R,1.3500X0.9500*%
%ADD25R,3.4200X1.5400*%
%ADD26R,0.5500X1.0500*%
D15*
X963150Y689330D02*
D03*
D16*
X999200Y582930D02*
D03*
X927100D02*
D03*
D17*
X877570Y668560D02*
D03*
X864870D02*
D03*
X852170D02*
D03*
X839470D02*
D03*
X877570Y621760D02*
D03*
X864870D02*
D03*
X852170D02*
D03*
X839470D02*
D03*
X780983Y667830D02*
D03*
X768282D02*
D03*
X755583D02*
D03*
X742883D02*
D03*
X780983Y621030D02*
D03*
X768282D02*
D03*
X755583D02*
D03*
X742883D02*
D03*
D18*
X635000Y537850D02*
D03*
Y554350D02*
D03*
X675640Y539120D02*
D03*
Y555620D02*
D03*
X655320Y554980D02*
D03*
Y538480D02*
D03*
X695778Y502920D02*
D03*
Y519420D02*
D03*
D19*
X676910Y518160D02*
D03*
X661910D02*
D03*
X628770Y502920D02*
D03*
X643770D02*
D03*
X676790Y593090D02*
D03*
X661790D02*
D03*
D20*
X697190Y593130D02*
D03*
Y586630D02*
D03*
Y580130D02*
D03*
Y573630D02*
D03*
Y567130D02*
D03*
Y560630D02*
D03*
Y554130D02*
D03*
Y547630D02*
D03*
Y541130D02*
D03*
Y534630D02*
D03*
X755690D02*
D03*
Y541130D02*
D03*
Y547630D02*
D03*
Y554130D02*
D03*
Y560630D02*
D03*
Y567130D02*
D03*
Y573630D02*
D03*
Y580130D02*
D03*
Y586630D02*
D03*
Y593130D02*
D03*
D21*
X726440Y563880D02*
D03*
D22*
X755650Y515620D02*
D03*
X739150D02*
D03*
D23*
X707390Y625590D02*
D03*
Y687590D02*
D03*
D24*
X814070Y549910D02*
D03*
Y534910D02*
D03*
X796290Y570230D02*
D03*
Y585230D02*
D03*
D25*
X927100Y528010D02*
D03*
Y470210D02*
D03*
D26*
X840740Y549910D02*
D03*
Y572910D02*
D03*
M02*
