G04*
G04 #@! TF.GenerationSoftware,Altium Limited,Altium Designer,24.0.1 (36)*
G04*
G04 Layer_Color=8421504*
%FSLAX44Y44*%
%MOMM*%
G71*
G04*
G04 #@! TF.SameCoordinates,B85333DD-67EC-4CFA-91B2-C3F9892E9ACE*
G04*
G04*
G04 #@! TF.FilePolarity,Positive*
G04*
G01*
G75*
%ADD15R,0.8500X1.3500*%
%ADD16R,0.7200X1.7800*%
%ADD17R,2.3500X2.4500*%
%ADD18R,0.9500X1.3500*%
%ADD19R,2.7400X3.8600*%
%ADD20R,1.4500X0.4500*%
%ADD21R,1.7800X0.7200*%
%ADD22R,1.3500X0.8500*%
%ADD23R,1.5400X3.4200*%
%ADD24R,3.0000X2.8000*%
%ADD25R,1.3500X0.9500*%
%ADD26R,0.5500X1.0500*%
D15*
X819780Y501650D02*
D03*
X803280D02*
D03*
X626740Y546100D02*
D03*
X610240D02*
D03*
X685800Y505460D02*
D03*
X669300D02*
D03*
D16*
X802640Y535400D02*
D03*
X815340D02*
D03*
X828040D02*
D03*
X840740D02*
D03*
X802640Y582200D02*
D03*
X815340D02*
D03*
X828040D02*
D03*
X840740D02*
D03*
D17*
X743700Y632460D02*
D03*
X805700D02*
D03*
D18*
X884950Y514350D02*
D03*
X869950D02*
D03*
X654050Y505460D02*
D03*
X639050D02*
D03*
X638930Y527050D02*
D03*
X653930D02*
D03*
X671710Y593090D02*
D03*
X656710D02*
D03*
D19*
X726440Y563880D02*
D03*
D20*
X755690Y593130D02*
D03*
Y586630D02*
D03*
Y580130D02*
D03*
Y573630D02*
D03*
Y567130D02*
D03*
Y560630D02*
D03*
Y554130D02*
D03*
Y547630D02*
D03*
Y541130D02*
D03*
Y534630D02*
D03*
X697190D02*
D03*
Y541130D02*
D03*
Y547630D02*
D03*
Y554130D02*
D03*
Y560630D02*
D03*
Y567130D02*
D03*
Y573630D02*
D03*
Y580130D02*
D03*
Y586630D02*
D03*
Y593130D02*
D03*
D21*
X924020Y618490D02*
D03*
Y605790D02*
D03*
Y593090D02*
D03*
Y580390D02*
D03*
X970820Y618490D02*
D03*
Y605790D02*
D03*
Y593090D02*
D03*
Y580390D02*
D03*
D22*
X662940Y563240D02*
D03*
Y546740D02*
D03*
D23*
X1026160Y557530D02*
D03*
X1083960D02*
D03*
D24*
X1074700Y764540D02*
D03*
X971550D02*
D03*
D25*
X876300Y584320D02*
D03*
Y599320D02*
D03*
D26*
X897890Y547300D02*
D03*
Y570300D02*
D03*
M02*
